<?xml version="1.0" encoding="UTF-8"?>
<!--Generator: Apple Native CoreSVG 129-->
<!DOCTYPE svg
PUBLIC "-//W3C//DTD SVG 1.1//EN"
       "http://www.w3.org/Graphics/SVG/1.1/DTD/svg11.dtd">
<svg version="1.1" xmlns="http://www.w3.org/2000/svg" xmlns:xlink="http://www.w3.org/1999/xlink" width="3300" height="2200">
 <!--glyph: "uni100647.medium", point size: 100.000000, font version: "Version 16.0d9e1", template writer version: "8"-->
 <g id="Notes">
  <rect height="2200" id="artboard" style="fill:white;opacity:1" width="3300" x="0" y="0"/>
  <line id="" style="fill:none;stroke:black;opacity:1;stroke-width:0.5;" x1="263" x2="3036" y1="292" y2="292"/>
  <text style="stroke:none;fill:black;font-family:-apple-system,&quot;SF Pro Display&quot;,&quot;SF Pro Text&quot;,Helvetica,sans-serif;font-weight:bold;" transform="matrix(1 0 0 1 263 322)">Weight/Scale Variations</text>
  <text style="stroke:none;fill:black;font-family:-apple-system,&quot;SF Pro Display&quot;,&quot;SF Pro Text&quot;,Helvetica,sans-serif;text-anchor:middle;" transform="matrix(1 0 0 1 559.711 322)">Ultralight</text>
  <text style="stroke:none;fill:black;font-family:-apple-system,&quot;SF Pro Display&quot;,&quot;SF Pro Text&quot;,Helvetica,sans-serif;text-anchor:middle;" transform="matrix(1 0 0 1 856.422 322)">Thin</text>
  <text style="stroke:none;fill:black;font-family:-apple-system,&quot;SF Pro Display&quot;,&quot;SF Pro Text&quot;,Helvetica,sans-serif;text-anchor:middle;" transform="matrix(1 0 0 1 1153.13 322)">Light</text>
  <text style="stroke:none;fill:black;font-family:-apple-system,&quot;SF Pro Display&quot;,&quot;SF Pro Text&quot;,Helvetica,sans-serif;text-anchor:middle;" transform="matrix(1 0 0 1 1449.84 322)">Regular</text>
  <text style="stroke:none;fill:black;font-family:-apple-system,&quot;SF Pro Display&quot;,&quot;SF Pro Text&quot;,Helvetica,sans-serif;text-anchor:middle;" transform="matrix(1 0 0 1 1746.56 322)">Medium</text>
  <text style="stroke:none;fill:black;font-family:-apple-system,&quot;SF Pro Display&quot;,&quot;SF Pro Text&quot;,Helvetica,sans-serif;text-anchor:middle;" transform="matrix(1 0 0 1 2043.27 322)">Semibold</text>
  <text style="stroke:none;fill:black;font-family:-apple-system,&quot;SF Pro Display&quot;,&quot;SF Pro Text&quot;,Helvetica,sans-serif;text-anchor:middle;" transform="matrix(1 0 0 1 2339.98 322)">Bold</text>
  <text style="stroke:none;fill:black;font-family:-apple-system,&quot;SF Pro Display&quot;,&quot;SF Pro Text&quot;,Helvetica,sans-serif;text-anchor:middle;" transform="matrix(1 0 0 1 2636.69 322)">Heavy</text>
  <text style="stroke:none;fill:black;font-family:-apple-system,&quot;SF Pro Display&quot;,&quot;SF Pro Text&quot;,Helvetica,sans-serif;text-anchor:middle;" transform="matrix(1 0 0 1 2933.4 322)">Black</text>
  <line id="" style="fill:none;stroke:black;opacity:1;stroke-width:0.5;" x1="263" x2="3036" y1="1903" y2="1903"/>
  <g id="" transform="matrix(1 0 0 1 263 1933)">
   <path d="M 9.24805 0.830078 C 13.5547 0.830078 17.1387 -2.74414 17.1387 -7.05078 C 17.1387 -11.3574 13.5449 -14.9316 9.23828 -14.9316 C 4.94141 -14.9316 1.36719 -11.3574 1.36719 -7.05078 C 1.36719 -2.74414 4.95117 0.830078 9.24805 0.830078 Z M 9.24805 -0.654297 C 5.70312 -0.654297 2.87109 -3.49609 2.87109 -7.05078 C 2.87109 -10.6055 5.69336 -13.4473 9.23828 -13.4473 C 12.793 -13.4473 15.6348 -10.6055 15.6445 -7.05078 C 15.6543 -3.49609 12.8027 -0.654297 9.24805 -0.654297 Z M 9.22852 -3.62305 C 9.69727 -3.62305 9.9707 -3.93555 9.9707 -4.45312 L 9.9707 -6.31836 L 12.002 -6.31836 C 12.5 -6.31836 12.832 -6.57227 12.832 -7.04102 C 12.832 -7.51953 12.5195 -7.7832 12.002 -7.7832 L 9.9707 -7.7832 L 9.9707 -9.81445 C 9.9707 -10.332 9.69727 -10.6543 9.22852 -10.6543 C 8.75977 -10.6543 8.50586 -10.3125 8.50586 -9.81445 L 8.50586 -7.7832 L 6.49414 -7.7832 C 5.97656 -7.7832 5.64453 -7.51953 5.64453 -7.04102 C 5.64453 -6.57227 5.99609 -6.31836 6.49414 -6.31836 L 8.50586 -6.31836 L 8.50586 -4.45312 C 8.50586 -3.95508 8.75977 -3.62305 9.22852 -3.62305 Z"/>
  </g>
  <g id="" transform="matrix(1 0 0 1 281.506 1933)">
   <path d="M 11.709 2.91016 C 17.1582 2.91016 21.6699 -1.61133 21.6699 -7.05078 C 21.6699 -12.5 17.1484 -17.0117 11.6992 -17.0117 C 6.25977 -17.0117 1.74805 -12.5 1.74805 -7.05078 C 1.74805 -1.61133 6.26953 2.91016 11.709 2.91016 Z M 11.709 1.25 C 7.09961 1.25 3.41797 -2.44141 3.41797 -7.05078 C 3.41797 -11.6602 7.08984 -15.3516 11.6992 -15.3516 C 16.3086 -15.3516 20 -11.6602 20.0098 -7.05078 C 20.0195 -2.44141 16.3184 1.25 11.709 1.25 Z M 11.6797 -2.66602 C 12.207 -2.66602 12.5098 -3.01758 12.5098 -3.59375 L 12.5098 -6.23047 L 15.3223 -6.23047 C 15.8691 -6.23047 16.25 -6.51367 16.25 -7.03125 C 16.25 -7.55859 15.8887 -7.86133 15.3223 -7.86133 L 12.5098 -7.86133 L 12.5098 -10.6836 C 12.5098 -11.25 12.207 -11.6113 11.6797 -11.6113 C 11.1621 -11.6113 10.8789 -11.2305 10.8789 -10.6836 L 10.8789 -7.86133 L 8.07617 -7.86133 C 7.50977 -7.86133 7.13867 -7.55859 7.13867 -7.03125 C 7.13867 -6.51367 7.5293 -6.23047 8.07617 -6.23047 L 10.8789 -6.23047 L 10.8789 -3.59375 C 10.8789 -3.03711 11.1621 -2.66602 11.6797 -2.66602 Z"/>
  </g>
  <g id="" transform="matrix(1 0 0 1 304.924 1933)">
   <path d="M 14.9707 5.66406 C 21.9336 5.66406 27.6953 -0.0976562 27.6953 -7.05078 C 27.6953 -14.0137 21.9238 -19.7754 14.9609 -19.7754 C 8.00781 -19.7754 2.25586 -14.0137 2.25586 -7.05078 C 2.25586 -0.0976562 8.01758 5.66406 14.9707 5.66406 Z M 14.9707 3.84766 C 8.93555 3.84766 4.08203 -1.01562 4.08203 -7.05078 C 4.08203 -13.0957 8.92578 -17.9492 14.9609 -17.9492 C 21.0059 -17.9492 25.8594 -13.0957 25.8691 -7.05078 C 25.8789 -1.01562 21.0156 3.84766 14.9707 3.84766 Z M 14.9414 -1.38672 C 15.5176 -1.38672 15.8594 -1.77734 15.8594 -2.38281 L 15.8594 -6.13281 L 19.7754 -6.13281 C 20.3711 -6.13281 20.7812 -6.46484 20.7812 -7.02148 C 20.7812 -7.59766 20.3906 -7.93945 19.7754 -7.93945 L 15.8594 -7.93945 L 15.8594 -11.8652 C 15.8594 -12.4805 15.5176 -12.8711 14.9414 -12.8711 C 14.375 -12.8711 14.0527 -12.4609 14.0527 -11.8652 L 14.0527 -7.93945 L 10.1465 -7.93945 C 9.53125 -7.93945 9.13086 -7.59766 9.13086 -7.02148 C 9.13086 -6.46484 9.55078 -6.13281 10.1465 -6.13281 L 14.0527 -6.13281 L 14.0527 -2.38281 C 14.0527 -1.79688 14.375 -1.38672 14.9414 -1.38672 Z"/>
  </g>
  <text style="stroke:none;fill:black;font-family:-apple-system,&quot;SF Pro Display&quot;,&quot;SF Pro Text&quot;,Helvetica,sans-serif;font-weight:bold;" transform="matrix(1 0 0 1 263 1953)">Design Variations</text>
  <text style="stroke:none;fill:black;font-family:-apple-system,&quot;SF Pro Display&quot;,&quot;SF Pro Text&quot;,Helvetica,sans-serif;" transform="matrix(1 0 0 1 263 1971)">Symbols are supported in up to nine weights and three scales.</text>
  <text style="stroke:none;fill:black;font-family:-apple-system,&quot;SF Pro Display&quot;,&quot;SF Pro Text&quot;,Helvetica,sans-serif;" transform="matrix(1 0 0 1 263 1989)">For optimal layout with text and other symbols, vertically align</text>
  <text style="stroke:none;fill:black;font-family:-apple-system,&quot;SF Pro Display&quot;,&quot;SF Pro Text&quot;,Helvetica,sans-serif;" transform="matrix(1 0 0 1 263 2007)">symbols with the adjacent text.</text>
  <line id="" style="fill:none;stroke:#00AEEF;stroke-width:0.5;opacity:1.0;" x1="776" x2="776" y1="1919" y2="1933"/>
  <g id="" transform="matrix(1 0 0 1 776 1933)">
   <path d="M 3.31055 0.126953 C 3.82812 0.126953 4.08203 -0.0683594 4.26758 -0.605469 L 5.52734 -4.0625 L 11.2891 -4.0625 L 12.5488 -0.605469 C 12.7344 -0.0683594 12.9883 0.126953 13.4961 0.126953 C 14.0137 0.126953 14.3457 -0.185547 14.3457 -0.673828 C 14.3457 -0.839844 14.3164 -0.986328 14.2383 -1.20117 L 9.6582 -13.3887 C 9.43359 -13.9941 9.0332 -14.2871 8.4082 -14.2871 C 7.80273 -14.2871 7.39258 -13.9941 7.17773 -13.3984 L 2.59766 -1.19141 C 2.51953 -0.976562 2.49023 -0.830078 2.49023 -0.664062 C 2.49023 -0.175781 2.80273 0.126953 3.31055 0.126953 Z M 6.00586 -5.53711 L 8.37891 -12.1094 L 8.42773 -12.1094 L 10.8008 -5.53711 Z"/>
  </g>
  <line id="" style="fill:none;stroke:#00AEEF;stroke-width:0.5;opacity:1.0;" x1="792.836" x2="792.836" y1="1919" y2="1933"/>
  <text style="stroke:none;fill:black;font-family:-apple-system,&quot;SF Pro Display&quot;,&quot;SF Pro Text&quot;,Helvetica,sans-serif;font-weight:bold;" transform="matrix(1 0 0 1 776 1953)">Margins</text>
  <text style="stroke:none;fill:black;font-family:-apple-system,&quot;SF Pro Display&quot;,&quot;SF Pro Text&quot;,Helvetica,sans-serif;" transform="matrix(1 0 0 1 776 1971)">Leading and trailing margins on the left and right side of each symbol</text>
  <text style="stroke:none;fill:black;font-family:-apple-system,&quot;SF Pro Display&quot;,&quot;SF Pro Text&quot;,Helvetica,sans-serif;" transform="matrix(1 0 0 1 776 1989)">can be adjusted by modifying the x-location of the margin guidelines.</text>
  <text style="stroke:none;fill:black;font-family:-apple-system,&quot;SF Pro Display&quot;,&quot;SF Pro Text&quot;,Helvetica,sans-serif;" transform="matrix(1 0 0 1 776 2007)">Modifications are automatically applied proportionally to all</text>
  <text style="stroke:none;fill:black;font-family:-apple-system,&quot;SF Pro Display&quot;,&quot;SF Pro Text&quot;,Helvetica,sans-serif;" transform="matrix(1 0 0 1 776 2025)">scales and weights.</text>
  <g id="" transform="matrix(1 0 0 1 1289 1933)">
   <path d="M 2.8418 1.86523 L 4.54102 3.57422 C 5.40039 4.44336 6.38672 4.38477 7.31445 3.35938 L 17.4902 -7.85156 C 17.7539 -7.76367 18.0273 -7.7832 18.3398 -7.8418 L 19.4043 -8.03711 L 20.0684 -7.36328 L 20.0293 -6.80664 C 19.9902 -6.30859 20.1172 -5.92773 20.6055 -5.44922 L 21.3672 -4.70703 C 21.8457 -4.22852 22.4609 -4.19922 22.9297 -4.66797 L 25.8398 -7.58789 C 26.3086 -8.05664 26.2891 -8.65234 25.8105 -9.13086 L 25.0391 -9.89258 C 24.5605 -10.3711 24.1895 -10.5273 23.7109 -10.4883 L 23.1348 -10.4395 L 22.4902 -11.0742 L 22.7344 -12.1973 C 22.8613 -12.7637 22.7051 -13.2031 22.1191 -13.7891 L 19.9219 -15.9766 C 16.582 -19.2969 12.1484 -19.2188 9.25781 -16.3281 C 8.83789 -15.918 8.80859 -15.3418 9.04297 -14.9512 C 9.27734 -14.5898 9.73633 -14.3555 10.3809 -14.5215 C 11.8457 -14.8633 13.3691 -14.9219 14.7949 -13.9844 L 14.209 -12.5293 C 14.0137 -12.0508 13.9844 -11.6504 14.1113 -11.2891 L 3.04688 -0.898438 C 2.06055 0.0195312 1.98242 0.996094 2.8418 1.86523 Z M 10.752 -15.957 C 13.1836 -17.7344 16.4746 -17.4316 18.7012 -15.2051 L 21.1328 -12.793 C 21.3672 -12.5586 21.4062 -12.373 21.3379 -12.0312 L 21.0156 -10.5469 L 22.5195 -9.0625 L 23.5059 -9.12109 C 23.7598 -9.13086 23.8379 -9.11133 24.0332 -8.91602 L 24.6094 -8.33984 L 22.168 -5.89844 L 21.5918 -6.47461 C 21.3965 -6.66992 21.3672 -6.74805 21.377 -7.01172 L 21.4453 -7.98828 L 19.9512 -9.47266 L 18.4277 -9.21875 C 18.1055 -9.15039 17.959 -9.17969 17.7148 -9.41406 L 15.7129 -11.416 C 15.459 -11.6504 15.4297 -11.8164 15.5859 -12.1875 L 16.4648 -14.2773 C 14.9023 -15.7324 12.8711 -16.3574 10.8398 -15.7617 C 10.6836 -15.7227 10.625 -15.8496 10.752 -15.957 Z M 5.27344 2.30469 L 4.10156 1.14258 C 3.63281 0.683594 3.74023 0.341797 4.14062 -0.0195312 L 14.9512 -10.1953 L 16.416 -8.71094 L 6.42578 2.27539 C 6.07422 2.67578 5.74219 2.77344 5.27344 2.30469 Z"/>
  </g>
  <text style="stroke:none;fill:black;font-family:-apple-system,&quot;SF Pro Display&quot;,&quot;SF Pro Text&quot;,Helvetica,sans-serif;font-weight:bold;" transform="matrix(1 0 0 1 1289 1953)">Exporting</text>
  <text style="stroke:none;fill:black;font-family:-apple-system,&quot;SF Pro Display&quot;,&quot;SF Pro Text&quot;,Helvetica,sans-serif;" transform="matrix(1 0 0 1 1289 1971)">Symbols should be outlined when exporting to ensure the</text>
  <text style="stroke:none;fill:black;font-family:-apple-system,&quot;SF Pro Display&quot;,&quot;SF Pro Text&quot;,Helvetica,sans-serif;" transform="matrix(1 0 0 1 1289 1989)">design is preserved when submitting to Xcode.</text>
  <text id="template-version" style="stroke:none;fill:black;font-family:-apple-system,&quot;SF Pro Display&quot;,&quot;SF Pro Text&quot;,Helvetica,sans-serif;text-anchor:end;" transform="matrix(1 0 0 1 3036 1933)">Template v.2.0</text>
  <text style="stroke:none;fill:black;font-family:-apple-system,&quot;SF Pro Display&quot;,&quot;SF Pro Text&quot;,Helvetica,sans-serif;text-anchor:end;" transform="matrix(1 0 0 1 3036 1951)">Requires Xcode 12 or greater</text>
  <text style="stroke:none;fill:black;font-family:-apple-system,&quot;SF Pro Display&quot;,&quot;SF Pro Text&quot;,Helvetica,sans-serif;text-anchor:end;" transform="matrix(1 0 0 1 3036 1969)">Generated from wifi</text>
  <text style="stroke:none;fill:black;font-family:-apple-system,&quot;SF Pro Display&quot;,&quot;SF Pro Text&quot;,Helvetica,sans-serif;text-anchor:end;" transform="matrix(1 0 0 1 3036 1987)">Typeset at 100 points</text>
  <text style="stroke:none;fill:black;font-family:-apple-system,&quot;SF Pro Display&quot;,&quot;SF Pro Text&quot;,Helvetica,sans-serif;" transform="matrix(1 0 0 1 263 726)">Small</text>
  <text style="stroke:none;fill:black;font-family:-apple-system,&quot;SF Pro Display&quot;,&quot;SF Pro Text&quot;,Helvetica,sans-serif;" transform="matrix(1 0 0 1 263 1156)">Medium</text>
  <text style="stroke:none;fill:black;font-family:-apple-system,&quot;SF Pro Display&quot;,&quot;SF Pro Text&quot;,Helvetica,sans-serif;" transform="matrix(1 0 0 1 263 1586)">Large</text>
 </g>
 <g id="Guides">
  <g id="H-reference" style="fill:#27AAE1;stroke:none;" transform="matrix(1 0 0 1 339 696)">
   <path d="M 0.976562 0 L 3.66211 0 L 12.9883 -24.4629 L 45.7031 -24.4629 L 55.0781 0 L 57.7148 0 L 30.6152 -70.459 L 28.125 -70.459 Z M 29.2969 -67.1387 L 29.3945 -67.1387 L 44.873 -26.709 L 13.8672 -26.709 Z"/>
  </g>
  <line id="Baseline-S" style="fill:none;stroke:#27AAE1;opacity:1;stroke-width:0.5;" x1="263" x2="3036" y1="696" y2="696"/>
  <line id="Capline-S" style="fill:none;stroke:#27AAE1;opacity:1;stroke-width:0.5;" x1="263" x2="3036" y1="625.541" y2="625.541"/>
  <g id="H-reference" style="fill:#27AAE1;stroke:none;" transform="matrix(1 0 0 1 339 1126)">
   <path d="M 0.976562 0 L 3.66211 0 L 12.9883 -24.4629 L 45.7031 -24.4629 L 55.0781 0 L 57.7148 0 L 30.6152 -70.459 L 28.125 -70.459 Z M 29.2969 -67.1387 L 29.3945 -67.1387 L 44.873 -26.709 L 13.8672 -26.709 Z"/>
  </g>
  <line id="Baseline-M" style="fill:none;stroke:#27AAE1;opacity:1;stroke-width:0.5;" x1="263" x2="3036" y1="1126" y2="1126"/>
  <line id="Capline-M" style="fill:none;stroke:#27AAE1;opacity:1;stroke-width:0.5;" x1="263" x2="3036" y1="1055.54" y2="1055.54"/>
  <g id="H-reference" style="fill:#27AAE1;stroke:none;" transform="matrix(1 0 0 1 339 1556)">
   <path d="M 0.976562 0 L 3.66211 0 L 12.9883 -24.4629 L 45.7031 -24.4629 L 55.0781 0 L 57.7148 0 L 30.6152 -70.459 L 28.125 -70.459 Z M 29.2969 -67.1387 L 29.3945 -67.1387 L 44.873 -26.709 L 13.8672 -26.709 Z"/>
  </g>
  <line id="Baseline-L" style="fill:none;stroke:#27AAE1;opacity:1;stroke-width:0.5;" x1="263" x2="3036" y1="1556" y2="1556"/>
  <line id="Capline-L" style="fill:none;stroke:#27AAE1;opacity:1;stroke-width:0.5;" x1="263" x2="3036" y1="1485.54" y2="1485.54"/>
  <line id="left-margin" style="fill:none;stroke:#00AEEF;stroke-width:0.5;opacity:1.0;" x1="1385.86" x2="1385.86" y1="1030.79" y2="1150.12"/>
  <line id="right-margin" style="fill:none;stroke:#00AEEF;stroke-width:0.5;opacity:1.0;" x1="1513.83" x2="1513.83" y1="1030.79" y2="1150.12"/>
 </g>
 <g id="Symbols">
  <g id="Black-L" transform="matrix(1 0 0 1 2848.98 1556)">
   <path d="M 22.7539 -41.6504 C 24.5117 -39.8438 27.2949 -39.9414 28.9551 -41.7969 C 43.7988 -57.373 62.8906 -65.5762 84.4238 -65.5762 C 106.104 -65.5762 125.244 -57.3242 140.039 -41.6504 C 141.65 -39.9902 144.385 -40.0391 146.045 -41.7969 L 154.736 -50.5859 C 156.299 -52.1973 156.396 -54.3945 155.029 -55.957 C 139.941 -74.707 112.256 -87.3047 84.4238 -87.3047 C 56.5918 -87.3047 28.9062 -74.707 13.7695 -55.957 C 12.4512 -54.3945 12.5488 -52.1973 14.0625 -50.5859 Z M 47.9492 -16.4551 C 49.7559 -14.5508 52.4902 -14.7461 54.2969 -16.748 C 61.9141 -25.0488 73.2422 -30.2246 84.4238 -30.2246 C 95.752 -30.2246 107.178 -24.8535 114.844 -16.4551 C 116.553 -14.5996 119.141 -14.5996 120.898 -16.5039 L 130.615 -26.123 C 132.227 -27.6367 132.373 -29.834 130.908 -31.4941 C 120.898 -43.8477 103.125 -51.9043 84.4238 -51.9043 C 65.7227 -51.9043 47.9004 -43.8477 37.8906 -31.4941 C 36.4746 -29.834 36.6211 -27.6855 38.1836 -26.123 Z M 84.4238 16.9434 C 86.2793 16.9434 87.9395 16.0156 90.5273 13.5254 L 105.322 -0.78125 C 106.982 -2.24609 107.129 -4.6875 105.762 -6.34766 C 100.781 -12.4512 92.8223 -16.5527 84.4238 -16.5527 C 75.8789 -16.5527 67.5781 -12.3047 62.5977 -5.56641 C 61.6211 -4.10156 62.0605 -2.09961 63.5254 -0.78125 L 78.3691 13.5254 C 80.957 16.0156 82.5684 16.9434 84.4238 16.9434 Z"/>
  </g>
  <g id="Heavy-L" transform="matrix(1 0 0 1 2552.8 1556)">
   <path d="M 22.5098 -42.0898 C 24.1211 -40.4297 26.6113 -40.5273 28.1738 -42.2363 C 43.0176 -57.8125 62.2559 -66.0645 83.8867 -66.0645 C 105.664 -66.0645 125 -57.8125 139.746 -42.0898 C 141.26 -40.5762 143.75 -40.625 145.264 -42.2363 L 153.809 -50.8301 C 155.225 -52.2949 155.322 -54.2969 154.053 -55.7129 C 139.16 -74.1699 111.719 -86.8164 83.8867 -86.8164 C 56.0547 -86.8164 28.6133 -74.1699 13.7207 -55.7129 C 12.5 -54.2969 12.5977 -52.2949 13.9648 -50.8301 Z M 47.7051 -16.8945 C 49.3652 -15.1367 51.8066 -15.2832 53.4668 -17.1875 C 61.0352 -25.3906 72.5098 -30.7129 83.8867 -30.7129 C 95.4102 -30.7129 106.982 -25.2441 114.6 -16.8945 C 116.162 -15.1855 118.457 -15.1855 120.068 -16.8945 L 129.688 -26.416 C 131.104 -27.7832 131.25 -29.7852 129.932 -31.25 C 120.166 -43.3594 102.539 -51.416 83.8867 -51.416 C 65.1855 -51.416 47.6074 -43.3105 37.8418 -31.25 C 36.5234 -29.7852 36.6699 -27.832 38.0859 -26.416 Z M 83.8867 16.4062 C 85.5957 16.4062 87.1094 15.5762 89.6484 13.1348 L 104.395 -1.12305 C 105.859 -2.39258 106.055 -4.54102 104.785 -6.05469 C 100.098 -11.9141 92.2852 -16.0156 83.8867 -16.0156 C 75.3906 -16.0156 67.2363 -11.7676 62.5488 -5.41992 C 61.6699 -4.05273 62.0605 -2.29492 63.3789 -1.12305 L 78.1738 13.1348 C 80.6641 15.5762 82.1777 16.4062 83.8867 16.4062 Z"/>
  </g>
  <g id="Bold-L" transform="matrix(1 0 0 1 2256.68 1556)">
   <path d="M 22.2656 -42.5781 C 23.6328 -41.1133 25.8789 -41.1621 27.2461 -42.6758 C 42.0898 -58.3496 61.5234 -66.6504 83.3008 -66.6504 C 105.225 -66.6504 124.707 -58.3496 139.502 -42.5781 C 140.82 -41.2598 142.969 -41.2598 144.385 -42.7246 L 152.734 -51.1719 C 154.004 -52.4414 154.053 -54.1992 152.979 -55.5176 C 138.33 -73.584 111.084 -86.2305 83.3008 -86.2305 C 55.5176 -86.2305 28.2715 -73.584 13.623 -55.5176 C 12.5488 -54.1992 12.5977 -52.4414 13.8672 -51.1719 Z M 47.4121 -17.334 C 48.9258 -15.8203 51.0254 -15.918 52.5391 -17.627 C 60.0098 -25.8301 71.6797 -31.2988 83.3008 -31.25 C 95.0195 -31.2988 106.738 -25.6348 114.258 -17.3828 C 115.723 -15.8691 117.725 -15.8691 119.189 -17.3828 L 128.613 -26.709 C 129.883 -27.9297 129.98 -29.6875 128.857 -31.0059 C 119.336 -42.7734 101.904 -50.8789 83.3008 -50.8789 C 64.6484 -50.8789 47.2656 -42.7734 37.7441 -31.0059 C 36.5723 -29.6875 36.7188 -27.9785 37.9883 -26.709 Z M 83.3008 15.8691 C 84.8633 15.8691 86.2305 15.0879 88.623 12.7441 L 103.369 -1.41602 C 104.639 -2.58789 104.785 -4.39453 103.711 -5.76172 C 99.3652 -11.2793 91.6504 -15.4785 83.3008 -15.4785 C 74.8047 -15.4785 66.8945 -11.1328 62.5 -5.22461 C 61.7188 -4.05273 62.0605 -2.53906 63.2324 -1.41602 L 77.9785 12.7441 C 80.4199 15.0879 81.7871 15.8691 83.3008 15.8691 Z"/>
  </g>
  <g id="Semibold-L" transform="matrix(1 0 0 1 1960.36 1556)">
   <path d="M 22.0703 -42.9199 C 23.3398 -41.6016 25.3418 -41.6504 26.6113 -43.0176 C 41.5039 -58.6914 60.9863 -66.9922 82.9102 -66.9922 C 104.883 -66.9922 124.512 -58.6914 139.307 -42.9688 C 140.527 -41.6992 142.48 -41.6992 143.75 -43.0664 L 152.002 -51.3672 C 153.174 -52.5391 153.223 -54.1504 152.246 -55.3223 C 137.744 -73.1934 110.693 -85.8887 82.9102 -85.8887 C 55.127 -85.8887 28.0273 -73.1934 13.5742 -55.3223 C 12.5977 -54.1504 12.6465 -52.5391 13.7695 -51.3672 Z M 47.2168 -17.6758 C 48.6328 -16.2598 50.4883 -16.4062 51.8555 -17.9199 C 59.3262 -26.0742 71.0938 -31.6895 82.8613 -31.6406 C 94.7754 -31.6895 106.543 -25.9277 114.062 -17.7246 C 115.381 -16.3086 117.188 -16.3086 118.555 -17.7246 L 127.881 -26.9531 C 129.004 -28.0273 129.15 -29.6387 128.076 -30.8594 C 118.75 -42.3828 101.465 -50.4883 82.8613 -50.4883 C 64.2578 -50.4883 47.0215 -42.3828 37.6465 -30.8594 C 36.6211 -29.6387 36.7188 -28.0762 37.8906 -26.9531 Z M 82.9102 15.4785 C 84.3262 15.4785 85.5957 14.7461 87.9395 12.4512 L 102.637 -1.66016 C 103.809 -2.68555 103.955 -4.29688 102.979 -5.56641 C 98.8281 -10.8887 91.2109 -15.0879 82.9102 -15.0879 C 74.4141 -15.0879 66.6504 -10.7422 62.5 -5.12695 C 61.7676 -4.00391 62.0605 -2.68555 63.1348 -1.66016 L 77.832 12.4512 C 80.1758 14.7949 81.4453 15.4785 82.9102 15.4785 Z"/>
  </g>
  <g id="Medium-L" transform="matrix(1 0 0 1 1663.96 1556)">
   <path d="M 21.9238 -43.1641 C 23.0957 -41.9434 24.9512 -41.9922 26.1719 -43.2617 C 41.0156 -58.9355 60.6445 -67.2852 82.5684 -67.2852 C 104.688 -67.2852 124.365 -58.9844 139.111 -43.2129 C 140.283 -42.041 142.09 -42.041 143.262 -43.3105 L 151.465 -51.5137 C 152.539 -52.6367 152.588 -54.1016 151.66 -55.2246 C 137.305 -72.9004 110.352 -85.5957 82.5684 -85.5957 C 54.834 -85.5957 27.8809 -72.9004 13.5254 -55.2246 C 12.5977 -54.1016 12.6465 -52.6367 13.7207 -51.5137 Z M 47.0703 -17.9199 C 48.3887 -16.6016 50.0977 -16.6992 51.416 -18.1641 C 58.7891 -26.3184 70.6543 -31.9824 82.5684 -31.9336 C 94.5801 -31.9824 106.445 -26.1719 113.916 -17.9688 C 115.186 -16.6504 116.797 -16.6504 118.066 -17.9688 L 127.295 -27.0996 C 128.369 -28.125 128.467 -29.5898 127.539 -30.7129 C 118.311 -42.0898 101.172 -50.1953 82.5684 -50.1953 C 63.9648 -50.1953 46.875 -42.0898 37.5977 -30.7129 C 36.6699 -29.5898 36.7676 -28.1738 37.8418 -27.0996 Z M 82.5684 15.1855 C 83.9355 15.1855 85.1074 14.502 87.4512 12.2559 L 102.1 -1.85547 C 103.174 -2.7832 103.32 -4.24805 102.441 -5.41992 C 98.4375 -10.5469 90.8691 -14.7949 82.5684 -14.7949 C 74.1211 -14.7949 66.4551 -10.4004 62.5 -5.0293 C 61.8164 -4.00391 62.0605 -2.7832 63.0859 -1.85547 L 77.7344 12.2559 C 80.0293 14.5508 81.25 15.1855 82.5684 15.1855 Z"/>
  </g>
  <g id="Regular-L" transform="matrix(1 0 0 1 1367.64 1556)">
   <path d="M 21.7285 -43.5059 C 22.8027 -42.3828 24.4629 -42.4316 25.5371 -43.6035 C 40.3809 -59.3262 60.1074 -67.6758 82.1777 -67.6758 C 104.346 -67.6758 124.219 -59.3262 138.965 -43.5547 C 139.99 -42.4805 141.553 -42.4805 142.676 -43.6035 L 150.732 -51.709 C 151.709 -52.7344 151.709 -54.0527 150.879 -55.0293 C 136.719 -72.4609 109.912 -85.2051 82.1777 -85.2051 C 54.4434 -85.2051 27.6367 -72.5098 13.4766 -55.0293 C 12.6465 -54.0527 12.6953 -52.7344 13.6719 -51.709 Z M 46.875 -18.2129 C 48.0957 -17.041 49.5605 -17.1387 50.7812 -18.457 C 58.1055 -26.5625 70.0684 -32.373 82.1777 -32.2754 C 94.3359 -32.373 106.25 -26.416 113.721 -18.3105 C 114.844 -17.0898 116.309 -17.0898 117.48 -18.2617 L 126.562 -27.2949 C 127.539 -28.2227 127.637 -29.541 126.758 -30.5176 C 117.725 -41.6992 100.732 -49.8047 82.1777 -49.8047 C 63.623 -49.8047 46.6309 -41.6992 37.5488 -30.5176 C 36.7188 -29.541 36.7676 -28.2715 37.7441 -27.2949 Z M 82.1777 14.8438 C 83.3984 14.8438 84.5215 14.1602 86.7676 12.0117 L 101.416 -2.09961 C 102.295 -2.92969 102.49 -4.15039 101.709 -5.17578 C 97.9004 -10.1562 90.4785 -14.4531 82.1777 -14.4531 C 73.7305 -14.4531 66.2109 -10.0098 62.4512 -4.88281 C 61.8652 -4.00391 62.0605 -2.92969 62.9395 -2.09961 L 77.5879 12.0117 C 79.834 14.209 80.957 14.8438 82.1777 14.8438 Z"/>
  </g>
  <g id="Light-L" transform="matrix(1 0 0 1 1071.52 1556)">
   <path d="M 21.2891 -44.0918 C 22.3145 -43.0176 23.7793 -43.0664 24.8047 -44.1406 C 39.5996 -59.7168 59.4238 -68.1641 81.5918 -68.1641 C 103.857 -68.1641 123.877 -59.8633 138.477 -44.1406 C 139.453 -43.1152 140.918 -43.1152 141.943 -44.1406 L 149.609 -51.8555 C 150.537 -52.7832 150.537 -54.0527 149.756 -54.9805 C 135.645 -72.2656 108.887 -84.7168 81.5918 -84.7168 C 54.3457 -84.7168 27.4902 -72.3145 13.4277 -54.9805 C 12.6465 -54.0527 12.6953 -52.7832 13.5742 -51.8555 Z M 46.4355 -18.75 C 47.5586 -17.7246 48.877 -17.7734 50 -18.9941 C 57.4707 -27.1484 69.6289 -32.8613 81.5918 -32.7637 C 93.6035 -32.8613 105.713 -27.0508 113.232 -18.8965 C 114.355 -17.7246 115.625 -17.7246 116.748 -18.7988 L 125.488 -27.4414 C 126.367 -28.3203 126.416 -29.4922 125.684 -30.4199 C 116.699 -41.5527 99.707 -49.3652 81.5918 -49.3652 C 63.4766 -49.3652 46.4844 -41.5039 37.5 -30.4199 C 36.7188 -29.4922 36.8164 -28.3203 37.6953 -27.4414 Z M 81.5918 14.3555 C 82.666 14.3555 83.6914 13.7207 85.8398 11.6211 L 100.342 -2.29492 C 101.172 -3.02734 101.318 -4.10156 100.586 -5.12695 C 96.9727 -9.81445 89.5508 -13.9648 81.5918 -13.9648 C 73.5352 -13.9648 66.0156 -9.7168 62.4512 -4.93164 C 61.8652 -4.00391 62.0117 -3.02734 62.8418 -2.29492 L 77.3438 11.6211 C 79.4922 13.7695 80.4688 14.3555 81.5918 14.3555 Z"/>
  </g>
  <g id="Thin-L" transform="matrix(1 0 0 1 775.587 1556)">
   <path d="M 20.7031 -44.8242 C 21.6309 -43.8965 22.9004 -43.8965 23.7793 -44.873 C 38.5254 -60.3027 58.4961 -68.7988 80.8105 -68.7988 C 103.174 -68.7988 123.438 -60.5957 137.891 -44.873 C 138.77 -43.8965 140.039 -43.8965 140.967 -44.8242 L 148.145 -52.0508 C 148.975 -52.8809 148.975 -54.0039 148.242 -54.9316 C 134.229 -72.0215 107.471 -84.082 80.8105 -84.082 C 54.1992 -84.082 27.3438 -72.0703 13.4277 -54.9316 C 12.6465 -54.0039 12.7441 -52.8809 13.4766 -52.0508 Z M 45.8496 -19.4824 C 46.875 -18.5547 47.9492 -18.5547 49.0234 -19.7266 C 56.6406 -27.9297 68.9941 -33.4961 80.8105 -33.3984 C 92.6758 -33.4961 105.029 -27.8809 112.646 -19.7266 C 113.672 -18.5547 114.795 -18.5547 115.771 -19.4824 L 124.023 -27.6367 C 124.805 -28.418 124.854 -29.4922 124.219 -30.3223 C 115.381 -41.3086 98.3398 -48.7305 80.8105 -48.7305 C 63.2812 -48.7305 46.3379 -41.2109 37.4512 -30.3223 C 36.7676 -29.4922 36.8652 -28.418 37.5977 -27.6367 Z M 80.8105 13.7207 C 81.7383 13.7207 82.5684 13.1348 84.6191 11.1816 L 98.9258 -2.53906 C 99.6582 -3.22266 99.8047 -4.00391 99.0723 -4.98047 C 95.8008 -9.42383 88.3301 -13.3301 80.8105 -13.3301 C 73.291 -13.3301 65.7715 -9.375 62.5 -4.93164 C 61.8652 -4.00391 61.9629 -3.22266 62.6953 -2.53906 L 77.002 11.1816 C 79.0527 13.2324 79.8828 13.7207 80.8105 13.7207 Z"/>
  </g>
  <g id="Ultralight-L" transform="matrix(1 0 0 1 479.267 1556)">
   <path d="M 20.4102 -45.166 C 21.2891 -44.3359 22.4121 -44.3359 23.291 -45.2637 C 37.9883 -60.5957 58.0566 -69.1406 80.4199 -69.1406 C 102.832 -69.1406 123.242 -60.9375 137.598 -45.2637 C 138.428 -44.3359 139.6 -44.3359 140.479 -45.166 L 147.412 -52.0996 C 148.193 -52.8809 148.193 -54.0039 147.461 -54.8828 C 133.496 -71.875 106.738 -83.7891 80.4199 -83.7891 C 54.1504 -83.7891 27.2461 -71.9727 13.3789 -54.8828 C 12.6953 -54.0039 12.7441 -52.8809 13.4766 -52.0996 Z M 45.6055 -19.8242 C 46.5332 -18.9941 47.5098 -18.9941 48.5352 -20.0684 C 56.2012 -28.3203 68.6523 -33.8379 80.4199 -33.7402 C 92.2363 -33.8379 104.639 -28.3203 112.305 -20.1172 C 113.33 -18.9941 114.355 -18.9941 115.283 -19.8242 L 123.291 -27.7344 C 123.975 -28.4668 124.072 -29.4922 123.438 -30.2734 C 114.697 -41.1621 97.6562 -48.3887 80.4199 -48.3887 C 63.2324 -48.3887 46.2402 -41.0645 37.4512 -30.2734 C 36.8164 -29.4922 36.8652 -28.4668 37.5977 -27.7344 Z M 80.4199 13.3789 C 81.25 13.3789 82.0312 12.8418 83.9844 10.9375 L 98.1934 -2.68555 C 98.877 -3.32031 99.0234 -3.95508 98.3398 -4.93164 C 95.166 -9.17969 87.6953 -12.9883 80.4199 -12.9883 C 73.1445 -12.9883 65.6738 -9.22852 62.5 -4.98047 C 61.8652 -4.00391 61.9141 -3.32031 62.6465 -2.68555 L 76.8066 10.9375 C 78.8086 12.9395 79.5898 13.3789 80.4199 13.3789 Z"/>
  </g>
  <g id="Black-M" transform="matrix(1 0 0 1 2867.56 1126)">
   <path d="M 17.7734 -39.8926 C 19.2871 -38.3301 21.7285 -38.3789 23.1934 -40.0391 C 34.6191 -52.002 49.2676 -58.3496 65.8203 -58.3496 C 82.5195 -58.3496 97.2168 -52.002 108.643 -39.8926 C 110.059 -38.4766 112.451 -38.5254 113.916 -40.0391 L 120.654 -46.8262 C 121.973 -48.1934 122.119 -50.1465 120.898 -51.5625 C 108.936 -66.4062 87.207 -75.9766 65.8203 -75.9766 C 44.4824 -75.9766 22.7539 -66.4062 10.791 -51.5625 C 9.57031 -50.1465 9.7168 -48.1934 11.0352 -46.8262 Z M 37.2559 -20.4102 C 38.8672 -18.75 41.2598 -18.8965 42.8223 -20.6543 C 48.877 -27.1484 57.5195 -30.9082 65.8203 -30.9082 C 74.3164 -30.9082 83.0566 -27.002 89.1113 -20.4102 C 90.625 -18.75 92.9199 -18.75 94.4336 -20.4102 L 101.953 -27.8809 C 103.32 -29.1992 103.467 -31.1523 102.197 -32.6172 C 94.1895 -42.4805 80.1758 -48.584 65.8203 -48.584 C 51.5137 -48.584 37.5 -42.4805 29.4922 -32.6172 C 28.2227 -31.1523 28.3691 -29.1992 29.7363 -27.8809 Z M 65.8691 5.61523 C 67.4316 5.61523 68.7988 4.83398 70.8496 2.83203 L 82.3242 -8.25195 C 83.7891 -9.52148 83.8867 -11.7188 82.6172 -13.1836 C 78.5645 -18.1641 72.2168 -21.1426 65.8691 -21.1426 C 59.375 -21.1426 52.6855 -18.0664 48.5352 -12.4512 C 47.6562 -11.1328 48.0957 -9.375 49.3652 -8.25195 L 60.8398 2.83203 C 62.8906 4.83398 64.2578 5.61523 65.8691 5.61523 Z"/>
  </g>
  <g id="Heavy-M" transform="matrix(1 0 0 1 2571.28 1126)">
   <path d="M 17.5781 -40.2344 C 18.9453 -38.8184 21.1426 -38.8672 22.4609 -40.3809 C 33.9355 -52.3926 48.7305 -58.7402 65.4297 -58.7402 C 82.2266 -58.7402 97.0215 -52.3926 108.447 -40.2344 C 109.766 -38.9648 111.914 -39.0137 113.232 -40.3809 L 119.873 -47.0703 C 121.094 -48.3398 121.191 -50.0977 120.117 -51.3184 C 108.35 -65.8691 86.8652 -75.5859 65.4297 -75.5859 C 43.9453 -75.5859 22.4609 -65.918 10.6934 -51.3184 C 9.61914 -50.0977 9.7168 -48.3398 10.9375 -47.0703 Z M 37.1094 -20.7031 C 38.5254 -19.2383 40.6738 -19.3848 42.0898 -20.9473 C 48.0469 -27.3926 56.8359 -31.3477 65.4297 -31.3477 C 74.1211 -31.3477 82.959 -27.2461 88.9648 -20.752 C 90.332 -19.2383 92.334 -19.2383 93.7012 -20.752 L 101.172 -28.125 C 102.441 -29.3457 102.539 -31.0547 101.416 -32.373 C 93.6523 -41.9922 79.7852 -48.1445 65.4297 -48.1445 C 51.0254 -48.1445 37.207 -41.9922 29.3945 -32.373 C 28.2715 -31.0547 28.3691 -29.3457 29.6387 -28.125 Z M 65.4297 5.17578 C 66.8457 5.17578 68.1152 4.49219 70.1172 2.53906 L 81.5918 -8.54492 C 82.8613 -9.66797 83.0078 -11.5723 81.8848 -12.8906 C 78.0273 -17.627 71.8262 -20.752 65.4297 -20.752 C 58.8867 -20.752 52.3926 -17.5293 48.5352 -12.3047 C 47.7539 -11.1328 48.0957 -9.57031 49.2676 -8.54492 L 60.6934 2.53906 C 62.6953 4.49219 63.9648 5.17578 65.4297 5.17578 Z"/>
  </g>
  <g id="Bold-M" transform="matrix(1 0 0 1 2275.06 1126)">
   <path d="M 17.4316 -40.625 C 18.6035 -39.3555 20.5078 -39.4531 21.6797 -40.7227 C 33.2031 -52.832 48.0957 -59.2285 64.9414 -59.2285 C 81.8359 -59.2285 96.8262 -52.7832 108.252 -40.625 C 109.424 -39.502 111.279 -39.502 112.451 -40.7227 L 119.043 -47.3633 C 120.117 -48.4863 120.166 -50 119.238 -51.0742 C 107.715 -65.332 86.4746 -75.0977 64.9414 -75.0977 C 43.3594 -75.0977 22.1191 -65.332 10.5957 -51.0742 C 9.66797 -50 9.76562 -48.4863 10.791 -47.3633 Z M 36.9141 -21.0938 C 38.2324 -19.7754 40.0391 -19.873 41.3086 -21.2891 C 47.1191 -27.6855 56.0547 -31.8359 64.9414 -31.7871 C 73.9258 -31.8359 82.8613 -27.5391 88.7695 -21.0938 C 89.9902 -19.7754 91.6992 -19.7754 92.9199 -21.0938 L 100.342 -28.4668 C 101.416 -29.4922 101.514 -31.0059 100.537 -32.1289 C 93.0176 -41.4062 79.3945 -47.7051 64.9414 -47.7051 C 50.4395 -47.7051 36.8652 -41.4062 29.2969 -32.1289 C 28.3203 -31.0059 28.418 -29.4922 29.541 -28.4668 Z M 64.9414 4.73633 C 66.2598 4.73633 67.3828 4.05273 69.3359 2.19727 L 80.7617 -8.83789 C 81.8848 -9.81445 81.9824 -11.4258 81.0547 -12.5977 C 77.4902 -17.041 71.4355 -20.2637 64.9414 -20.2637 C 58.3008 -20.2637 52.0508 -16.9434 48.4863 -12.1094 C 47.8027 -11.084 48.0957 -9.76562 49.1211 -8.83789 L 60.5469 2.19727 C 62.5 4.10156 63.623 4.73633 64.9414 4.73633 Z"/>
  </g>
  <g id="Semibold-M" transform="matrix(1 0 0 1 1978.69 1126)">
   <path d="M 17.2852 -40.8691 C 18.3594 -39.7461 20.0684 -39.7949 21.1426 -40.9668 C 32.666 -53.125 47.7051 -59.5703 64.5996 -59.5703 C 81.5918 -59.5703 96.6797 -53.0762 108.154 -40.8691 C 109.18 -39.8438 110.84 -39.8926 111.914 -40.9668 L 118.457 -47.6074 C 119.434 -48.584 119.434 -49.9512 118.604 -50.9277 C 107.275 -64.8926 86.2305 -74.8047 64.5996 -74.8047 C 42.9199 -74.8047 21.875 -64.9414 10.5469 -50.9277 C 9.7168 -49.9512 9.76562 -48.584 10.7422 -47.6074 Z M 36.8164 -21.3379 C 37.9883 -20.1172 39.5996 -20.2637 40.7227 -21.5332 C 46.5332 -27.8809 55.5176 -32.1777 64.5996 -32.1289 C 73.7793 -32.1777 82.8125 -27.7344 88.623 -21.3379 C 89.7461 -20.166 91.2598 -20.166 92.3828 -21.3379 L 99.7559 -28.6621 C 100.732 -29.5898 100.83 -30.9082 99.9512 -31.9336 C 92.5781 -41.0156 79.1504 -47.3633 64.5996 -47.3633 C 50.0488 -47.3633 36.6211 -41.0156 29.248 -31.9336 C 28.3691 -30.9082 28.4668 -29.6387 29.4434 -28.6621 Z M 64.5996 4.39453 C 65.8203 4.39453 66.8457 3.80859 68.75 1.95312 L 80.1758 -9.0332 C 81.1523 -9.91211 81.2988 -11.3281 80.4688 -12.3535 C 77.0996 -16.6504 71.1426 -19.9707 64.5996 -19.9707 C 57.959 -19.9707 51.8066 -16.5039 48.4375 -11.9629 C 47.8516 -11.0352 48.0957 -9.86328 49.0234 -9.0332 L 60.4492 1.95312 C 62.3535 3.80859 63.4277 4.39453 64.5996 4.39453 Z"/>
  </g>
  <g id="Medium-M" transform="matrix(1 0 0 1 1682.22 1126)">
   <path d="M 17.1875 -41.0645 C 18.1641 -40.0391 19.7266 -40.0879 20.7031 -41.1621 C 32.2754 -53.3691 47.3633 -59.7656 64.3066 -59.7656 C 81.3965 -59.7656 96.582 -53.3203 108.057 -41.1133 C 108.984 -40.1367 110.498 -40.1367 111.475 -41.1621 L 117.969 -47.7539 C 118.896 -48.6816 118.945 -49.9023 118.164 -50.7812 C 106.934 -64.5996 86.0352 -74.5605 64.3066 -74.5605 C 42.627 -74.5605 21.6797 -64.5996 10.498 -50.7812 C 9.7168 -49.9023 9.76562 -48.6816 10.6934 -47.7539 Z M 36.7188 -21.5332 C 37.793 -20.4102 39.2578 -20.5078 40.332 -21.7285 C 46.0449 -28.0273 55.127 -32.4219 64.3555 -32.373 C 73.6816 -32.4219 82.7637 -27.8809 88.5254 -21.5332 C 89.5508 -20.459 90.9668 -20.459 91.9922 -21.5332 L 99.3164 -28.8086 C 100.244 -29.6875 100.293 -30.8594 99.5117 -31.8359 C 92.2363 -40.7227 78.9062 -47.1191 64.3555 -47.1191 C 49.7559 -47.1191 36.4746 -40.7227 29.1992 -31.8359 C 28.418 -30.8594 28.4668 -29.6875 29.3945 -28.8086 Z M 64.3555 4.15039 C 65.4785 4.15039 66.4551 3.56445 68.3105 1.80664 L 79.7363 -9.22852 C 80.6152 -10.0098 80.7617 -11.2793 80.0293 -12.207 C 76.7578 -16.3574 70.8984 -19.7266 64.3555 -19.7266 C 57.666 -19.7266 51.6602 -16.2109 48.4375 -11.8652 C 47.9004 -11.0352 48.0957 -9.96094 48.9746 -9.22852 L 60.4004 1.80664 C 62.207 3.61328 63.2324 4.15039 64.3555 4.15039 Z"/>
  </g>
  <g id="Regular-M" transform="matrix(1 0 0 1 1385.86 1126)">
   <path d="M 17.041 -41.3574 C 17.9199 -40.4297 19.2871 -40.4785 20.166 -41.4062 C 31.7383 -53.6621 46.9727 -60.1074 64.0137 -60.1074 C 81.1523 -60.1074 96.3867 -53.6133 107.91 -41.3574 C 108.74 -40.5273 110.059 -40.5273 110.938 -41.4551 L 117.383 -47.9492 C 118.213 -48.7793 118.213 -49.8535 117.578 -50.6348 C 106.543 -64.209 85.791 -74.2188 64.0137 -74.2188 C 42.2363 -74.2188 21.4355 -64.209 10.4492 -50.6348 C 9.76562 -49.8535 9.76562 -48.7793 10.5957 -47.9492 Z M 36.5723 -21.7773 C 37.5977 -20.752 38.8184 -20.8496 39.7949 -21.9238 C 45.4102 -28.2227 54.6387 -32.7637 64.0137 -32.666 C 73.5352 -32.7637 82.666 -28.0762 88.4277 -21.7773 C 89.3066 -20.8008 90.5273 -20.8008 91.4551 -21.8262 L 98.7305 -29.0039 C 99.5605 -29.7852 99.6094 -30.8105 98.9258 -31.6406 C 91.8457 -40.3809 78.6621 -46.8262 64.0137 -46.8262 C 49.4141 -46.8262 36.2305 -40.332 29.1504 -31.6406 C 28.4668 -30.8105 28.5156 -29.834 29.2969 -29.0039 Z M 64.0137 3.85742 C 65.0391 3.85742 65.9668 3.32031 67.7734 1.5625 L 79.1992 -9.42383 C 79.9316 -10.1074 80.0781 -11.1816 79.4434 -12.0117 C 76.3672 -15.9668 70.6543 -19.3848 64.0137 -19.3848 C 57.2754 -19.3848 51.416 -15.8203 48.3887 -11.7188 C 47.9492 -11.0352 48.0957 -10.1074 48.877 -9.42383 L 60.3027 1.5625 C 62.0605 3.32031 62.9883 3.85742 64.0137 3.85742 Z"/>
  </g>
  <g id="Light-M" transform="matrix(1 0 0 1 1089.66 1126)">
   <path d="M 16.6504 -41.8457 C 17.4805 -40.9668 18.7012 -41.0156 19.5312 -41.8945 C 31.0059 -54.0039 46.3379 -60.5469 63.4766 -60.5469 C 80.6641 -60.5469 96.0938 -54.1016 107.52 -41.8457 C 108.301 -41.0645 109.473 -41.0645 110.303 -41.8945 L 116.406 -48.0469 C 117.188 -48.8281 117.188 -49.8047 116.553 -50.5859 C 105.566 -64.0137 84.8145 -73.8281 63.4766 -73.8281 C 42.1387 -73.8281 21.3379 -64.0625 10.4004 -50.5859 C 9.76562 -49.8047 9.81445 -48.8281 10.5469 -48.0469 Z M 36.1816 -22.2168 C 37.1094 -21.3379 38.1836 -21.4355 39.1113 -22.4121 C 44.8242 -28.7109 54.1504 -33.1543 63.4766 -33.1055 C 72.9004 -33.1543 82.1777 -28.6133 87.9883 -22.3145 C 88.8672 -21.3867 89.9414 -21.3867 90.8203 -22.2656 L 97.7539 -29.1504 C 98.4863 -29.834 98.5352 -30.8105 97.9004 -31.543 C 90.918 -40.1855 77.7344 -46.3867 63.4766 -46.3867 C 49.2676 -46.3867 36.1328 -40.1855 29.1016 -31.543 C 28.4668 -30.8105 28.5156 -29.8828 29.248 -29.1504 Z M 63.4766 3.41797 C 64.4043 3.41797 65.2344 2.92969 66.9434 1.26953 L 78.2227 -9.61914 C 78.9062 -10.2539 79.0527 -11.1328 78.4668 -11.9141 C 75.5859 -15.6738 69.8242 -18.9453 63.4766 -18.9453 C 57.0801 -18.9453 51.2695 -15.5762 48.3887 -11.7188 C 47.9492 -11.0352 48.0469 -10.2539 48.7793 -9.61914 L 60.0586 1.26953 C 61.7676 2.92969 62.5977 3.41797 63.4766 3.41797 Z"/>
  </g>
  <g id="Thin-M" transform="matrix(1 0 0 1 793.629 1126)">
   <path d="M 16.1621 -42.4805 C 16.8457 -41.748 17.9199 -41.748 18.6035 -42.5781 C 30.0781 -54.541 45.5078 -61.084 62.793 -61.084 C 80.0781 -61.084 95.752 -54.7363 106.982 -42.5293 C 107.666 -41.7969 108.691 -41.7969 109.424 -42.5293 L 115.088 -48.1934 C 115.771 -48.877 115.771 -49.8047 115.186 -50.4883 C 104.297 -63.7695 83.5449 -73.2422 62.793 -73.2422 C 41.9922 -73.2422 21.1914 -63.8672 10.3516 -50.4883 C 9.76562 -49.8047 9.86328 -48.877 10.4492 -48.1934 Z M 35.6445 -22.8516 C 36.4746 -22.1191 37.3535 -22.168 38.2324 -23.0469 C 44.0918 -29.3945 53.5645 -33.7402 62.793 -33.6914 C 72.0215 -33.7402 81.543 -29.3457 87.4023 -23.0469 C 88.2324 -22.1191 89.1602 -22.1191 89.9414 -22.9004 L 96.4355 -29.2969 C 97.0215 -29.9316 97.1191 -30.7617 96.582 -31.4453 C 89.6973 -39.9902 76.5137 -45.8008 62.793 -45.8008 C 49.0723 -45.8008 35.9375 -39.9414 29.0527 -31.4453 C 28.4668 -30.7617 28.5645 -29.9316 29.1504 -29.2969 Z M 62.793 2.83203 C 63.5742 2.83203 64.2578 2.39258 65.8691 0.830078 L 76.9531 -9.86328 C 77.5391 -10.4004 77.6855 -11.0352 77.0996 -11.8164 C 74.5117 -15.2832 68.7012 -18.4082 62.793 -18.4082 C 56.8359 -18.4082 51.0254 -15.2832 48.4375 -11.7676 C 47.9492 -11.0352 48.0469 -10.4004 48.6328 -9.86328 L 59.7168 0.830078 C 61.3281 2.44141 62.0117 2.83203 62.793 2.83203 Z"/>
  </g>
  <g id="Ultralight-M" transform="matrix(1 0 0 1 497.284 1126)">
   <path d="M 15.8691 -42.8223 C 16.5527 -42.1387 17.4805 -42.1387 18.1641 -42.8711 C 29.5898 -54.7852 45.1172 -61.377 62.4023 -61.377 C 79.7363 -61.377 95.5566 -55.0293 106.689 -42.8711 C 107.373 -42.1387 108.301 -42.1387 108.984 -42.8223 L 114.453 -48.291 C 115.039 -48.9258 115.039 -49.8047 114.502 -50.4883 C 103.662 -63.6719 82.9102 -72.9492 62.4023 -72.9492 C 41.9434 -72.9492 21.1426 -63.7207 10.3516 -50.4883 C 9.81445 -49.8047 9.86328 -48.9258 10.4004 -48.291 Z M 35.4004 -23.1934 C 36.1328 -22.5098 36.9629 -22.5098 37.7441 -23.3887 C 43.7012 -29.7363 53.2715 -34.0332 62.4512 -33.9844 C 71.582 -34.0332 81.2012 -29.7363 87.1094 -23.3887 C 87.9395 -22.5098 88.7207 -22.5098 89.502 -23.1934 L 95.752 -29.3945 C 96.2891 -29.9805 96.3867 -30.7617 95.8984 -31.3965 C 89.1113 -39.8438 75.8789 -45.5078 62.4512 -45.5078 C 49.0234 -45.5078 35.8398 -39.7949 29.0039 -31.3965 C 28.5156 -30.7617 28.5645 -29.9805 29.1016 -29.3945 Z M 62.4512 2.53906 C 63.1348 2.53906 63.7207 2.09961 65.2832 0.634766 L 76.3184 -9.96094 C 76.8555 -10.4492 77.002 -11.0352 76.416 -11.7676 C 73.9258 -15.1367 68.1641 -18.1152 62.4512 -18.1152 C 56.7383 -18.1152 50.9277 -15.1367 48.4375 -11.7676 C 47.9492 -11.0352 47.998 -10.4492 48.5352 -9.96094 L 59.5703 0.634766 C 61.1328 2.19727 61.7676 2.53906 62.4512 2.53906 Z"/>
  </g>
  <g id="Black-S" transform="matrix(1 0 0 1 2881.84 696)">
   <path d="M 13.916 -38.916 C 15.0879 -37.6953 16.9922 -37.7441 18.1152 -39.0137 C 27.0996 -48.3887 38.5742 -53.3691 51.5625 -53.3691 C 64.6484 -53.3691 76.1719 -48.3887 85.1074 -38.916 C 86.2305 -37.793 88.0859 -37.8418 89.209 -39.0137 L 94.4824 -44.3359 C 95.5078 -45.4102 95.6055 -46.9238 94.6777 -47.998 C 85.3027 -59.6191 68.3105 -67.1387 51.5625 -67.1387 C 34.8145 -67.1387 17.8223 -59.6191 8.44727 -47.998 C 7.51953 -46.9238 7.61719 -45.4102 8.64258 -44.3359 Z M 29.1992 -23.6328 C 30.4199 -22.3633 32.2754 -22.4609 33.4961 -23.8281 C 38.2324 -28.9062 45.0195 -31.8848 51.5625 -31.8848 C 58.2031 -31.8848 65.0879 -28.8086 69.8242 -23.6328 C 70.9961 -22.3633 72.7539 -22.3633 73.9258 -23.6328 L 79.834 -29.4922 C 80.9082 -30.5176 81.0059 -32.0312 80.0293 -33.1543 C 73.7793 -40.8691 62.793 -45.6543 51.5625 -45.6543 C 40.332 -45.6543 29.3457 -40.8691 23.0957 -33.1543 C 22.1191 -32.0312 22.2168 -30.5176 23.291 -29.4922 Z M 51.5625 -3.27148 C 52.7832 -3.27148 53.8574 -3.85742 55.4688 -5.41992 L 64.4531 -14.1113 C 65.5762 -15.0879 65.6738 -16.7969 64.6973 -17.9199 C 61.5234 -21.8262 56.543 -24.1699 51.5625 -24.1699 C 46.4844 -24.1699 41.2598 -21.7285 38.0371 -17.3828 C 37.3535 -16.3574 37.6953 -14.9902 38.6719 -14.1113 L 47.6562 -5.41992 C 49.2676 -3.85742 50.3418 -3.27148 51.5625 -3.27148 Z"/>
  </g>
  <g id="Heavy-S" transform="matrix(1 0 0 1 2585.39 696)">
   <path d="M 13.8184 -39.1113 C 14.8926 -37.9883 16.6504 -38.0371 17.6758 -39.209 C 26.6602 -48.6328 38.2324 -53.6621 51.2695 -53.6621 C 64.4531 -53.6621 76.0742 -48.6328 85.0098 -39.1113 C 86.0352 -38.0859 87.7441 -38.1348 88.7695 -39.209 L 93.9941 -44.5312 C 94.9707 -45.5078 95.0195 -46.875 94.1895 -47.8516 C 84.9609 -59.2285 68.1641 -66.8457 51.2695 -66.8457 C 34.4238 -66.8457 17.5781 -59.2285 8.39844 -47.8516 C 7.56836 -46.875 7.61719 -45.5078 8.59375 -44.5312 Z M 29.1016 -23.8281 C 30.2246 -22.6562 31.8848 -22.7539 33.0078 -24.0234 C 37.6465 -29.0527 44.5312 -32.1777 51.2695 -32.1777 C 58.1543 -32.1777 65.0879 -28.9551 69.7266 -23.8281 C 70.8008 -22.6562 72.3633 -22.6562 73.4375 -23.8281 L 79.3457 -29.6875 C 80.3223 -30.6152 80.4199 -31.9824 79.541 -33.0078 C 73.4375 -40.5273 62.5977 -45.3613 51.2695 -45.3613 C 39.9414 -45.3613 29.1504 -40.5273 23.0469 -33.0078 C 22.168 -31.9824 22.2168 -30.6152 23.1934 -29.6875 Z M 51.3184 -3.56445 C 52.4414 -3.56445 53.4668 -4.10156 55.0293 -5.61523 L 64.0137 -14.3066 C 65.0391 -15.1855 65.1367 -16.6992 64.2578 -17.7246 C 61.2305 -21.4355 56.3477 -23.877 51.3184 -23.877 C 46.1426 -23.877 41.0645 -21.3379 38.0371 -17.2363 C 37.4023 -16.3574 37.6953 -15.0879 38.623 -14.3066 L 47.6074 -5.61523 C 49.1699 -4.10156 50.1953 -3.56445 51.3184 -3.56445 Z"/>
  </g>
  <g id="Bold-S" transform="matrix(1 0 0 1 2289 696)">
   <path d="M 13.7207 -39.3555 C 14.6973 -38.3301 16.2109 -38.3789 17.1387 -39.4043 C 26.1719 -48.9258 37.8418 -53.9551 50.9766 -53.9551 C 64.209 -53.9551 75.9277 -48.877 84.9121 -39.3555 C 85.8398 -38.4277 87.3047 -38.4766 88.2324 -39.4531 L 93.457 -44.7266 C 94.3359 -45.6055 94.3848 -46.7773 93.6523 -47.6562 C 84.6191 -58.8379 67.9688 -66.5527 50.9766 -66.5527 C 33.9844 -66.5527 17.334 -58.8379 8.30078 -47.6562 C 7.61719 -46.7773 7.66602 -45.6055 8.49609 -44.7266 Z M 29.0039 -24.0234 C 30.0293 -22.998 31.4941 -23.0957 32.4707 -24.2188 C 37.0605 -29.1992 43.9941 -32.4707 50.9766 -32.4707 C 58.0566 -32.4707 65.0391 -29.0527 69.6289 -24.0234 C 70.6055 -22.998 71.9727 -22.998 72.9492 -24.0723 L 78.8086 -29.8828 C 79.6875 -30.7129 79.7852 -31.8848 79.0039 -32.8125 C 73.0957 -40.0879 62.4512 -45.0684 50.9766 -45.0684 C 39.5508 -45.0684 28.9062 -40.0879 22.9492 -32.8125 C 22.2168 -31.8848 22.2656 -30.7617 23.1445 -29.8828 Z M 51.0254 -3.85742 C 52.0508 -3.85742 52.9785 -4.3457 54.4922 -5.85938 L 63.4766 -14.502 C 64.3555 -15.2832 64.4531 -16.6016 63.7207 -17.4805 C 60.8887 -21.0449 56.1523 -23.584 51.0254 -23.584 C 45.752 -23.584 40.8203 -20.9473 37.9883 -17.0898 C 37.5 -16.3086 37.6953 -15.2344 38.5254 -14.502 L 47.5098 -5.85938 C 49.0723 -4.3457 49.9512 -3.85742 51.0254 -3.85742 Z"/>
  </g>
  <g id="Semibold-S" transform="matrix(1 0 0 1 1992.49 696)">
   <path d="M 13.6719 -39.502 C 14.5508 -38.5742 15.918 -38.623 16.7969 -39.5508 C 25.8301 -49.1211 37.5977 -54.1504 50.7812 -54.1504 C 64.0625 -54.1504 75.8301 -49.0723 84.8633 -39.502 C 85.6934 -38.6719 87.0117 -38.7207 87.8906 -39.5996 L 93.1152 -44.873 C 93.8965 -45.7031 93.9453 -46.7773 93.2617 -47.5098 C 84.375 -58.5449 67.8711 -66.3574 50.7812 -66.3574 C 33.6914 -66.3574 17.1875 -58.5449 8.25195 -47.5098 C 7.61719 -46.7773 7.66602 -45.7031 8.44727 -44.873 Z M 28.9551 -24.1699 C 29.9316 -23.2422 31.2012 -23.3398 32.1289 -24.3652 C 36.6211 -29.2969 43.6523 -32.7148 50.7812 -32.666 C 58.0078 -32.7148 65.0391 -29.1504 69.5801 -24.1699 C 70.459 -23.2422 71.6797 -23.2422 72.6074 -24.2188 L 78.4668 -30.0293 C 79.248 -30.8105 79.3457 -31.8848 78.6133 -32.666 C 72.8027 -39.7949 62.3047 -44.873 50.7812 -44.873 C 39.2578 -44.873 28.7598 -39.7949 22.9492 -32.666 C 22.2168 -31.8848 22.3145 -30.8105 23.0957 -30.0293 Z M 50.7812 -4.05273 C 51.7578 -4.05273 52.6367 -4.54102 54.1504 -6.00586 L 63.1348 -14.6484 C 63.916 -15.3809 64.0137 -16.5039 63.3789 -17.334 C 60.6445 -20.752 56.0059 -23.3887 50.7812 -23.3887 C 45.459 -23.3887 40.6738 -20.6543 37.9883 -16.9922 C 37.5 -16.3086 37.7441 -15.332 38.4766 -14.6484 L 47.4609 -6.00586 C 48.9746 -4.54102 49.8047 -4.05273 50.7812 -4.05273 Z"/>
  </g>
  <g id="Medium-S" transform="matrix(1 0 0 1 1695.95 696)">
   <path d="M 13.623 -39.5996 C 14.4043 -38.7695 15.7227 -38.8184 16.5039 -39.6973 C 25.5859 -49.2676 37.3535 -54.2969 50.6348 -54.2969 C 63.9648 -54.2969 75.7812 -49.2188 84.8145 -39.5996 C 85.5469 -38.8672 86.8164 -38.8672 87.5977 -39.6973 L 92.8223 -44.9707 C 93.5547 -45.752 93.6035 -46.7285 92.9688 -47.4121 C 84.1797 -58.3008 67.7734 -66.2109 50.6348 -66.2109 C 33.4473 -66.2109 17.041 -58.3008 8.25195 -47.4121 C 7.61719 -46.7285 7.66602 -45.752 8.39844 -44.9707 Z M 28.9062 -24.3164 C 29.7852 -23.3887 31.0059 -23.4863 31.8359 -24.4629 C 36.2793 -29.3945 43.3594 -32.8613 50.6348 -32.8125 C 57.959 -32.8613 65.0391 -29.248 69.5312 -24.3164 C 70.3613 -23.4375 71.4844 -23.4375 72.3145 -24.3164 L 78.1738 -30.127 C 78.9551 -30.8594 79.0039 -31.8359 78.3691 -32.5684 C 72.6562 -39.5996 62.207 -44.7266 50.6348 -44.7266 C 39.0625 -44.7266 28.6133 -39.5996 22.9004 -32.5684 C 22.2656 -31.8359 22.3145 -30.9082 23.0469 -30.127 Z M 50.6348 -4.19922 C 51.5625 -4.19922 52.3926 -4.6875 53.8574 -6.10352 L 62.8906 -14.7949 C 63.5742 -15.4297 63.6719 -16.4551 63.1348 -17.2363 C 60.498 -20.5566 55.9082 -23.2422 50.6348 -23.2422 C 45.2637 -23.2422 40.5273 -20.4102 37.9395 -16.8945 C 37.5488 -16.2598 37.7441 -15.4297 38.4277 -14.7949 L 47.4121 -6.10352 C 48.877 -4.6875 49.707 -4.19922 50.6348 -4.19922 Z"/>
  </g>
  <g id="Regular-S" transform="matrix(1 0 0 1 1399.43 696)">
   <path d="M 13.5742 -39.7949 C 14.2578 -39.0137 15.4297 -39.0625 16.1621 -39.8438 C 25.2441 -49.4629 37.1094 -54.4922 50.3906 -54.4922 C 63.7695 -54.4922 75.6836 -49.4141 84.7656 -39.7949 C 85.4004 -39.1113 86.5234 -39.1113 87.2559 -39.8438 L 92.4805 -45.1172 C 93.1641 -45.8008 93.1641 -46.6797 92.627 -47.3145 C 83.9355 -58.0078 67.6758 -66.0156 50.3906 -66.0156 C 33.1543 -66.0156 16.8945 -58.0078 8.20312 -47.3145 C 7.66602 -46.6797 7.66602 -45.8008 8.34961 -45.1172 Z M 28.8574 -24.4629 C 29.6875 -23.6328 30.7129 -23.7305 31.4941 -24.6094 C 35.8398 -29.4922 43.0176 -33.0566 50.4395 -33.0078 C 57.9102 -33.0566 65.0391 -29.3457 69.4824 -24.4629 C 70.2148 -23.6816 71.1914 -23.6816 71.9727 -24.4629 L 77.832 -30.2734 C 78.5156 -30.9082 78.5645 -31.7871 77.9785 -32.4707 C 72.3633 -39.3066 62.0605 -44.5312 50.4395 -44.5312 C 38.7695 -44.5312 28.4668 -39.3066 22.8516 -32.4707 C 22.2656 -31.7871 22.3145 -30.957 22.998 -30.2734 Z M 50.4395 -4.39453 C 51.3184 -4.39453 52.0508 -4.83398 53.5156 -6.25 L 62.5488 -14.9414 C 63.1348 -15.4785 63.2324 -16.4062 62.7441 -17.0898 C 60.2539 -20.2637 55.7617 -23.0469 50.4395 -23.0469 C 44.9707 -23.0469 40.3809 -20.1172 37.9395 -16.7969 C 37.5977 -16.2598 37.7441 -15.4785 38.3301 -14.9414 L 47.3633 -6.25 C 48.8281 -4.83398 49.5605 -4.39453 50.4395 -4.39453 Z"/>
  </g>
  <g id="Light-S" transform="matrix(1 0 0 1 1103.18 696)">
   <path d="M 13.2324 -40.2344 C 13.8672 -39.502 14.8926 -39.5508 15.5762 -40.2832 C 24.6094 -49.8047 36.5723 -54.8828 49.9512 -54.8828 C 63.3789 -54.8828 75.4395 -49.8047 84.375 -40.2344 C 85.0098 -39.5996 85.9863 -39.5996 86.6699 -40.2832 L 91.6016 -45.2148 C 92.1875 -45.8496 92.1875 -46.6797 91.6992 -47.2656 C 83.1055 -57.8613 66.8457 -65.625 49.9512 -65.625 C 33.0566 -65.625 16.7969 -57.8613 8.1543 -47.2656 C 7.66602 -46.6797 7.66602 -45.8496 8.30078 -45.2148 Z M 28.5156 -24.8535 C 29.248 -24.1211 30.1758 -24.2188 30.9082 -25 C 35.3516 -29.9316 42.627 -33.4473 49.9512 -33.3984 C 57.373 -33.4473 64.5996 -29.834 69.0918 -24.9023 C 69.7754 -24.1699 70.7031 -24.1699 71.3867 -24.9023 L 76.9531 -30.4199 C 77.5391 -30.957 77.5879 -31.7871 77.0996 -32.373 C 71.582 -39.1602 61.2793 -44.1406 49.9512 -44.1406 C 38.6719 -44.1406 28.3691 -39.1602 22.8027 -32.373 C 22.3145 -31.7871 22.3633 -31.0059 22.9492 -30.4199 Z M 49.9512 -4.78516 C 50.7324 -4.78516 51.416 -5.17578 52.7832 -6.54297 L 61.6699 -15.0879 C 62.2559 -15.5762 62.3535 -16.3574 61.8652 -16.9922 C 59.5215 -20.0195 55.0293 -22.6562 49.9512 -22.6562 C 44.8242 -22.6562 40.2344 -19.9219 37.9395 -16.7969 C 37.5977 -16.2598 37.6953 -15.5762 38.2812 -15.0879 L 47.168 -6.54297 C 48.5352 -5.17578 49.2188 -4.78516 49.9512 -4.78516 Z"/>
  </g>
  <g id="Thin-S" transform="matrix(1 0 0 1 807.081 696)">
   <path d="M 12.7441 -40.7715 C 13.3301 -40.1855 14.1602 -40.1855 14.7461 -40.8203 C 23.7305 -50.2441 35.8398 -55.3711 49.3164 -55.3711 C 62.8418 -55.3711 75.0977 -50.3906 83.8867 -40.8203 C 84.4727 -40.2344 85.3027 -40.2344 85.8887 -40.8203 L 90.4297 -45.3613 C 90.9668 -45.8984 90.9668 -46.6309 90.5273 -47.2168 C 81.9824 -57.666 65.7227 -65.1367 49.3164 -65.1367 C 32.959 -65.1367 16.6504 -57.7148 8.1543 -47.2168 C 7.66602 -46.6309 7.71484 -45.8984 8.20312 -45.3613 Z M 28.0273 -25.4395 C 28.7109 -24.8047 29.4434 -24.8535 30.127 -25.5859 C 34.668 -30.5176 42.0898 -33.9355 49.3164 -33.8867 C 56.5918 -33.9355 64.0137 -30.4688 68.6035 -25.5371 C 69.2383 -24.8047 69.9707 -24.8047 70.6055 -25.4395 L 75.7812 -30.5664 C 76.3184 -31.0547 76.3672 -31.7383 75.9277 -32.2754 C 70.5078 -39.0137 60.1562 -43.6523 49.3164 -43.6523 C 38.4766 -43.6523 28.1738 -38.9648 22.7539 -32.2754 C 22.3145 -31.7383 22.3633 -31.0547 22.8516 -30.5664 Z M 49.3652 -5.27344 C 49.9512 -5.27344 50.5371 -5.66406 51.8066 -6.88477 L 60.5469 -15.2832 C 61.0352 -15.7227 61.1328 -16.3086 60.6934 -16.8945 C 58.5938 -19.6777 54.0527 -22.168 49.3652 -22.168 C 44.5801 -22.168 40.0391 -19.6777 37.9395 -16.8457 C 37.5977 -16.2598 37.6465 -15.7227 38.1348 -15.2832 L 46.875 -6.88477 C 48.1445 -5.61523 48.7305 -5.27344 49.3652 -5.27344 Z"/>
  </g>
  <g id="Ultralight-S" transform="matrix(1 0 0 1 510.688 696)">
   <path d="M 12.5 -41.1133 C 13.0859 -40.5273 13.8184 -40.5273 14.3555 -41.1621 C 23.291 -50.4883 35.4492 -55.6641 49.0234 -55.6641 C 62.5977 -55.6641 74.9023 -50.6836 83.6426 -41.1621 C 84.2285 -40.5273 84.9609 -40.5273 85.498 -41.1133 L 89.8438 -45.459 C 90.332 -45.9473 90.332 -46.6309 89.8926 -47.168 C 81.3965 -57.5684 65.1367 -64.8438 49.0234 -64.8438 C 32.9102 -64.8438 16.6016 -57.5684 8.10547 -47.168 C 7.66602 -46.6309 7.71484 -45.9473 8.1543 -45.459 Z M 27.832 -25.7324 C 28.418 -25.1465 29.0527 -25.1465 29.6875 -25.8789 C 34.3262 -30.8594 41.8457 -34.2285 49.0234 -34.1797 C 56.2012 -34.2285 63.7207 -30.8105 68.3594 -25.8789 C 68.9941 -25.1465 69.6289 -25.1465 70.2148 -25.7324 L 75.1953 -30.6641 C 75.6348 -31.1035 75.6836 -31.7383 75.293 -32.2266 C 69.9707 -38.8672 59.6191 -43.3594 49.0234 -43.3594 C 38.4277 -43.3594 28.125 -38.8672 22.7539 -32.2266 C 22.3145 -31.7383 22.3633 -31.1035 22.8516 -30.6641 Z M 49.0234 -5.56641 C 49.5605 -5.56641 50.0977 -5.9082 51.3184 -7.08008 L 59.9609 -15.3809 C 60.4004 -15.8203 60.498 -16.2598 60.0586 -16.8457 C 58.1055 -19.5312 53.5645 -21.875 49.0234 -21.875 C 44.4824 -21.875 39.9414 -19.5312 37.9395 -16.8457 C 37.5488 -16.2598 37.6465 -15.8203 38.0859 -15.3809 L 46.7285 -7.08008 C 47.9492 -5.85938 48.4863 -5.56641 49.0234 -5.56641 Z"/>
  </g>
 </g>
</svg>
