<?xml version="1.0" encoding="UTF-8"?>
<!--Generator: Apple Native CoreSVG 129-->
<!DOCTYPE svg
PUBLIC "-//W3C//DTD SVG 1.1//EN"
       "http://www.w3.org/Graphics/SVG/1.1/DTD/svg11.dtd">
<svg version="1.1" xmlns="http://www.w3.org/2000/svg" xmlns:xlink="http://www.w3.org/1999/xlink" width="3300" height="2200">
 <!--glyph: "uni10070A.medium", point size: 100.000000, font version: "Version 16.0d9e1", template writer version: "8"-->
 <g id="Notes">
  <rect height="2200" id="artboard" style="fill:white;opacity:1" width="3300" x="0" y="0"/>
  <line id="" style="fill:none;stroke:black;opacity:1;stroke-width:0.5;" x1="263" x2="3036" y1="292" y2="292"/>
  <text style="stroke:none;fill:black;font-family:-apple-system,&quot;SF Pro Display&quot;,&quot;SF Pro Text&quot;,Helvetica,sans-serif;font-weight:bold;" transform="matrix(1 0 0 1 263 322)">Weight/Scale Variations</text>
  <text style="stroke:none;fill:black;font-family:-apple-system,&quot;SF Pro Display&quot;,&quot;SF Pro Text&quot;,Helvetica,sans-serif;text-anchor:middle;" transform="matrix(1 0 0 1 559.711 322)">Ultralight</text>
  <text style="stroke:none;fill:black;font-family:-apple-system,&quot;SF Pro Display&quot;,&quot;SF Pro Text&quot;,Helvetica,sans-serif;text-anchor:middle;" transform="matrix(1 0 0 1 856.422 322)">Thin</text>
  <text style="stroke:none;fill:black;font-family:-apple-system,&quot;SF Pro Display&quot;,&quot;SF Pro Text&quot;,Helvetica,sans-serif;text-anchor:middle;" transform="matrix(1 0 0 1 1153.13 322)">Light</text>
  <text style="stroke:none;fill:black;font-family:-apple-system,&quot;SF Pro Display&quot;,&quot;SF Pro Text&quot;,Helvetica,sans-serif;text-anchor:middle;" transform="matrix(1 0 0 1 1449.84 322)">Regular</text>
  <text style="stroke:none;fill:black;font-family:-apple-system,&quot;SF Pro Display&quot;,&quot;SF Pro Text&quot;,Helvetica,sans-serif;text-anchor:middle;" transform="matrix(1 0 0 1 1746.56 322)">Medium</text>
  <text style="stroke:none;fill:black;font-family:-apple-system,&quot;SF Pro Display&quot;,&quot;SF Pro Text&quot;,Helvetica,sans-serif;text-anchor:middle;" transform="matrix(1 0 0 1 2043.27 322)">Semibold</text>
  <text style="stroke:none;fill:black;font-family:-apple-system,&quot;SF Pro Display&quot;,&quot;SF Pro Text&quot;,Helvetica,sans-serif;text-anchor:middle;" transform="matrix(1 0 0 1 2339.98 322)">Bold</text>
  <text style="stroke:none;fill:black;font-family:-apple-system,&quot;SF Pro Display&quot;,&quot;SF Pro Text&quot;,Helvetica,sans-serif;text-anchor:middle;" transform="matrix(1 0 0 1 2636.69 322)">Heavy</text>
  <text style="stroke:none;fill:black;font-family:-apple-system,&quot;SF Pro Display&quot;,&quot;SF Pro Text&quot;,Helvetica,sans-serif;text-anchor:middle;" transform="matrix(1 0 0 1 2933.4 322)">Black</text>
  <line id="" style="fill:none;stroke:black;opacity:1;stroke-width:0.5;" x1="263" x2="3036" y1="1903" y2="1903"/>
  <g id="" transform="matrix(1 0 0 1 263 1933)">
   <path d="M 9.24805 0.830078 C 13.5547 0.830078 17.1387 -2.74414 17.1387 -7.05078 C 17.1387 -11.3574 13.5449 -14.9316 9.23828 -14.9316 C 4.94141 -14.9316 1.36719 -11.3574 1.36719 -7.05078 C 1.36719 -2.74414 4.95117 0.830078 9.24805 0.830078 Z M 9.24805 -0.654297 C 5.70312 -0.654297 2.87109 -3.49609 2.87109 -7.05078 C 2.87109 -10.6055 5.69336 -13.4473 9.23828 -13.4473 C 12.793 -13.4473 15.6348 -10.6055 15.6445 -7.05078 C 15.6543 -3.49609 12.8027 -0.654297 9.24805 -0.654297 Z M 9.22852 -3.62305 C 9.69727 -3.62305 9.9707 -3.93555 9.9707 -4.45312 L 9.9707 -6.31836 L 12.002 -6.31836 C 12.5 -6.31836 12.832 -6.57227 12.832 -7.04102 C 12.832 -7.51953 12.5195 -7.7832 12.002 -7.7832 L 9.9707 -7.7832 L 9.9707 -9.81445 C 9.9707 -10.332 9.69727 -10.6543 9.22852 -10.6543 C 8.75977 -10.6543 8.50586 -10.3125 8.50586 -9.81445 L 8.50586 -7.7832 L 6.49414 -7.7832 C 5.97656 -7.7832 5.64453 -7.51953 5.64453 -7.04102 C 5.64453 -6.57227 5.99609 -6.31836 6.49414 -6.31836 L 8.50586 -6.31836 L 8.50586 -4.45312 C 8.50586 -3.95508 8.75977 -3.62305 9.22852 -3.62305 Z"/>
  </g>
  <g id="" transform="matrix(1 0 0 1 281.506 1933)">
   <path d="M 11.709 2.91016 C 17.1582 2.91016 21.6699 -1.61133 21.6699 -7.05078 C 21.6699 -12.5 17.1484 -17.0117 11.6992 -17.0117 C 6.25977 -17.0117 1.74805 -12.5 1.74805 -7.05078 C 1.74805 -1.61133 6.26953 2.91016 11.709 2.91016 Z M 11.709 1.25 C 7.09961 1.25 3.41797 -2.44141 3.41797 -7.05078 C 3.41797 -11.6602 7.08984 -15.3516 11.6992 -15.3516 C 16.3086 -15.3516 20 -11.6602 20.0098 -7.05078 C 20.0195 -2.44141 16.3184 1.25 11.709 1.25 Z M 11.6797 -2.66602 C 12.207 -2.66602 12.5098 -3.01758 12.5098 -3.59375 L 12.5098 -6.23047 L 15.3223 -6.23047 C 15.8691 -6.23047 16.25 -6.51367 16.25 -7.03125 C 16.25 -7.55859 15.8887 -7.86133 15.3223 -7.86133 L 12.5098 -7.86133 L 12.5098 -10.6836 C 12.5098 -11.25 12.207 -11.6113 11.6797 -11.6113 C 11.1621 -11.6113 10.8789 -11.2305 10.8789 -10.6836 L 10.8789 -7.86133 L 8.07617 -7.86133 C 7.50977 -7.86133 7.13867 -7.55859 7.13867 -7.03125 C 7.13867 -6.51367 7.5293 -6.23047 8.07617 -6.23047 L 10.8789 -6.23047 L 10.8789 -3.59375 C 10.8789 -3.03711 11.1621 -2.66602 11.6797 -2.66602 Z"/>
  </g>
  <g id="" transform="matrix(1 0 0 1 304.924 1933)">
   <path d="M 14.9707 5.66406 C 21.9336 5.66406 27.6953 -0.0976562 27.6953 -7.05078 C 27.6953 -14.0137 21.9238 -19.7754 14.9609 -19.7754 C 8.00781 -19.7754 2.25586 -14.0137 2.25586 -7.05078 C 2.25586 -0.0976562 8.01758 5.66406 14.9707 5.66406 Z M 14.9707 3.84766 C 8.93555 3.84766 4.08203 -1.01562 4.08203 -7.05078 C 4.08203 -13.0957 8.92578 -17.9492 14.9609 -17.9492 C 21.0059 -17.9492 25.8594 -13.0957 25.8691 -7.05078 C 25.8789 -1.01562 21.0156 3.84766 14.9707 3.84766 Z M 14.9414 -1.38672 C 15.5176 -1.38672 15.8594 -1.77734 15.8594 -2.38281 L 15.8594 -6.13281 L 19.7754 -6.13281 C 20.3711 -6.13281 20.7812 -6.46484 20.7812 -7.02148 C 20.7812 -7.59766 20.3906 -7.93945 19.7754 -7.93945 L 15.8594 -7.93945 L 15.8594 -11.8652 C 15.8594 -12.4805 15.5176 -12.8711 14.9414 -12.8711 C 14.375 -12.8711 14.0527 -12.4609 14.0527 -11.8652 L 14.0527 -7.93945 L 10.1465 -7.93945 C 9.53125 -7.93945 9.13086 -7.59766 9.13086 -7.02148 C 9.13086 -6.46484 9.55078 -6.13281 10.1465 -6.13281 L 14.0527 -6.13281 L 14.0527 -2.38281 C 14.0527 -1.79688 14.375 -1.38672 14.9414 -1.38672 Z"/>
  </g>
  <text style="stroke:none;fill:black;font-family:-apple-system,&quot;SF Pro Display&quot;,&quot;SF Pro Text&quot;,Helvetica,sans-serif;font-weight:bold;" transform="matrix(1 0 0 1 263 1953)">Design Variations</text>
  <text style="stroke:none;fill:black;font-family:-apple-system,&quot;SF Pro Display&quot;,&quot;SF Pro Text&quot;,Helvetica,sans-serif;" transform="matrix(1 0 0 1 263 1971)">Symbols are supported in up to nine weights and three scales.</text>
  <text style="stroke:none;fill:black;font-family:-apple-system,&quot;SF Pro Display&quot;,&quot;SF Pro Text&quot;,Helvetica,sans-serif;" transform="matrix(1 0 0 1 263 1989)">For optimal layout with text and other symbols, vertically align</text>
  <text style="stroke:none;fill:black;font-family:-apple-system,&quot;SF Pro Display&quot;,&quot;SF Pro Text&quot;,Helvetica,sans-serif;" transform="matrix(1 0 0 1 263 2007)">symbols with the adjacent text.</text>
  <line id="" style="fill:none;stroke:#00AEEF;stroke-width:0.5;opacity:1.0;" x1="776" x2="776" y1="1919" y2="1933"/>
  <g id="" transform="matrix(1 0 0 1 776 1933)">
   <path d="M 3.31055 0.126953 C 3.82812 0.126953 4.08203 -0.0683594 4.26758 -0.605469 L 5.52734 -4.0625 L 11.2891 -4.0625 L 12.5488 -0.605469 C 12.7344 -0.0683594 12.9883 0.126953 13.4961 0.126953 C 14.0137 0.126953 14.3457 -0.185547 14.3457 -0.673828 C 14.3457 -0.839844 14.3164 -0.986328 14.2383 -1.20117 L 9.6582 -13.3887 C 9.43359 -13.9941 9.0332 -14.2871 8.4082 -14.2871 C 7.80273 -14.2871 7.39258 -13.9941 7.17773 -13.3984 L 2.59766 -1.19141 C 2.51953 -0.976562 2.49023 -0.830078 2.49023 -0.664062 C 2.49023 -0.175781 2.80273 0.126953 3.31055 0.126953 Z M 6.00586 -5.53711 L 8.37891 -12.1094 L 8.42773 -12.1094 L 10.8008 -5.53711 Z"/>
  </g>
  <line id="" style="fill:none;stroke:#00AEEF;stroke-width:0.5;opacity:1.0;" x1="792.836" x2="792.836" y1="1919" y2="1933"/>
  <text style="stroke:none;fill:black;font-family:-apple-system,&quot;SF Pro Display&quot;,&quot;SF Pro Text&quot;,Helvetica,sans-serif;font-weight:bold;" transform="matrix(1 0 0 1 776 1953)">Margins</text>
  <text style="stroke:none;fill:black;font-family:-apple-system,&quot;SF Pro Display&quot;,&quot;SF Pro Text&quot;,Helvetica,sans-serif;" transform="matrix(1 0 0 1 776 1971)">Leading and trailing margins on the left and right side of each symbol</text>
  <text style="stroke:none;fill:black;font-family:-apple-system,&quot;SF Pro Display&quot;,&quot;SF Pro Text&quot;,Helvetica,sans-serif;" transform="matrix(1 0 0 1 776 1989)">can be adjusted by modifying the x-location of the margin guidelines.</text>
  <text style="stroke:none;fill:black;font-family:-apple-system,&quot;SF Pro Display&quot;,&quot;SF Pro Text&quot;,Helvetica,sans-serif;" transform="matrix(1 0 0 1 776 2007)">Modifications are automatically applied proportionally to all</text>
  <text style="stroke:none;fill:black;font-family:-apple-system,&quot;SF Pro Display&quot;,&quot;SF Pro Text&quot;,Helvetica,sans-serif;" transform="matrix(1 0 0 1 776 2025)">scales and weights.</text>
  <g id="" transform="matrix(1 0 0 1 1289 1933)">
   <path d="M 2.8418 1.86523 L 4.54102 3.57422 C 5.40039 4.44336 6.38672 4.38477 7.31445 3.35938 L 17.4902 -7.85156 C 17.7539 -7.76367 18.0273 -7.7832 18.3398 -7.8418 L 19.4043 -8.03711 L 20.0684 -7.36328 L 20.0293 -6.80664 C 19.9902 -6.30859 20.1172 -5.92773 20.6055 -5.44922 L 21.3672 -4.70703 C 21.8457 -4.22852 22.4609 -4.19922 22.9297 -4.66797 L 25.8398 -7.58789 C 26.3086 -8.05664 26.2891 -8.65234 25.8105 -9.13086 L 25.0391 -9.89258 C 24.5605 -10.3711 24.1895 -10.5273 23.7109 -10.4883 L 23.1348 -10.4395 L 22.4902 -11.0742 L 22.7344 -12.1973 C 22.8613 -12.7637 22.7051 -13.2031 22.1191 -13.7891 L 19.9219 -15.9766 C 16.582 -19.2969 12.1484 -19.2188 9.25781 -16.3281 C 8.83789 -15.918 8.80859 -15.3418 9.04297 -14.9512 C 9.27734 -14.5898 9.73633 -14.3555 10.3809 -14.5215 C 11.8457 -14.8633 13.3691 -14.9219 14.7949 -13.9844 L 14.209 -12.5293 C 14.0137 -12.0508 13.9844 -11.6504 14.1113 -11.2891 L 3.04688 -0.898438 C 2.06055 0.0195312 1.98242 0.996094 2.8418 1.86523 Z M 10.752 -15.957 C 13.1836 -17.7344 16.4746 -17.4316 18.7012 -15.2051 L 21.1328 -12.793 C 21.3672 -12.5586 21.4062 -12.373 21.3379 -12.0312 L 21.0156 -10.5469 L 22.5195 -9.0625 L 23.5059 -9.12109 C 23.7598 -9.13086 23.8379 -9.11133 24.0332 -8.91602 L 24.6094 -8.33984 L 22.168 -5.89844 L 21.5918 -6.47461 C 21.3965 -6.66992 21.3672 -6.74805 21.377 -7.01172 L 21.4453 -7.98828 L 19.9512 -9.47266 L 18.4277 -9.21875 C 18.1055 -9.15039 17.959 -9.17969 17.7148 -9.41406 L 15.7129 -11.416 C 15.459 -11.6504 15.4297 -11.8164 15.5859 -12.1875 L 16.4648 -14.2773 C 14.9023 -15.7324 12.8711 -16.3574 10.8398 -15.7617 C 10.6836 -15.7227 10.625 -15.8496 10.752 -15.957 Z M 5.27344 2.30469 L 4.10156 1.14258 C 3.63281 0.683594 3.74023 0.341797 4.14062 -0.0195312 L 14.9512 -10.1953 L 16.416 -8.71094 L 6.42578 2.27539 C 6.07422 2.67578 5.74219 2.77344 5.27344 2.30469 Z"/>
  </g>
  <text style="stroke:none;fill:black;font-family:-apple-system,&quot;SF Pro Display&quot;,&quot;SF Pro Text&quot;,Helvetica,sans-serif;font-weight:bold;" transform="matrix(1 0 0 1 1289 1953)">Exporting</text>
  <text style="stroke:none;fill:black;font-family:-apple-system,&quot;SF Pro Display&quot;,&quot;SF Pro Text&quot;,Helvetica,sans-serif;" transform="matrix(1 0 0 1 1289 1971)">Symbols should be outlined when exporting to ensure the</text>
  <text style="stroke:none;fill:black;font-family:-apple-system,&quot;SF Pro Display&quot;,&quot;SF Pro Text&quot;,Helvetica,sans-serif;" transform="matrix(1 0 0 1 1289 1989)">design is preserved when submitting to Xcode.</text>
  <text id="template-version" style="stroke:none;fill:black;font-family:-apple-system,&quot;SF Pro Display&quot;,&quot;SF Pro Text&quot;,Helvetica,sans-serif;text-anchor:end;" transform="matrix(1 0 0 1 3036 1933)">Template v.2.0</text>
  <text style="stroke:none;fill:black;font-family:-apple-system,&quot;SF Pro Display&quot;,&quot;SF Pro Text&quot;,Helvetica,sans-serif;text-anchor:end;" transform="matrix(1 0 0 1 3036 1951)">Requires Xcode 12 or greater</text>
  <text style="stroke:none;fill:black;font-family:-apple-system,&quot;SF Pro Display&quot;,&quot;SF Pro Text&quot;,Helvetica,sans-serif;text-anchor:end;" transform="matrix(1 0 0 1 3036 1969)">Generated from switch.2</text>
  <text style="stroke:none;fill:black;font-family:-apple-system,&quot;SF Pro Display&quot;,&quot;SF Pro Text&quot;,Helvetica,sans-serif;text-anchor:end;" transform="matrix(1 0 0 1 3036 1987)">Typeset at 100 points</text>
  <text style="stroke:none;fill:black;font-family:-apple-system,&quot;SF Pro Display&quot;,&quot;SF Pro Text&quot;,Helvetica,sans-serif;" transform="matrix(1 0 0 1 263 726)">Small</text>
  <text style="stroke:none;fill:black;font-family:-apple-system,&quot;SF Pro Display&quot;,&quot;SF Pro Text&quot;,Helvetica,sans-serif;" transform="matrix(1 0 0 1 263 1156)">Medium</text>
  <text style="stroke:none;fill:black;font-family:-apple-system,&quot;SF Pro Display&quot;,&quot;SF Pro Text&quot;,Helvetica,sans-serif;" transform="matrix(1 0 0 1 263 1586)">Large</text>
 </g>
 <g id="Guides">
  <g id="H-reference" style="fill:#27AAE1;stroke:none;" transform="matrix(1 0 0 1 339 696)">
   <path d="M 0.976562 0 L 3.66211 0 L 12.9883 -24.4629 L 45.7031 -24.4629 L 55.0781 0 L 57.7148 0 L 30.6152 -70.459 L 28.125 -70.459 Z M 29.2969 -67.1387 L 29.3945 -67.1387 L 44.873 -26.709 L 13.8672 -26.709 Z"/>
  </g>
  <line id="Baseline-S" style="fill:none;stroke:#27AAE1;opacity:1;stroke-width:0.5;" x1="263" x2="3036" y1="696" y2="696"/>
  <line id="Capline-S" style="fill:none;stroke:#27AAE1;opacity:1;stroke-width:0.5;" x1="263" x2="3036" y1="625.541" y2="625.541"/>
  <g id="H-reference" style="fill:#27AAE1;stroke:none;" transform="matrix(1 0 0 1 339 1126)">
   <path d="M 0.976562 0 L 3.66211 0 L 12.9883 -24.4629 L 45.7031 -24.4629 L 55.0781 0 L 57.7148 0 L 30.6152 -70.459 L 28.125 -70.459 Z M 29.2969 -67.1387 L 29.3945 -67.1387 L 44.873 -26.709 L 13.8672 -26.709 Z"/>
  </g>
  <line id="Baseline-M" style="fill:none;stroke:#27AAE1;opacity:1;stroke-width:0.5;" x1="263" x2="3036" y1="1126" y2="1126"/>
  <line id="Capline-M" style="fill:none;stroke:#27AAE1;opacity:1;stroke-width:0.5;" x1="263" x2="3036" y1="1055.54" y2="1055.54"/>
  <g id="H-reference" style="fill:#27AAE1;stroke:none;" transform="matrix(1 0 0 1 339 1556)">
   <path d="M 0.976562 0 L 3.66211 0 L 12.9883 -24.4629 L 45.7031 -24.4629 L 55.0781 0 L 57.7148 0 L 30.6152 -70.459 L 28.125 -70.459 Z M 29.2969 -67.1387 L 29.3945 -67.1387 L 44.873 -26.709 L 13.8672 -26.709 Z"/>
  </g>
  <line id="Baseline-L" style="fill:none;stroke:#27AAE1;opacity:1;stroke-width:0.5;" x1="263" x2="3036" y1="1556" y2="1556"/>
  <line id="Capline-L" style="fill:none;stroke:#27AAE1;opacity:1;stroke-width:0.5;" x1="263" x2="3036" y1="1485.54" y2="1485.54"/>
  <line id="left-margin" style="fill:none;stroke:#00AEEF;stroke-width:0.5;opacity:1.0;" x1="1398.77" x2="1398.77" y1="1030.79" y2="1150.12"/>
  <line id="right-margin" style="fill:none;stroke:#00AEEF;stroke-width:0.5;opacity:1.0;" x1="1500.92" x2="1500.92" y1="1030.79" y2="1150.12"/>
 </g>
 <g id="Symbols">
  <g id="Black-L" transform="matrix(1 0 0 1 2862.97 1556)">
   <path d="M 49.7559 -37.207 L 91.1621 -37.207 C 110.938 -37.207 124.805 -50.293 124.805 -69.9219 C 124.805 -89.5508 110.938 -102.637 91.1621 -102.637 L 49.7559 -102.637 C 29.9316 -102.637 16.0645 -89.5508 16.0645 -69.9219 C 16.0645 -50.293 29.9316 -37.207 49.7559 -37.207 Z M 49.7559 -55.0293 C 40.625 -55.0293 33.8867 -61.2793 33.8867 -69.9219 C 33.8867 -78.5645 40.625 -84.8145 49.7559 -84.8145 L 91.1621 -84.8145 C 100.244 -84.8145 107.031 -78.5645 107.031 -69.9219 C 107.031 -61.2793 100.244 -55.0293 91.1621 -55.0293 Z M 49.7559 -58.8379 C 55.957 -58.8379 60.8887 -63.7695 60.8887 -70.0195 C 60.9375 -76.2207 56.0059 -81.1035 49.7559 -81.1035 C 43.5547 -81.1035 38.623 -76.1719 38.623 -70.0195 C 38.623 -63.8184 43.5547 -58.8379 49.7559 -58.8379 Z M 47.168 32.1289 L 93.7012 32.1289 C 111.279 32.1289 124.805 19.4824 124.805 2.05078 C 124.805 -15.3809 111.279 -27.9785 93.7012 -27.9785 L 47.168 -27.9785 C 29.5898 -27.9785 16.0645 -15.3809 16.0645 2.05078 C 16.0645 19.4824 29.5898 32.1289 47.168 32.1289 Z M 95.4102 14.8438 C 88.1836 14.7949 82.5195 9.13086 82.5195 2.00195 C 82.5195 -5.17578 88.1836 -10.8398 95.3125 -10.8398 C 102.539 -10.8398 108.301 -5.17578 108.203 1.85547 C 108.154 9.13086 102.441 14.9414 95.4102 14.8438 Z"/>
  </g>
  <g id="Heavy-L" transform="matrix(1 0 0 1 2567.55 1556)">
   <path d="M 48.584 -37.3535 L 89.6973 -37.3535 C 108.545 -37.3535 122.217 -50.0488 122.217 -68.9941 C 122.217 -87.9395 108.545 -100.635 89.6973 -100.635 L 48.584 -100.635 C 29.7363 -100.635 16.0645 -87.9395 16.0645 -68.9941 C 16.0645 -50.0488 29.7363 -37.3535 48.584 -37.3535 Z M 48.584 -52.8809 C 39.0625 -52.8809 31.5918 -59.6191 31.5918 -68.9941 C 31.5918 -78.418 39.0625 -85.1074 48.584 -85.1074 L 89.6973 -85.1074 C 99.2188 -85.1074 106.689 -78.418 106.689 -68.9941 C 106.689 -59.6191 99.2188 -52.8809 89.6973 -52.8809 Z M 48.584 -56.8359 C 55.4199 -56.7871 60.8398 -62.2559 60.8887 -69.1406 C 60.8887 -75.8789 55.4688 -81.2988 48.584 -81.2988 C 41.7969 -81.2988 36.4258 -75.8789 36.4258 -69.0918 C 36.4258 -62.2559 41.7969 -56.8359 48.584 -56.8359 Z M 46.0449 30.0781 L 92.2363 30.0781 C 109.131 30.0781 122.217 18.0176 122.217 1.17188 C 122.217 -15.6738 109.131 -27.7344 92.2363 -27.7344 L 46.0449 -27.7344 C 29.1504 -27.7344 16.0645 -15.6738 16.0645 1.17188 C 16.0645 18.0176 29.1504 30.0781 46.0449 30.0781 Z M 93.8965 14.9414 C 86.1816 14.8438 80.127 8.78906 80.127 1.12305 C 80.127 -6.54297 86.1816 -12.6465 93.8477 -12.6465 C 101.611 -12.6465 107.764 -6.5918 107.715 0.976562 C 107.617 8.78906 101.514 14.9902 93.8965 14.9414 Z"/>
  </g>
  <g id="Bold-L" transform="matrix(1 0 0 1 2272.3 1556)">
   <path d="M 47.3145 -37.5488 L 88.0371 -37.5488 C 105.859 -37.5488 119.287 -49.8047 119.287 -68.0176 C 119.287 -86.1816 105.859 -98.4375 88.0371 -98.4375 L 47.3145 -98.4375 C 29.541 -98.4375 16.0645 -86.1816 16.0645 -68.0176 C 16.0645 -49.8047 29.541 -37.5488 47.3145 -37.5488 Z M 47.3145 -50.5371 C 37.3047 -50.5371 29.0527 -57.7148 29.0527 -68.0176 C 29.0527 -78.2715 37.3047 -85.4492 47.3145 -85.4492 L 88.0371 -85.4492 C 98.0469 -85.4492 106.299 -78.2715 106.299 -68.0176 C 106.299 -57.7148 98.0469 -50.5371 88.0371 -50.5371 Z M 47.3145 -54.541 C 54.834 -54.4922 60.8398 -60.5469 60.8398 -68.1152 C 60.8887 -75.5371 54.8828 -81.4941 47.3145 -81.4941 C 39.8438 -81.4941 33.8867 -75.5371 33.8867 -68.0664 C 33.8867 -60.5957 39.8438 -54.5898 47.3145 -54.541 Z M 44.7266 27.7832 L 90.625 27.7832 C 106.738 27.7832 119.287 16.3574 119.287 0.146484 C 119.287 -16.0156 106.738 -27.4902 90.625 -27.4902 L 44.7266 -27.4902 C 28.6133 -27.4902 16.0645 -16.0156 16.0645 0.146484 C 16.0645 16.3574 28.6133 27.7832 44.7266 27.7832 Z M 92.2363 15.0391 C 83.9355 14.9414 77.3926 8.39844 77.3926 0.0976562 C 77.3926 -8.10547 83.9355 -14.6973 92.2363 -14.6973 C 100.537 -14.6973 107.227 -8.1543 107.129 0 C 107.08 8.34961 100.439 15.0879 92.2363 15.0391 Z"/>
  </g>
  <g id="Semibold-L" transform="matrix(1 0 0 1 1976.59 1556)">
   <path d="M 46.4355 -37.6465 L 86.9141 -37.6465 C 104.004 -37.6465 117.285 -49.6094 117.285 -67.2852 C 117.285 -84.9609 104.004 -96.9238 86.9141 -96.9238 L 46.4355 -96.9238 C 29.3457 -96.9238 16.0645 -84.9609 16.0645 -67.2852 C 16.0645 -49.6094 29.3457 -37.6465 46.4355 -37.6465 Z M 46.4355 -48.877 C 36.084 -48.877 27.2949 -56.4453 27.2949 -67.2852 C 27.2949 -78.125 36.084 -85.6934 46.4355 -85.6934 L 86.9141 -85.6934 C 97.2656 -85.6934 106.055 -78.125 106.055 -67.2852 C 106.055 -56.4453 97.2656 -48.877 86.9141 -48.877 Z M 46.4844 -52.9785 C 54.3945 -52.9297 60.791 -59.4238 60.8398 -67.4316 C 60.8887 -75.293 54.4434 -81.6406 46.4844 -81.6406 C 38.5254 -81.6406 32.1777 -75.293 32.1777 -67.334 C 32.1777 -59.375 38.4766 -53.0273 46.4844 -52.9785 Z M 43.8965 26.2207 L 89.502 26.2207 C 105.078 26.2207 117.285 15.2344 117.285 -0.537109 C 117.285 -16.2598 105.078 -27.2949 89.502 -27.2949 L 43.8965 -27.2949 C 28.2715 -27.2949 16.0645 -16.2598 16.0645 -0.537109 C 16.0645 15.2344 28.2715 26.2207 43.8965 26.2207 Z M 91.1133 15.0879 C 82.4219 15.0391 75.5371 8.10547 75.5371 -0.585938 C 75.5371 -9.17969 82.4219 -16.1621 91.1133 -16.1621 C 99.8047 -16.1621 106.787 -9.22852 106.738 -0.683594 C 106.689 8.10547 99.707 15.1367 91.1133 15.0879 Z"/>
  </g>
  <g id="Medium-L" transform="matrix(1 0 0 1 1680.64 1556)">
   <path d="M 45.8008 -37.7441 L 86.0352 -37.7441 C 102.588 -37.7441 115.771 -49.5117 115.771 -66.748 C 115.771 -84.0332 102.588 -95.752 86.0352 -95.752 L 45.8008 -95.752 C 29.248 -95.752 16.0645 -84.0332 16.0645 -66.748 C 16.0645 -49.5117 29.248 -37.7441 45.8008 -37.7441 Z M 45.8008 -47.6562 C 35.2051 -47.6562 25.9766 -55.4688 25.9766 -66.748 C 25.9766 -78.0762 35.2051 -85.8887 45.8008 -85.8887 L 86.0352 -85.8887 C 96.6309 -85.8887 105.859 -78.0762 105.859 -66.748 C 105.859 -55.4688 96.6309 -47.6562 86.0352 -47.6562 Z M 45.8008 -51.8066 C 54.1016 -51.7578 60.791 -58.4961 60.8398 -66.8945 C 60.8887 -75.1465 54.1504 -81.7383 45.8008 -81.7383 C 37.5 -81.7383 30.8594 -75.0977 30.8594 -66.7969 C 30.8594 -58.4961 37.4512 -51.8555 45.8008 -51.8066 Z M 43.2129 25.0488 L 88.623 25.0488 C 103.809 25.0488 115.771 14.3555 115.771 -1.07422 C 115.771 -16.4551 103.809 -27.1484 88.623 -27.1484 L 43.2129 -27.1484 C 27.9785 -27.1484 16.0645 -16.4551 16.0645 -1.07422 C 16.0645 14.3555 27.9785 25.0488 43.2129 25.0488 Z M 90.2344 15.1367 C 81.25 15.0879 74.0723 7.91016 74.0723 -1.07422 C 74.0723 -10.0098 81.25 -17.2363 90.2344 -17.2363 C 99.2188 -17.2363 106.494 -10.0586 106.445 -1.17188 C 106.396 7.86133 99.1699 15.1855 90.2344 15.1367 Z"/>
  </g>
  <g id="Regular-L" transform="matrix(1 0 0 1 1384.93 1556)">
   <path d="M 44.9219 -37.8906 L 84.9121 -37.8906 C 100.732 -37.8906 113.77 -49.3164 113.77 -66.0645 C 113.77 -82.8125 100.732 -94.2871 84.9121 -94.2871 L 44.9219 -94.2871 C 29.1016 -94.2871 16.0645 -82.8125 16.0645 -66.0645 C 16.0645 -49.3164 29.1016 -37.8906 44.9219 -37.8906 Z M 44.9219 -46.0449 C 33.9844 -46.0449 24.2188 -54.1992 24.2188 -66.0645 C 24.2188 -77.9297 33.9844 -86.084 44.9219 -86.084 L 84.9121 -86.084 C 95.8496 -86.084 105.615 -77.9297 105.615 -66.0645 C 105.615 -54.1992 95.8496 -46.0449 84.9121 -46.0449 Z M 44.9219 -50.2441 C 53.7109 -50.1953 60.7422 -57.373 60.791 -66.2109 C 60.8398 -74.9023 53.7598 -81.8848 44.9219 -81.8848 C 36.1816 -81.8848 29.1504 -74.8535 29.1504 -66.1133 C 29.1504 -57.3242 36.1328 -50.293 44.9219 -50.2441 Z M 42.334 23.4863 L 87.5 23.4863 C 102.197 23.4863 113.77 13.2324 113.77 -1.75781 C 113.77 -16.6992 102.197 -26.9531 87.5 -26.9531 L 42.334 -26.9531 C 27.6367 -26.9531 16.0645 -16.6992 16.0645 -1.75781 C 16.0645 13.2324 27.6367 23.4863 42.334 23.4863 Z M 89.1113 15.1855 C 79.7363 15.1367 72.2656 7.61719 72.2656 -1.75781 C 72.2656 -11.084 79.7363 -18.6035 89.1113 -18.6035 C 98.5352 -18.6035 106.104 -11.1328 106.055 -1.85547 C 106.006 7.61719 98.4375 15.2344 89.1113 15.1855 Z"/>
  </g>
  <g id="Light-L" transform="matrix(1 0 0 1 1089.56 1556)">
   <path d="M 43.9941 -38.623 L 83.1543 -38.623 C 98.3887 -38.623 111.084 -49.8535 111.084 -66.0645 C 111.084 -82.2754 98.3887 -93.5059 83.1543 -93.5059 L 43.9941 -93.5059 C 28.7598 -93.5059 16.0645 -82.2754 16.0645 -66.0645 C 16.0645 -49.8535 28.7598 -38.623 43.9941 -38.623 Z M 43.9941 -44.9219 C 32.5684 -44.9219 22.3633 -53.6621 22.3633 -66.0645 C 22.3633 -78.5156 32.5684 -87.207 43.9941 -87.207 L 83.1543 -87.207 C 94.6289 -87.207 104.785 -78.5156 104.785 -66.0645 C 104.785 -53.6621 94.6289 -44.9219 83.1543 -44.9219 Z M 44.043 -49.0723 C 53.3691 -49.0234 61.0352 -56.6895 61.084 -66.1621 C 61.084 -75.4883 53.4668 -83.0566 44.043 -83.0566 C 34.6191 -83.0566 27.0996 -75.4883 27.0996 -66.1133 C 27.0996 -56.6895 34.5703 -49.1211 44.043 -49.0723 Z M 41.4062 22.5586 L 85.7422 22.5586 C 100.098 22.5586 111.084 12.5488 111.084 -1.75781 C 111.084 -16.0156 100.098 -26.0254 85.7422 -26.0254 L 41.4062 -26.0254 C 27.0996 -26.0254 16.0645 -16.0156 16.0645 -1.75781 C 16.0645 12.5488 27.0996 22.5586 41.4062 22.5586 Z M 87.3535 16.0156 C 77.5391 15.9668 69.7266 8.05664 69.7266 -1.70898 C 69.7266 -11.4746 77.5879 -19.3359 87.3535 -19.3359 C 97.168 -19.3359 105.078 -11.4746 105.078 -1.80664 C 105.029 8.05664 97.0703 16.0156 87.3535 16.0156 Z"/>
  </g>
  <g id="Thin-L" transform="matrix(1 0 0 1 794.606 1556)">
   <path d="M 42.7734 -39.5996 L 80.8594 -39.5996 C 95.3125 -39.5996 107.568 -50.5859 107.568 -66.0645 C 107.568 -81.543 95.3125 -92.5293 80.8594 -92.5293 L 42.7734 -92.5293 C 28.3203 -92.5293 16.0645 -81.543 16.0645 -66.0645 C 16.0645 -50.5859 28.3203 -39.5996 42.7734 -39.5996 Z M 42.7734 -43.457 C 30.6641 -43.457 19.9219 -52.9297 19.9219 -66.0645 C 19.9219 -79.248 30.6641 -88.6719 42.7734 -88.6719 L 80.8594 -88.6719 C 92.9688 -88.6719 103.711 -79.248 103.711 -66.0645 C 103.711 -52.9297 92.9688 -43.457 80.8594 -43.457 Z M 42.8223 -47.5098 C 52.9785 -47.5098 61.4258 -55.7617 61.4258 -66.1621 C 61.4258 -76.3184 53.125 -84.5703 42.8223 -84.5703 C 32.6172 -84.5703 24.3652 -76.3184 24.3652 -66.0645 C 24.3652 -55.8594 32.5195 -47.5098 42.8223 -47.5098 Z M 40.1855 21.3379 L 83.4473 21.3379 C 97.3145 21.3379 107.568 11.6699 107.568 -1.75781 C 107.568 -15.1367 97.3145 -24.8047 83.4473 -24.8047 L 40.1855 -24.8047 C 26.3184 -24.8047 16.0645 -15.1367 16.0645 -1.75781 C 16.0645 11.6699 26.3184 21.3379 40.1855 21.3379 Z M 85.0586 17.041 C 74.6582 17.041 66.4062 8.64258 66.4062 -1.66016 C 66.4062 -11.9629 74.707 -20.3125 85.0586 -20.3125 C 95.4102 -20.3125 103.76 -11.9629 103.76 -1.75781 C 103.76 8.69141 95.2637 17.041 85.0586 17.041 Z"/>
  </g>
  <g id="Ultralight-L" transform="matrix(1 0 0 1 498.798 1556)">
   <path d="M 42.1387 -40.0879 L 79.6875 -40.0879 C 93.7012 -40.0879 105.762 -50.9766 105.762 -66.0645 C 105.762 -81.1523 93.7012 -92.041 79.6875 -92.041 L 42.1387 -92.041 C 28.0762 -92.041 16.0645 -81.1523 16.0645 -66.0645 C 16.0645 -50.9766 28.0762 -40.0879 42.1387 -40.0879 Z M 42.1387 -42.7246 C 29.6875 -42.7246 18.7012 -52.5391 18.7012 -66.0645 C 18.7012 -79.5898 29.6875 -89.4531 42.1387 -89.4531 L 79.6875 -89.4531 C 92.1387 -89.4531 103.125 -79.5898 103.125 -66.0645 C 103.125 -52.5391 92.1387 -42.7246 79.6875 -42.7246 Z M 42.2363 -46.7285 C 52.7832 -46.7285 61.5723 -55.3223 61.5723 -66.1621 C 61.5723 -76.709 52.9785 -85.3516 42.2363 -85.3516 C 31.543 -85.3516 22.9492 -76.709 22.9492 -66.0645 C 22.9492 -55.4199 31.4941 -46.6797 42.2363 -46.7285 Z M 39.5508 20.7031 L 82.2266 20.7031 C 95.8984 20.7031 105.762 11.2305 105.762 -1.75781 C 105.762 -14.6973 95.8984 -24.1699 82.2266 -24.1699 L 39.5508 -24.1699 C 25.9277 -24.1699 16.0645 -14.6973 16.0645 -1.75781 C 16.0645 11.2305 25.9277 20.7031 39.5508 20.7031 Z M 83.8379 17.5781 C 73.1934 17.5781 64.6973 8.93555 64.6973 -1.66016 C 64.6973 -12.2559 73.2422 -20.8008 83.8379 -20.8008 C 94.5312 -20.8008 103.076 -12.207 103.076 -1.70898 C 103.076 9.0332 94.3359 17.5781 83.8379 17.5781 Z"/>
  </g>
  <g id="Black-M" transform="matrix(1 0 0 1 2877.76 1126)">
   <path d="M 39.5996 -36.9629 L 71.6797 -36.9629 C 87.9883 -36.9629 98.8281 -47.5098 98.8281 -63.3301 C 98.8281 -79.1504 87.9883 -89.7461 71.6797 -89.7461 L 39.5996 -89.7461 C 23.291 -89.7461 12.4512 -79.1504 12.4512 -63.3301 C 12.4512 -47.5098 23.291 -36.9629 39.5996 -36.9629 Z M 39.5996 -52.832 C 32.8125 -52.832 28.3203 -57.373 28.3203 -63.3301 C 28.3203 -69.3359 32.8125 -73.877 39.5996 -73.877 L 71.6797 -73.877 C 78.4668 -73.877 82.959 -69.3359 82.959 -63.3301 C 82.959 -57.373 78.4668 -52.832 71.6797 -52.832 Z M 39.5996 -55.6152 C 43.8965 -55.6152 47.3633 -59.0332 47.3633 -63.4277 C 47.3633 -67.7246 43.9941 -71.1426 39.5996 -71.1426 C 35.2539 -71.1426 31.8848 -67.7246 31.8848 -63.4277 C 31.8848 -59.082 35.2539 -55.6152 39.5996 -55.6152 Z M 37.5977 19.1895 L 73.6816 19.1895 C 87.9883 19.1895 98.8281 8.78906 98.8281 -5.12695 C 98.8281 -19.043 87.9883 -29.4434 73.6816 -29.4434 L 37.5977 -29.4434 C 23.2422 -29.4434 12.4512 -19.043 12.4512 -5.12695 C 12.4512 8.78906 23.2422 19.1895 37.5977 19.1895 Z M 75 3.90625 C 69.873 3.85742 65.918 -0.0976562 65.918 -5.17578 C 65.918 -10.2539 69.873 -14.209 74.9023 -14.209 C 80.0781 -14.209 84.082 -10.2539 84.0332 -5.32227 C 83.9355 -0.0976562 79.9316 3.95508 75 3.90625 Z"/>
  </g>
  <g id="Heavy-M" transform="matrix(1 0 0 1 2582.12 1126)">
   <path d="M 38.5742 -36.9141 L 70.5566 -36.9141 C 85.9375 -36.9141 96.6797 -47.1191 96.6797 -62.3535 C 96.6797 -77.5879 85.9375 -87.7441 70.5566 -87.7441 L 38.5742 -87.7441 C 23.1934 -87.7441 12.4512 -77.5879 12.4512 -62.3535 C 12.4512 -47.1191 23.1934 -36.9141 38.5742 -36.9141 Z M 38.5742 -50.7812 C 31.4941 -50.7812 26.3184 -55.6641 26.3184 -62.3535 C 26.3184 -69.043 31.4941 -73.877 38.5742 -73.877 L 70.5566 -73.877 C 77.6367 -73.877 82.8125 -69.043 82.8125 -62.3535 C 82.8125 -55.6641 77.6367 -50.7812 70.5566 -50.7812 Z M 38.5742 -53.7109 C 43.4082 -53.7109 47.2656 -57.5684 47.2656 -62.4023 C 47.2656 -67.2363 43.457 -71.0449 38.5742 -71.0449 C 33.7402 -71.0449 29.9805 -67.2363 29.9805 -62.4023 C 29.9805 -57.5684 33.7402 -53.7109 38.5742 -53.7109 Z M 36.5723 17.2363 L 72.5098 17.2363 C 86.2305 17.2363 96.6797 7.37305 96.6797 -6.10352 C 96.6797 -19.5801 86.2305 -29.4434 72.5098 -29.4434 L 36.5723 -29.4434 C 22.9004 -29.4434 12.4512 -19.5801 12.4512 -6.10352 C 12.4512 7.37305 22.9004 17.2363 36.5723 17.2363 Z M 73.8281 3.80859 C 68.2617 3.71094 63.916 -0.634766 63.916 -6.15234 C 63.916 -11.6699 68.2617 -16.0156 73.7793 -16.0156 C 79.3457 -16.0156 83.7891 -11.6699 83.7402 -6.25 C 83.6426 -0.634766 79.248 3.85742 73.8281 3.80859 Z"/>
  </g>
  <g id="Bold-M" transform="matrix(1 0 0 1 2286.63 1126)">
   <path d="M 37.4512 -36.9141 L 69.2383 -36.9141 C 83.6914 -36.9141 94.2383 -46.6797 94.2383 -61.2305 C 94.2383 -75.7812 83.6914 -85.5469 69.2383 -85.5469 L 37.4512 -85.5469 C 22.998 -85.5469 12.4512 -75.7812 12.4512 -61.2305 C 12.4512 -46.6797 22.998 -36.9141 37.4512 -36.9141 Z M 37.4512 -48.5352 C 29.9805 -48.5352 24.0723 -53.8086 24.0723 -61.2305 C 24.0723 -68.6523 29.9805 -73.9258 37.4512 -73.9258 L 69.2383 -73.9258 C 76.709 -73.9258 82.6172 -68.6523 82.6172 -61.2305 C 82.6172 -53.8086 76.709 -48.5352 69.2383 -48.5352 Z M 37.4512 -51.5625 C 42.8223 -51.5625 47.168 -55.9082 47.168 -61.3281 C 47.2168 -66.6992 42.8711 -70.9473 37.4512 -70.9473 C 32.0801 -70.9473 27.832 -66.6504 27.832 -61.2793 C 27.832 -55.9082 32.0801 -51.6113 37.4512 -51.5625 Z M 35.4492 14.9902 L 71.2402 14.9902 C 84.2285 14.9902 94.2383 5.76172 94.2383 -7.17773 C 94.2383 -20.166 84.2285 -29.3945 71.2402 -29.3945 L 35.4492 -29.3945 C 22.5098 -29.3945 12.4512 -20.166 12.4512 -7.17773 C 12.4512 5.76172 22.5098 14.9902 35.4492 14.9902 Z M 72.5098 3.66211 C 66.4551 3.61328 61.6699 -1.17188 61.6699 -7.22656 C 61.6699 -13.2812 66.4551 -18.0664 72.5098 -18.0664 C 78.5645 -18.0664 83.4473 -13.2812 83.3984 -7.32422 C 83.3496 -1.2207 78.5156 3.71094 72.5098 3.66211 Z"/>
  </g>
  <g id="Semibold-M" transform="matrix(1 0 0 1 1990.75 1126)">
   <path d="M 36.6699 -36.9141 L 68.3594 -36.9141 C 82.1289 -36.9141 92.5781 -46.3867 92.5781 -60.4492 C 92.5781 -74.5605 82.1289 -84.0332 68.3594 -84.0332 L 36.6699 -84.0332 C 22.9004 -84.0332 12.4512 -74.5605 12.4512 -60.4492 C 12.4512 -46.3867 22.9004 -36.9141 36.6699 -36.9141 Z M 36.6699 -46.9727 C 28.9551 -46.9727 22.5098 -52.4902 22.5098 -60.4492 C 22.5098 -68.4082 28.9551 -73.9746 36.6699 -73.9746 L 68.3594 -73.9746 C 76.0742 -73.9746 82.5195 -68.4082 82.5195 -60.4492 C 82.5195 -52.4902 76.0742 -46.9727 68.3594 -46.9727 Z M 36.7188 -50.0977 C 42.4316 -50.0977 47.0703 -54.7363 47.1191 -60.5469 C 47.1191 -66.3086 42.4805 -70.8496 36.7188 -70.8496 C 30.9082 -70.8496 26.3672 -66.2598 26.3672 -60.5469 C 26.3672 -54.7363 30.9082 -50.1465 36.7188 -50.0977 Z M 34.668 13.4766 L 70.3613 13.4766 C 82.8125 13.4766 92.5781 4.63867 92.5781 -7.95898 C 92.5781 -20.5566 82.8125 -29.3945 70.3613 -29.3945 L 34.668 -29.3945 C 22.2168 -29.3945 12.4512 -20.5566 12.4512 -7.95898 C 12.4512 4.63867 22.2168 13.4766 34.668 13.4766 Z M 71.6309 3.56445 C 65.1855 3.51562 60.1074 -1.61133 60.1074 -8.00781 C 60.1074 -14.3555 65.1855 -19.4824 71.6309 -19.4824 C 78.0273 -19.4824 83.2031 -14.4043 83.1543 -8.05664 C 83.1055 -1.61133 77.9785 3.61328 71.6309 3.56445 Z"/>
  </g>
  <g id="Medium-M" transform="matrix(1 0 0 1 1694.65 1126)">
   <path d="M 36.084 -36.8652 L 67.6758 -36.8652 C 80.957 -36.8652 91.3574 -46.1426 91.3574 -59.9121 C 91.3574 -73.6328 80.957 -82.9102 67.6758 -82.9102 L 36.084 -82.9102 C 22.8516 -82.9102 12.4512 -73.6328 12.4512 -59.9121 C 12.4512 -46.1426 22.8516 -36.8652 36.084 -36.8652 Z M 36.084 -45.8008 C 28.1738 -45.8008 21.3379 -51.5137 21.3379 -59.9121 C 21.3379 -68.2617 28.1738 -73.9746 36.084 -73.9746 L 67.6758 -73.9746 C 75.6348 -73.9746 82.4219 -68.2617 82.4219 -59.9121 C 82.4219 -51.5137 75.6348 -45.8008 67.6758 -45.8008 Z M 36.1328 -49.0234 C 42.1387 -48.9746 47.0215 -53.9062 47.0703 -60.0098 C 47.0703 -66.0156 42.1875 -70.8008 36.1328 -70.8008 C 30.0293 -70.8008 25.2441 -65.9668 25.2441 -59.9609 C 25.2441 -53.8574 30.0293 -49.0234 36.1328 -49.0234 Z M 34.082 12.3047 L 69.6777 12.3047 C 81.7871 12.3047 91.3574 3.80859 91.3574 -8.54492 C 91.3574 -20.8496 81.7871 -29.3457 69.6777 -29.3457 L 34.082 -29.3457 C 22.0215 -29.3457 12.4512 -20.8496 12.4512 -8.54492 C 12.4512 3.80859 22.0215 12.3047 34.082 12.3047 Z M 70.9473 3.51562 C 64.2578 3.41797 58.9355 -1.9043 58.9355 -8.54492 C 58.9355 -15.1855 64.2578 -20.5566 70.9473 -20.5566 C 77.6367 -20.5566 83.0566 -15.2344 83.0078 -8.64258 C 82.959 -1.9043 77.5879 3.56445 70.9473 3.51562 Z"/>
  </g>
  <g id="Regular-M" transform="matrix(1 0 0 1 1398.77 1126)">
   <path d="M 35.3516 -36.8652 L 66.8457 -36.8652 C 79.3945 -36.8652 89.6973 -45.8496 89.6973 -59.1309 C 89.6973 -72.4121 79.3945 -81.3965 66.8457 -81.3965 L 35.3516 -81.3965 C 22.7539 -81.3965 12.4512 -72.4121 12.4512 -59.1309 C 12.4512 -45.8496 22.7539 -36.8652 35.3516 -36.8652 Z M 35.3516 -44.2383 C 27.1484 -44.2383 19.8242 -50.2441 19.8242 -59.1309 C 19.8242 -68.0176 27.1484 -74.0234 35.3516 -74.0234 L 66.8457 -74.0234 C 75 -74.0234 82.3242 -68.0176 82.3242 -59.1309 C 82.3242 -50.2441 75 -44.2383 66.8457 -44.2383 Z M 35.3516 -47.5586 C 41.7969 -47.5098 46.9238 -52.7832 46.9727 -59.2285 C 47.0215 -65.625 41.7969 -70.752 35.3516 -70.752 C 28.9062 -70.752 23.7793 -65.5762 23.7793 -59.1797 C 23.7793 -52.7344 28.9062 -47.6074 35.3516 -47.5586 Z M 33.3496 10.791 L 68.7988 10.791 C 80.4199 10.791 89.6973 2.68555 89.6973 -9.27734 C 89.6973 -21.2402 80.4199 -29.3457 68.7988 -29.3457 L 33.3496 -29.3457 C 21.7773 -29.3457 12.4512 -21.2402 12.4512 -9.27734 C 12.4512 2.68555 21.7773 10.791 33.3496 10.791 Z M 70.0684 3.41797 C 63.0371 3.36914 57.4219 -2.29492 57.4219 -9.32617 C 57.4219 -16.3086 63.0371 -21.9727 70.0684 -21.9727 C 77.0996 -21.9727 82.8125 -16.3574 82.7637 -9.375 C 82.7148 -2.29492 77.0996 3.4668 70.0684 3.41797 Z"/>
  </g>
  <g id="Light-M" transform="matrix(1 0 0 1 1103.26 1126)">
   <path d="M 34.5215 -37.5 L 65.2344 -37.5 C 77.2949 -37.5 87.3047 -46.3379 87.3047 -59.1309 C 87.3047 -71.9238 77.2949 -80.7617 65.2344 -80.7617 L 34.5215 -80.7617 C 22.4609 -80.7617 12.4512 -71.9238 12.4512 -59.1309 C 12.4512 -46.3379 22.4609 -37.5 34.5215 -37.5 Z M 34.5215 -43.2617 C 25.8789 -43.2617 18.1641 -49.7559 18.1641 -59.1309 C 18.1641 -68.5059 25.8789 -75 34.5215 -75 L 65.2344 -75 C 73.877 -75 81.5918 -68.5059 81.5918 -59.1309 C 81.5918 -49.7559 73.877 -43.2617 65.2344 -43.2617 Z M 34.5215 -46.4844 C 41.5039 -46.4355 47.168 -52.1484 47.2168 -59.2285 C 47.2656 -66.1621 41.5527 -71.7773 34.5215 -71.7773 C 27.5391 -71.7773 21.9238 -66.1133 21.9238 -59.1797 C 21.9238 -52.1484 27.4902 -46.5332 34.5215 -46.4844 Z M 32.5195 9.96094 L 67.2363 9.96094 C 78.5156 9.96094 87.3047 2.09961 87.3047 -9.27734 C 87.3047 -20.6543 78.5156 -28.5156 67.2363 -28.5156 L 32.5195 -28.5156 C 21.2402 -28.5156 12.4512 -20.6543 12.4512 -9.27734 C 12.4512 2.09961 21.2402 9.96094 32.5195 9.96094 Z M 68.5059 4.10156 C 61.084 4.10156 55.1758 -1.9043 55.1758 -9.27734 C 55.1758 -16.6504 61.084 -22.6074 68.5059 -22.6074 C 75.9277 -22.6074 81.8848 -16.6504 81.8848 -9.32617 C 81.8359 -1.9043 75.8301 4.15039 68.5059 4.10156 Z"/>
  </g>
  <g id="Thin-M" transform="matrix(1 0 0 1 808.131 1126)">
   <path d="M 33.3984 -38.3789 L 63.1836 -38.3789 C 74.5117 -38.3789 84.1309 -46.9727 84.1309 -59.1309 C 84.1309 -71.2891 74.5117 -79.8828 63.1836 -79.8828 L 33.3984 -79.8828 C 22.0703 -79.8828 12.4512 -71.2891 12.4512 -59.1309 C 12.4512 -46.9727 22.0703 -38.3789 33.3984 -38.3789 Z M 33.3984 -41.9434 C 24.1699 -41.9434 15.9668 -49.0723 15.9668 -59.1309 C 15.9668 -69.1895 24.1699 -76.3184 33.3984 -76.3184 L 63.1836 -76.3184 C 72.4121 -76.3184 80.6152 -69.1895 80.6152 -59.1309 C 80.6152 -49.0723 72.4121 -41.9434 63.1836 -41.9434 Z M 33.4473 -45.0684 C 41.1621 -45.0684 47.5098 -51.3672 47.5098 -59.1797 C 47.5098 -66.8945 41.2598 -73.1445 33.4473 -73.1445 C 25.7324 -73.1445 19.4824 -66.8945 19.4824 -59.1309 C 19.4824 -51.3672 25.6348 -45.0684 33.4473 -45.0684 Z M 31.3965 8.88672 L 65.1367 8.88672 C 76.0254 8.88672 84.1309 1.31836 84.1309 -9.27734 C 84.1309 -19.873 76.0254 -27.4414 65.1367 -27.4414 L 31.3965 -27.4414 C 20.5566 -27.4414 12.4512 -19.873 12.4512 -9.27734 C 12.4512 1.31836 20.5566 8.88672 31.3965 8.88672 Z M 66.4062 5.07812 C 58.4961 5.0293 52.1973 -1.36719 52.1973 -9.22852 C 52.1973 -17.0898 58.5449 -23.4375 66.4062 -23.4375 C 74.3164 -23.4375 80.7129 -17.0898 80.7129 -9.27734 C 80.6641 -1.31836 74.2188 5.07812 66.4062 5.07812 Z"/>
  </g>
  <g id="Ultralight-M" transform="matrix(1 0 0 1 512.226 1126)">
   <path d="M 32.8613 -38.8672 L 62.1094 -38.8672 C 73.0957 -38.8672 82.5195 -47.3145 82.5195 -59.1309 C 82.5195 -70.9473 73.0957 -79.3945 62.1094 -79.3945 L 32.8613 -79.3945 C 21.8262 -79.3945 12.4512 -70.9473 12.4512 -59.1309 C 12.4512 -47.3145 21.8262 -38.8672 32.8613 -38.8672 Z M 32.8613 -41.2598 C 23.291 -41.2598 14.8438 -48.7793 14.8438 -59.1309 C 14.8438 -69.4824 23.291 -77.002 32.8613 -77.002 L 62.1094 -77.002 C 71.6797 -77.002 80.0781 -69.4824 80.0781 -59.1309 C 80.0781 -48.7793 71.6797 -41.2598 62.1094 -41.2598 Z M 32.9102 -44.3848 C 40.9668 -44.3848 47.6562 -50.9277 47.6562 -59.1797 C 47.6562 -67.2852 41.1133 -73.8281 32.9102 -73.8281 C 24.7559 -73.8281 18.2129 -67.2852 18.2129 -59.1309 C 18.2129 -50.9766 24.707 -44.3848 32.9102 -44.3848 Z M 30.8594 8.30078 L 64.1113 8.30078 C 74.7559 8.30078 82.5195 0.927734 82.5195 -9.27734 C 82.5195 -19.4824 74.7559 -26.8555 64.1113 -26.8555 L 30.8594 -26.8555 C 20.2148 -26.8555 12.4512 -19.4824 12.4512 -9.27734 C 12.4512 0.927734 20.2148 8.30078 30.8594 8.30078 Z M 65.332 5.51758 C 57.1777 5.51758 50.6348 -1.07422 50.6348 -9.22852 C 50.6348 -17.334 57.2266 -23.877 65.332 -23.877 C 73.5352 -23.877 80.0781 -17.334 80.0781 -9.27734 C 80.0781 -1.02539 73.3887 5.51758 65.332 5.51758 Z"/>
  </g>
  <g id="Black-S" transform="matrix(1 0 0 1 2889.87 696)">
   <path d="M 30.957 -36.5723 L 56.1035 -36.5723 C 68.7988 -36.5723 77.2949 -44.8242 77.2949 -57.1777 C 77.2949 -69.5312 68.7988 -77.7832 56.1035 -77.7832 L 30.957 -77.7832 C 18.2617 -77.7832 9.76562 -69.5312 9.76562 -57.1777 C 9.76562 -44.8242 18.2617 -36.5723 30.957 -36.5723 Z M 30.957 -48.877 C 25.6348 -48.877 22.0703 -52.4414 22.0703 -57.1777 C 22.0703 -61.9141 25.6348 -65.4785 30.957 -65.4785 L 56.1035 -65.4785 C 61.4258 -65.4785 64.9902 -61.9141 64.9902 -57.1777 C 64.9902 -52.4414 61.4258 -48.877 56.1035 -48.877 Z M 30.957 -51.0742 C 34.375 -51.0742 37.1094 -53.7598 37.1094 -57.2266 C 37.1094 -60.6445 34.4238 -63.3301 30.957 -63.3301 C 27.5391 -63.3301 24.8535 -60.6445 24.8535 -57.2266 C 24.8535 -53.8086 27.5391 -51.0742 30.957 -51.0742 Z M 29.3945 7.27539 L 57.666 7.27539 C 68.8477 7.27539 77.2949 -0.830078 77.2949 -11.7188 C 77.2949 -22.6074 68.8477 -30.7129 57.666 -30.7129 L 29.3945 -30.7129 C 18.2129 -30.7129 9.76562 -22.6074 9.76562 -11.7188 C 9.76562 -0.830078 18.2129 7.27539 29.3945 7.27539 Z M 58.6914 -4.58984 C 54.6387 -4.63867 51.5137 -7.76367 51.5137 -11.7676 C 51.5137 -15.7715 54.6387 -18.8965 58.6426 -18.8965 C 62.6953 -18.8965 65.8691 -15.7715 65.8203 -11.8652 C 65.7715 -7.76367 62.5977 -4.54102 58.6914 -4.58984 Z"/>
  </g>
  <g id="Heavy-S" transform="matrix(1 0 0 1 2593.84 696)">
   <path d="M 30.2734 -36.4746 L 55.4199 -36.4746 C 67.4805 -36.4746 75.9277 -44.4824 75.9277 -56.3965 C 75.9277 -68.3594 67.4805 -76.3672 55.4199 -76.3672 L 30.2734 -76.3672 C 18.2129 -76.3672 9.76562 -68.3594 9.76562 -56.3965 C 9.76562 -44.4824 18.2129 -36.4746 30.2734 -36.4746 Z M 30.2734 -47.4121 C 24.7559 -47.4121 20.7031 -51.2207 20.7031 -56.3965 C 20.7031 -61.6211 24.7559 -65.3809 30.2734 -65.3809 L 55.4199 -65.3809 C 60.9375 -65.3809 64.9414 -61.6211 64.9414 -56.3965 C 64.9414 -51.2207 60.9375 -47.4121 55.4199 -47.4121 Z M 30.2734 -49.7559 C 34.0332 -49.707 37.0117 -52.6855 37.0117 -56.4941 C 37.0117 -60.2051 34.082 -63.1348 30.2734 -63.1348 C 26.5625 -63.1348 23.584 -60.2051 23.584 -56.4453 C 23.584 -52.7344 26.5625 -49.7559 30.2734 -49.7559 Z M 28.7109 5.85938 L 56.9824 5.85938 C 67.6758 5.85938 75.9277 -1.85547 75.9277 -12.4512 C 75.9277 -23.0469 67.6758 -30.8105 56.9824 -30.8105 L 28.7109 -30.8105 C 18.0176 -30.8105 9.76562 -23.0469 9.76562 -12.4512 C 9.76562 -1.85547 18.0176 5.85938 28.7109 5.85938 Z M 57.959 -4.73633 C 53.6133 -4.78516 50.2441 -8.20312 50.2441 -12.5 C 50.2441 -16.8457 53.6133 -20.2148 57.959 -20.2148 C 62.3047 -20.2148 65.7227 -16.8457 65.6738 -12.5977 C 65.625 -8.20312 62.207 -4.6875 57.959 -4.73633 Z"/>
  </g>
  <g id="Bold-S" transform="matrix(1 0 0 1 2297.91 696)">
   <path d="M 29.541 -36.377 L 54.6387 -36.377 C 66.0156 -36.377 74.3652 -44.043 74.3652 -55.5664 C 74.3652 -67.0898 66.0156 -74.7559 54.6387 -74.7559 L 29.541 -74.7559 C 18.1152 -74.7559 9.76562 -67.0898 9.76562 -55.5664 C 9.76562 -44.043 18.1152 -36.377 29.541 -36.377 Z M 29.541 -45.8008 C 23.7793 -45.8008 19.1895 -49.8535 19.1895 -55.5664 C 19.1895 -61.2793 23.7793 -65.332 29.541 -65.332 L 54.6387 -65.332 C 60.3516 -65.332 64.9414 -61.2793 64.9414 -55.5664 C 64.9414 -49.8535 60.3516 -45.8008 54.6387 -45.8008 Z M 29.541 -48.2422 C 33.6426 -48.1934 36.8652 -51.5137 36.9141 -55.6152 C 36.9141 -59.7168 33.6426 -62.9395 29.541 -62.9395 C 25.4395 -62.9395 22.2168 -59.668 22.2168 -55.6152 C 22.2168 -51.5137 25.4395 -48.2422 29.541 -48.2422 Z M 27.9785 4.24805 L 56.2012 4.24805 C 66.4062 4.24805 74.3652 -3.02734 74.3652 -13.3301 C 74.3652 -23.584 66.4062 -30.8594 56.2012 -30.8594 L 27.9785 -30.8594 C 17.7734 -30.8594 9.76562 -23.584 9.76562 -13.3301 C 9.76562 -3.02734 17.7734 4.24805 27.9785 4.24805 Z M 57.1777 -4.93164 C 52.4902 -4.98047 48.7793 -8.69141 48.7793 -13.3301 C 48.7793 -18.0176 52.4902 -21.7285 57.1777 -21.7285 C 61.8652 -21.7285 65.625 -18.0176 65.5762 -13.4277 C 65.5273 -8.69141 61.8164 -4.88281 57.1777 -4.93164 Z"/>
  </g>
  <g id="Semibold-S" transform="matrix(1 0 0 1 2001.74 696)">
   <path d="M 29.0039 -36.3281 L 54.0527 -36.3281 C 64.9902 -36.3281 73.291 -43.7988 73.291 -54.9805 C 73.291 -66.1621 64.9902 -73.6328 54.0527 -73.6328 L 29.0039 -73.6328 C 18.0664 -73.6328 9.76562 -66.1621 9.76562 -54.9805 C 9.76562 -43.7988 18.0664 -36.3281 29.0039 -36.3281 Z M 29.0039 -44.7266 C 23.0957 -44.7266 18.1641 -48.877 18.1641 -54.9805 C 18.1641 -61.084 23.0957 -65.2344 29.0039 -65.2344 L 54.0527 -65.2344 C 59.9609 -65.2344 64.8926 -61.084 64.8926 -54.9805 C 64.8926 -48.877 59.9609 -44.7266 54.0527 -44.7266 Z M 29.0039 -47.2168 C 33.3496 -47.168 36.8164 -50.6836 36.8164 -55.0781 C 36.8652 -59.375 33.3496 -62.793 29.0039 -62.793 C 24.6582 -62.793 21.2402 -59.3262 21.2402 -55.0293 C 21.2402 -50.6836 24.6582 -47.2168 29.0039 -47.2168 Z M 27.4414 3.17383 L 55.6152 3.17383 C 65.4785 3.17383 73.291 -3.80859 73.291 -13.8672 C 73.291 -23.9258 65.4785 -30.9082 55.6152 -30.9082 L 27.4414 -30.9082 C 17.5781 -30.9082 9.76562 -23.9258 9.76562 -13.8672 C 9.76562 -3.80859 17.5781 3.17383 27.4414 3.17383 Z M 56.6406 -5.07812 C 51.709 -5.12695 47.8027 -9.0332 47.8027 -13.916 C 47.8027 -18.7988 51.709 -22.7051 56.5918 -22.7051 C 61.5234 -22.7051 65.5273 -18.8477 65.4785 -14.0137 C 65.4297 -9.0332 61.5234 -5.0293 56.6406 -5.07812 Z"/>
  </g>
  <g id="Medium-S" transform="matrix(1 0 0 1 1705.42 696)">
   <path d="M 28.6133 -36.2793 L 53.6621 -36.2793 C 64.2578 -36.2793 72.5098 -43.5547 72.5098 -54.541 C 72.5098 -65.5273 64.2578 -72.8027 53.6621 -72.8027 L 28.6133 -72.8027 C 18.0176 -72.8027 9.76562 -65.5273 9.76562 -54.541 C 9.76562 -43.5547 18.0176 -36.2793 28.6133 -36.2793 Z M 28.6133 -43.8477 C 22.6074 -43.8477 17.3828 -48.1934 17.3828 -54.541 C 17.3828 -60.8887 22.6074 -65.1855 28.6133 -65.1855 L 53.6621 -65.1855 C 59.668 -65.1855 64.8926 -60.8887 64.8926 -54.541 C 64.8926 -48.1934 59.668 -43.8477 53.6621 -43.8477 Z M 28.6133 -46.4355 C 33.1543 -46.3867 36.7188 -50.0977 36.7676 -54.6387 C 36.8164 -59.1309 33.1543 -62.6953 28.6133 -62.6953 C 24.0723 -62.6953 20.5078 -59.082 20.5078 -54.5898 C 20.5078 -50.0488 24.0723 -46.4355 28.6133 -46.4355 Z M 27.0508 2.34375 L 55.2246 2.34375 C 64.7949 2.34375 72.5098 -4.44336 72.5098 -14.3066 C 72.5098 -24.2188 64.7949 -30.957 55.2246 -30.957 L 27.0508 -30.957 C 17.4805 -30.957 9.76562 -24.2188 9.76562 -14.3066 C 9.76562 -4.44336 17.4805 2.34375 27.0508 2.34375 Z M 56.2012 -5.17578 C 51.123 -5.22461 47.0703 -9.27734 47.0703 -14.3555 C 47.0703 -19.4336 51.123 -23.4863 56.2012 -23.4863 C 61.2793 -23.4863 65.4297 -19.4336 65.3809 -14.4043 C 65.332 -9.32617 61.2793 -5.12695 56.2012 -5.17578 Z"/>
  </g>
  <g id="Regular-S" transform="matrix(1 0 0 1 1409.24 696)">
   <path d="M 28.0762 -36.1816 L 53.125 -36.1816 C 63.2324 -36.1816 71.4355 -43.3105 71.4355 -53.9551 C 71.4355 -64.5996 63.2324 -71.7285 53.125 -71.7285 L 28.0762 -71.7285 C 17.9688 -71.7285 9.76562 -64.5996 9.76562 -53.9551 C 9.76562 -43.3105 17.9688 -36.1816 28.0762 -36.1816 Z M 28.0762 -42.7734 C 21.9238 -42.7734 16.3574 -47.2168 16.3574 -53.9551 C 16.3574 -60.6934 21.9238 -65.1367 28.0762 -65.1367 L 53.125 -65.1367 C 59.2773 -65.1367 64.8926 -60.6934 64.8926 -53.9551 C 64.8926 -47.2168 59.2773 -42.7734 53.125 -42.7734 Z M 28.0762 -45.4102 C 32.8613 -45.3613 36.6699 -49.2676 36.7188 -54.0527 C 36.7676 -58.7891 32.8613 -62.5488 28.0762 -62.5488 C 23.3398 -62.5488 19.5312 -58.7402 19.5312 -54.0039 C 19.5312 -49.2188 23.3398 -45.459 28.0762 -45.4102 Z M 26.5137 1.2207 L 54.6875 1.2207 C 63.916 1.2207 71.4355 -5.22461 71.4355 -14.8926 C 71.4355 -24.5605 63.916 -31.0059 54.6875 -31.0059 L 26.5137 -31.0059 C 17.2852 -31.0059 9.76562 -24.5605 9.76562 -14.8926 C 9.76562 -5.22461 17.2852 1.2207 26.5137 1.2207 Z M 55.6641 -5.32227 C 50.3418 -5.37109 46.0938 -9.61914 46.0938 -14.9414 C 46.0938 -20.2148 50.3418 -24.5117 55.6641 -24.5117 C 60.9863 -24.5117 65.332 -20.2637 65.2832 -14.9902 C 65.2344 -9.66797 60.9863 -5.27344 55.6641 -5.32227 Z"/>
  </g>
  <g id="Light-S" transform="matrix(1 0 0 1 1113.58 696)">
   <path d="M 27.3438 -36.7676 L 51.709 -36.7676 C 61.377 -36.7676 69.3359 -43.75 69.3359 -53.9551 C 69.3359 -64.1602 61.377 -71.1426 51.709 -71.1426 L 27.3438 -71.1426 C 17.7246 -71.1426 9.76562 -64.1602 9.76562 -53.9551 C 9.76562 -43.75 17.7246 -36.7676 27.3438 -36.7676 Z M 27.3438 -41.8945 C 20.752 -41.8945 14.8926 -46.7773 14.8926 -53.9551 C 14.8926 -61.1328 20.752 -66.0156 27.3438 -66.0156 L 51.709 -66.0156 C 58.3008 -66.0156 64.209 -61.1328 64.209 -53.9551 C 64.209 -46.7773 58.3008 -41.8945 51.709 -41.8945 Z M 27.3926 -44.4336 C 32.6172 -44.4336 36.8652 -48.7305 36.9141 -54.0527 C 36.9629 -59.2773 32.666 -63.4766 27.3926 -63.4766 C 22.1191 -63.4766 17.8711 -59.2285 17.8711 -54.0039 C 17.8711 -48.7305 22.0703 -44.4824 27.3926 -44.4336 Z M 25.7812 0.488281 L 53.2715 0.488281 C 62.2559 0.488281 69.3359 -5.76172 69.3359 -14.8926 C 69.3359 -24.0234 62.2559 -30.2734 53.2715 -30.2734 L 25.7812 -30.2734 C 16.8457 -30.2734 9.76562 -24.0234 9.76562 -14.8926 C 9.76562 -5.76172 16.8457 0.488281 25.7812 0.488281 Z M 54.248 -4.6875 C 48.584 -4.6875 44.0918 -9.27734 44.0918 -14.8926 C 44.0918 -20.5078 48.6328 -25.0977 54.248 -25.0977 C 59.9609 -25.0977 64.5508 -20.5566 64.502 -14.9414 C 64.4531 -9.27734 59.9121 -4.63867 54.248 -4.6875 Z"/>
  </g>
  <g id="Thin-S" transform="matrix(1 0 0 1 818.287 696)">
   <path d="M 26.416 -37.5488 L 49.9023 -37.5488 C 58.9355 -37.5488 66.5039 -44.2871 66.5039 -53.9551 C 66.5039 -63.623 58.9355 -70.3613 49.9023 -70.3613 L 26.416 -70.3613 C 17.3828 -70.3613 9.76562 -63.623 9.76562 -53.9551 C 9.76562 -44.2871 17.3828 -37.5488 26.416 -37.5488 Z M 26.416 -40.7227 C 19.2871 -40.7227 12.9395 -46.2402 12.9395 -53.9551 C 12.9395 -61.6699 19.2871 -67.1875 26.416 -67.1875 L 49.9023 -67.1875 C 57.0312 -67.1875 63.3301 -61.6699 63.3301 -53.9551 C 63.3301 -46.2402 57.0312 -40.7227 49.9023 -40.7227 Z M 26.416 -43.2129 C 32.3242 -43.2129 37.1582 -47.998 37.1582 -54.0039 C 37.207 -59.9121 32.4219 -64.6484 26.416 -64.6484 C 20.5078 -64.6484 15.7227 -59.8633 15.7227 -53.9551 C 15.7227 -48.0469 20.459 -43.2129 26.416 -43.2129 Z M 24.8535 -0.439453 L 51.4648 -0.439453 C 60.0586 -0.439453 66.5039 -6.44531 66.5039 -14.8926 C 66.5039 -23.3398 60.0586 -29.3457 51.4648 -29.3457 L 24.8535 -29.3457 C 16.2598 -29.3457 9.76562 -23.3398 9.76562 -14.8926 C 9.76562 -6.44531 16.2598 -0.439453 24.8535 -0.439453 Z M 52.4414 -3.85742 C 46.3379 -3.85742 41.4551 -8.78906 41.4551 -14.8926 C 41.4551 -20.9473 46.3379 -25.8301 52.4414 -25.8301 C 58.5449 -25.8301 63.4766 -20.9473 63.4766 -14.9414 C 63.4277 -8.78906 58.4961 -3.85742 52.4414 -3.85742 Z"/>
  </g>
  <g id="Ultralight-S" transform="matrix(1 0 0 1 522.284 696)">
   <path d="M 25.8789 -37.9395 L 48.9258 -37.9395 C 57.666 -37.9395 65.0879 -44.6289 65.0879 -53.9551 C 65.0879 -63.2812 57.666 -69.9707 48.9258 -69.9707 L 25.8789 -69.9707 C 17.1875 -69.9707 9.76562 -63.2812 9.76562 -53.9551 C 9.76562 -44.6289 17.1875 -37.9395 25.8789 -37.9395 Z M 25.8789 -40.1367 C 18.5059 -40.1367 11.9629 -45.8984 11.9629 -53.9551 C 11.9629 -62.0117 18.5059 -67.7734 25.8789 -67.7734 L 48.9258 -67.7734 C 56.3477 -67.7734 62.8906 -62.0117 62.8906 -53.9551 C 62.8906 -45.8984 56.3477 -40.1367 48.9258 -40.1367 Z M 25.9277 -42.5781 C 32.1777 -42.5781 37.3047 -47.6562 37.3047 -54.0039 C 37.3047 -60.2051 32.2754 -65.2832 25.9277 -65.2832 C 19.6777 -65.2832 14.5996 -60.2051 14.5996 -53.9551 C 14.5996 -47.7051 19.6289 -42.5781 25.9277 -42.5781 Z M 24.3164 -0.976562 L 50.4883 -0.976562 C 58.8867 -0.976562 65.0879 -6.78711 65.0879 -14.8926 C 65.0879 -22.998 58.8867 -28.8086 50.4883 -28.8086 L 24.3164 -28.8086 C 15.918 -28.8086 9.76562 -22.998 9.76562 -14.8926 C 9.76562 -6.78711 15.918 -0.976562 24.3164 -0.976562 Z M 51.4648 -3.41797 C 45.166 -3.41797 40.0879 -8.54492 40.0879 -14.8438 C 40.0879 -21.1426 45.166 -26.2207 51.4648 -26.2207 C 57.8125 -26.2207 62.9395 -21.1426 62.9395 -14.8926 C 62.8906 -8.49609 57.7148 -3.41797 51.4648 -3.41797 Z"/>
  </g>
 </g>
</svg>
