<?xml version="1.0" encoding="UTF-8"?>
<!--Generator: Apple Native CoreSVG 129-->
<!DOCTYPE svg
PUBLIC "-//W3C//DTD SVG 1.1//EN"
       "http://www.w3.org/Graphics/SVG/1.1/DTD/svg11.dtd">
<svg version="1.1" xmlns="http://www.w3.org/2000/svg" xmlns:xlink="http://www.w3.org/1999/xlink" width="3300" height="2200">
 <!--glyph: "uni100453.medium", point size: 100.000000, font version: "Version 16.0d9e1", template writer version: "8"-->
 <g id="Notes">
  <rect height="2200" id="artboard" style="fill:white;opacity:1" width="3300" x="0" y="0"/>
  <line id="" style="fill:none;stroke:black;opacity:1;stroke-width:0.5;" x1="263" x2="3036" y1="292" y2="292"/>
  <text style="stroke:none;fill:black;font-family:-apple-system,&quot;SF Pro Display&quot;,&quot;SF Pro Text&quot;,Helvetica,sans-serif;font-weight:bold;" transform="matrix(1 0 0 1 263 322)">Weight/Scale Variations</text>
  <text style="stroke:none;fill:black;font-family:-apple-system,&quot;SF Pro Display&quot;,&quot;SF Pro Text&quot;,Helvetica,sans-serif;text-anchor:middle;" transform="matrix(1 0 0 1 559.711 322)">Ultralight</text>
  <text style="stroke:none;fill:black;font-family:-apple-system,&quot;SF Pro Display&quot;,&quot;SF Pro Text&quot;,Helvetica,sans-serif;text-anchor:middle;" transform="matrix(1 0 0 1 856.422 322)">Thin</text>
  <text style="stroke:none;fill:black;font-family:-apple-system,&quot;SF Pro Display&quot;,&quot;SF Pro Text&quot;,Helvetica,sans-serif;text-anchor:middle;" transform="matrix(1 0 0 1 1153.13 322)">Light</text>
  <text style="stroke:none;fill:black;font-family:-apple-system,&quot;SF Pro Display&quot;,&quot;SF Pro Text&quot;,Helvetica,sans-serif;text-anchor:middle;" transform="matrix(1 0 0 1 1449.84 322)">Regular</text>
  <text style="stroke:none;fill:black;font-family:-apple-system,&quot;SF Pro Display&quot;,&quot;SF Pro Text&quot;,Helvetica,sans-serif;text-anchor:middle;" transform="matrix(1 0 0 1 1746.56 322)">Medium</text>
  <text style="stroke:none;fill:black;font-family:-apple-system,&quot;SF Pro Display&quot;,&quot;SF Pro Text&quot;,Helvetica,sans-serif;text-anchor:middle;" transform="matrix(1 0 0 1 2043.27 322)">Semibold</text>
  <text style="stroke:none;fill:black;font-family:-apple-system,&quot;SF Pro Display&quot;,&quot;SF Pro Text&quot;,Helvetica,sans-serif;text-anchor:middle;" transform="matrix(1 0 0 1 2339.98 322)">Bold</text>
  <text style="stroke:none;fill:black;font-family:-apple-system,&quot;SF Pro Display&quot;,&quot;SF Pro Text&quot;,Helvetica,sans-serif;text-anchor:middle;" transform="matrix(1 0 0 1 2636.69 322)">Heavy</text>
  <text style="stroke:none;fill:black;font-family:-apple-system,&quot;SF Pro Display&quot;,&quot;SF Pro Text&quot;,Helvetica,sans-serif;text-anchor:middle;" transform="matrix(1 0 0 1 2933.4 322)">Black</text>
  <line id="" style="fill:none;stroke:black;opacity:1;stroke-width:0.5;" x1="263" x2="3036" y1="1903" y2="1903"/>
  <g id="" transform="matrix(1 0 0 1 263 1933)">
   <path d="M 9.24805 0.830078 C 13.5547 0.830078 17.1387 -2.74414 17.1387 -7.05078 C 17.1387 -11.3574 13.5449 -14.9316 9.23828 -14.9316 C 4.94141 -14.9316 1.36719 -11.3574 1.36719 -7.05078 C 1.36719 -2.74414 4.95117 0.830078 9.24805 0.830078 Z M 9.24805 -0.654297 C 5.70312 -0.654297 2.87109 -3.49609 2.87109 -7.05078 C 2.87109 -10.6055 5.69336 -13.4473 9.23828 -13.4473 C 12.793 -13.4473 15.6348 -10.6055 15.6445 -7.05078 C 15.6543 -3.49609 12.8027 -0.654297 9.24805 -0.654297 Z M 9.22852 -3.62305 C 9.69727 -3.62305 9.9707 -3.93555 9.9707 -4.45312 L 9.9707 -6.31836 L 12.002 -6.31836 C 12.5 -6.31836 12.832 -6.57227 12.832 -7.04102 C 12.832 -7.51953 12.5195 -7.7832 12.002 -7.7832 L 9.9707 -7.7832 L 9.9707 -9.81445 C 9.9707 -10.332 9.69727 -10.6543 9.22852 -10.6543 C 8.75977 -10.6543 8.50586 -10.3125 8.50586 -9.81445 L 8.50586 -7.7832 L 6.49414 -7.7832 C 5.97656 -7.7832 5.64453 -7.51953 5.64453 -7.04102 C 5.64453 -6.57227 5.99609 -6.31836 6.49414 -6.31836 L 8.50586 -6.31836 L 8.50586 -4.45312 C 8.50586 -3.95508 8.75977 -3.62305 9.22852 -3.62305 Z"/>
  </g>
  <g id="" transform="matrix(1 0 0 1 281.506 1933)">
   <path d="M 11.709 2.91016 C 17.1582 2.91016 21.6699 -1.61133 21.6699 -7.05078 C 21.6699 -12.5 17.1484 -17.0117 11.6992 -17.0117 C 6.25977 -17.0117 1.74805 -12.5 1.74805 -7.05078 C 1.74805 -1.61133 6.26953 2.91016 11.709 2.91016 Z M 11.709 1.25 C 7.09961 1.25 3.41797 -2.44141 3.41797 -7.05078 C 3.41797 -11.6602 7.08984 -15.3516 11.6992 -15.3516 C 16.3086 -15.3516 20 -11.6602 20.0098 -7.05078 C 20.0195 -2.44141 16.3184 1.25 11.709 1.25 Z M 11.6797 -2.66602 C 12.207 -2.66602 12.5098 -3.01758 12.5098 -3.59375 L 12.5098 -6.23047 L 15.3223 -6.23047 C 15.8691 -6.23047 16.25 -6.51367 16.25 -7.03125 C 16.25 -7.55859 15.8887 -7.86133 15.3223 -7.86133 L 12.5098 -7.86133 L 12.5098 -10.6836 C 12.5098 -11.25 12.207 -11.6113 11.6797 -11.6113 C 11.1621 -11.6113 10.8789 -11.2305 10.8789 -10.6836 L 10.8789 -7.86133 L 8.07617 -7.86133 C 7.50977 -7.86133 7.13867 -7.55859 7.13867 -7.03125 C 7.13867 -6.51367 7.5293 -6.23047 8.07617 -6.23047 L 10.8789 -6.23047 L 10.8789 -3.59375 C 10.8789 -3.03711 11.1621 -2.66602 11.6797 -2.66602 Z"/>
  </g>
  <g id="" transform="matrix(1 0 0 1 304.924 1933)">
   <path d="M 14.9707 5.66406 C 21.9336 5.66406 27.6953 -0.0976562 27.6953 -7.05078 C 27.6953 -14.0137 21.9238 -19.7754 14.9609 -19.7754 C 8.00781 -19.7754 2.25586 -14.0137 2.25586 -7.05078 C 2.25586 -0.0976562 8.01758 5.66406 14.9707 5.66406 Z M 14.9707 3.84766 C 8.93555 3.84766 4.08203 -1.01562 4.08203 -7.05078 C 4.08203 -13.0957 8.92578 -17.9492 14.9609 -17.9492 C 21.0059 -17.9492 25.8594 -13.0957 25.8691 -7.05078 C 25.8789 -1.01562 21.0156 3.84766 14.9707 3.84766 Z M 14.9414 -1.38672 C 15.5176 -1.38672 15.8594 -1.77734 15.8594 -2.38281 L 15.8594 -6.13281 L 19.7754 -6.13281 C 20.3711 -6.13281 20.7812 -6.46484 20.7812 -7.02148 C 20.7812 -7.59766 20.3906 -7.93945 19.7754 -7.93945 L 15.8594 -7.93945 L 15.8594 -11.8652 C 15.8594 -12.4805 15.5176 -12.8711 14.9414 -12.8711 C 14.375 -12.8711 14.0527 -12.4609 14.0527 -11.8652 L 14.0527 -7.93945 L 10.1465 -7.93945 C 9.53125 -7.93945 9.13086 -7.59766 9.13086 -7.02148 C 9.13086 -6.46484 9.55078 -6.13281 10.1465 -6.13281 L 14.0527 -6.13281 L 14.0527 -2.38281 C 14.0527 -1.79688 14.375 -1.38672 14.9414 -1.38672 Z"/>
  </g>
  <text style="stroke:none;fill:black;font-family:-apple-system,&quot;SF Pro Display&quot;,&quot;SF Pro Text&quot;,Helvetica,sans-serif;font-weight:bold;" transform="matrix(1 0 0 1 263 1953)">Design Variations</text>
  <text style="stroke:none;fill:black;font-family:-apple-system,&quot;SF Pro Display&quot;,&quot;SF Pro Text&quot;,Helvetica,sans-serif;" transform="matrix(1 0 0 1 263 1971)">Symbols are supported in up to nine weights and three scales.</text>
  <text style="stroke:none;fill:black;font-family:-apple-system,&quot;SF Pro Display&quot;,&quot;SF Pro Text&quot;,Helvetica,sans-serif;" transform="matrix(1 0 0 1 263 1989)">For optimal layout with text and other symbols, vertically align</text>
  <text style="stroke:none;fill:black;font-family:-apple-system,&quot;SF Pro Display&quot;,&quot;SF Pro Text&quot;,Helvetica,sans-serif;" transform="matrix(1 0 0 1 263 2007)">symbols with the adjacent text.</text>
  <line id="" style="fill:none;stroke:#00AEEF;stroke-width:0.5;opacity:1.0;" x1="776" x2="776" y1="1919" y2="1933"/>
  <g id="" transform="matrix(1 0 0 1 776 1933)">
   <path d="M 3.31055 0.126953 C 3.82812 0.126953 4.08203 -0.0683594 4.26758 -0.605469 L 5.52734 -4.0625 L 11.2891 -4.0625 L 12.5488 -0.605469 C 12.7344 -0.0683594 12.9883 0.126953 13.4961 0.126953 C 14.0137 0.126953 14.3457 -0.185547 14.3457 -0.673828 C 14.3457 -0.839844 14.3164 -0.986328 14.2383 -1.20117 L 9.6582 -13.3887 C 9.43359 -13.9941 9.0332 -14.2871 8.4082 -14.2871 C 7.80273 -14.2871 7.39258 -13.9941 7.17773 -13.3984 L 2.59766 -1.19141 C 2.51953 -0.976562 2.49023 -0.830078 2.49023 -0.664062 C 2.49023 -0.175781 2.80273 0.126953 3.31055 0.126953 Z M 6.00586 -5.53711 L 8.37891 -12.1094 L 8.42773 -12.1094 L 10.8008 -5.53711 Z"/>
  </g>
  <line id="" style="fill:none;stroke:#00AEEF;stroke-width:0.5;opacity:1.0;" x1="792.836" x2="792.836" y1="1919" y2="1933"/>
  <text style="stroke:none;fill:black;font-family:-apple-system,&quot;SF Pro Display&quot;,&quot;SF Pro Text&quot;,Helvetica,sans-serif;font-weight:bold;" transform="matrix(1 0 0 1 776 1953)">Margins</text>
  <text style="stroke:none;fill:black;font-family:-apple-system,&quot;SF Pro Display&quot;,&quot;SF Pro Text&quot;,Helvetica,sans-serif;" transform="matrix(1 0 0 1 776 1971)">Leading and trailing margins on the left and right side of each symbol</text>
  <text style="stroke:none;fill:black;font-family:-apple-system,&quot;SF Pro Display&quot;,&quot;SF Pro Text&quot;,Helvetica,sans-serif;" transform="matrix(1 0 0 1 776 1989)">can be adjusted by modifying the x-location of the margin guidelines.</text>
  <text style="stroke:none;fill:black;font-family:-apple-system,&quot;SF Pro Display&quot;,&quot;SF Pro Text&quot;,Helvetica,sans-serif;" transform="matrix(1 0 0 1 776 2007)">Modifications are automatically applied proportionally to all</text>
  <text style="stroke:none;fill:black;font-family:-apple-system,&quot;SF Pro Display&quot;,&quot;SF Pro Text&quot;,Helvetica,sans-serif;" transform="matrix(1 0 0 1 776 2025)">scales and weights.</text>
  <g id="" transform="matrix(1 0 0 1 1289 1933)">
   <path d="M 2.8418 1.86523 L 4.54102 3.57422 C 5.40039 4.44336 6.38672 4.38477 7.31445 3.35938 L 17.4902 -7.85156 C 17.7539 -7.76367 18.0273 -7.7832 18.3398 -7.8418 L 19.4043 -8.03711 L 20.0684 -7.36328 L 20.0293 -6.80664 C 19.9902 -6.30859 20.1172 -5.92773 20.6055 -5.44922 L 21.3672 -4.70703 C 21.8457 -4.22852 22.4609 -4.19922 22.9297 -4.66797 L 25.8398 -7.58789 C 26.3086 -8.05664 26.2891 -8.65234 25.8105 -9.13086 L 25.0391 -9.89258 C 24.5605 -10.3711 24.1895 -10.5273 23.7109 -10.4883 L 23.1348 -10.4395 L 22.4902 -11.0742 L 22.7344 -12.1973 C 22.8613 -12.7637 22.7051 -13.2031 22.1191 -13.7891 L 19.9219 -15.9766 C 16.582 -19.2969 12.1484 -19.2188 9.25781 -16.3281 C 8.83789 -15.918 8.80859 -15.3418 9.04297 -14.9512 C 9.27734 -14.5898 9.73633 -14.3555 10.3809 -14.5215 C 11.8457 -14.8633 13.3691 -14.9219 14.7949 -13.9844 L 14.209 -12.5293 C 14.0137 -12.0508 13.9844 -11.6504 14.1113 -11.2891 L 3.04688 -0.898438 C 2.06055 0.0195312 1.98242 0.996094 2.8418 1.86523 Z M 10.752 -15.957 C 13.1836 -17.7344 16.4746 -17.4316 18.7012 -15.2051 L 21.1328 -12.793 C 21.3672 -12.5586 21.4062 -12.373 21.3379 -12.0312 L 21.0156 -10.5469 L 22.5195 -9.0625 L 23.5059 -9.12109 C 23.7598 -9.13086 23.8379 -9.11133 24.0332 -8.91602 L 24.6094 -8.33984 L 22.168 -5.89844 L 21.5918 -6.47461 C 21.3965 -6.66992 21.3672 -6.74805 21.377 -7.01172 L 21.4453 -7.98828 L 19.9512 -9.47266 L 18.4277 -9.21875 C 18.1055 -9.15039 17.959 -9.17969 17.7148 -9.41406 L 15.7129 -11.416 C 15.459 -11.6504 15.4297 -11.8164 15.5859 -12.1875 L 16.4648 -14.2773 C 14.9023 -15.7324 12.8711 -16.3574 10.8398 -15.7617 C 10.6836 -15.7227 10.625 -15.8496 10.752 -15.957 Z M 5.27344 2.30469 L 4.10156 1.14258 C 3.63281 0.683594 3.74023 0.341797 4.14062 -0.0195312 L 14.9512 -10.1953 L 16.416 -8.71094 L 6.42578 2.27539 C 6.07422 2.67578 5.74219 2.77344 5.27344 2.30469 Z"/>
  </g>
  <text style="stroke:none;fill:black;font-family:-apple-system,&quot;SF Pro Display&quot;,&quot;SF Pro Text&quot;,Helvetica,sans-serif;font-weight:bold;" transform="matrix(1 0 0 1 1289 1953)">Exporting</text>
  <text style="stroke:none;fill:black;font-family:-apple-system,&quot;SF Pro Display&quot;,&quot;SF Pro Text&quot;,Helvetica,sans-serif;" transform="matrix(1 0 0 1 1289 1971)">Symbols should be outlined when exporting to ensure the</text>
  <text style="stroke:none;fill:black;font-family:-apple-system,&quot;SF Pro Display&quot;,&quot;SF Pro Text&quot;,Helvetica,sans-serif;" transform="matrix(1 0 0 1 1289 1989)">design is preserved when submitting to Xcode.</text>
  <text id="template-version" style="stroke:none;fill:black;font-family:-apple-system,&quot;SF Pro Display&quot;,&quot;SF Pro Text&quot;,Helvetica,sans-serif;text-anchor:end;" transform="matrix(1 0 0 1 3036 1933)">Template v.2.0</text>
  <text style="stroke:none;fill:black;font-family:-apple-system,&quot;SF Pro Display&quot;,&quot;SF Pro Text&quot;,Helvetica,sans-serif;text-anchor:end;" transform="matrix(1 0 0 1 3036 1951)">Requires Xcode 12 or greater</text>
  <text style="stroke:none;fill:black;font-family:-apple-system,&quot;SF Pro Display&quot;,&quot;SF Pro Text&quot;,Helvetica,sans-serif;text-anchor:end;" transform="matrix(1 0 0 1 3036 1969)">Generated from airplane</text>
  <text style="stroke:none;fill:black;font-family:-apple-system,&quot;SF Pro Display&quot;,&quot;SF Pro Text&quot;,Helvetica,sans-serif;text-anchor:end;" transform="matrix(1 0 0 1 3036 1987)">Typeset at 100 points</text>
  <text style="stroke:none;fill:black;font-family:-apple-system,&quot;SF Pro Display&quot;,&quot;SF Pro Text&quot;,Helvetica,sans-serif;" transform="matrix(1 0 0 1 263 726)">Small</text>
  <text style="stroke:none;fill:black;font-family:-apple-system,&quot;SF Pro Display&quot;,&quot;SF Pro Text&quot;,Helvetica,sans-serif;" transform="matrix(1 0 0 1 263 1156)">Medium</text>
  <text style="stroke:none;fill:black;font-family:-apple-system,&quot;SF Pro Display&quot;,&quot;SF Pro Text&quot;,Helvetica,sans-serif;" transform="matrix(1 0 0 1 263 1586)">Large</text>
 </g>
 <g id="Guides">
  <g id="H-reference" style="fill:#27AAE1;stroke:none;" transform="matrix(1 0 0 1 339 696)">
   <path d="M 0.976562 0 L 3.66211 0 L 12.9883 -24.4629 L 45.7031 -24.4629 L 55.0781 0 L 57.7148 0 L 30.6152 -70.459 L 28.125 -70.459 Z M 29.2969 -67.1387 L 29.3945 -67.1387 L 44.873 -26.709 L 13.8672 -26.709 Z"/>
  </g>
  <line id="Baseline-S" style="fill:none;stroke:#27AAE1;opacity:1;stroke-width:0.5;" x1="263" x2="3036" y1="696" y2="696"/>
  <line id="Capline-S" style="fill:none;stroke:#27AAE1;opacity:1;stroke-width:0.5;" x1="263" x2="3036" y1="625.541" y2="625.541"/>
  <g id="H-reference" style="fill:#27AAE1;stroke:none;" transform="matrix(1 0 0 1 339 1126)">
   <path d="M 0.976562 0 L 3.66211 0 L 12.9883 -24.4629 L 45.7031 -24.4629 L 55.0781 0 L 57.7148 0 L 30.6152 -70.459 L 28.125 -70.459 Z M 29.2969 -67.1387 L 29.3945 -67.1387 L 44.873 -26.709 L 13.8672 -26.709 Z"/>
  </g>
  <line id="Baseline-M" style="fill:none;stroke:#27AAE1;opacity:1;stroke-width:0.5;" x1="263" x2="3036" y1="1126" y2="1126"/>
  <line id="Capline-M" style="fill:none;stroke:#27AAE1;opacity:1;stroke-width:0.5;" x1="263" x2="3036" y1="1055.54" y2="1055.54"/>
  <g id="H-reference" style="fill:#27AAE1;stroke:none;" transform="matrix(1 0 0 1 339 1556)">
   <path d="M 0.976562 0 L 3.66211 0 L 12.9883 -24.4629 L 45.7031 -24.4629 L 55.0781 0 L 57.7148 0 L 30.6152 -70.459 L 28.125 -70.459 Z M 29.2969 -67.1387 L 29.3945 -67.1387 L 44.873 -26.709 L 13.8672 -26.709 Z"/>
  </g>
  <line id="Baseline-L" style="fill:none;stroke:#27AAE1;opacity:1;stroke-width:0.5;" x1="263" x2="3036" y1="1556" y2="1556"/>
  <line id="Capline-L" style="fill:none;stroke:#27AAE1;opacity:1;stroke-width:0.5;" x1="263" x2="3036" y1="1485.54" y2="1485.54"/>
  <line id="left-margin" style="fill:none;stroke:#00AEEF;stroke-width:0.5;opacity:1.0;" x1="1388.22" x2="1388.22" y1="1030.79" y2="1150.12"/>
  <line id="right-margin" style="fill:none;stroke:#00AEEF;stroke-width:0.5;opacity:1.0;" x1="1511.47" x2="1511.47" y1="1030.79" y2="1150.12"/>
 </g>
 <g id="Symbols">
  <g id="Black-L" transform="matrix(1 0 0 1 2844.85 1556)">
   <path d="M 169.678 -35.2539 C 169.629 -42.9688 159.229 -50.4395 145.41 -50.4395 L 117.92 -50.4395 C 114.307 -50.4395 113.037 -51.1719 110.791 -53.4668 L 66.4062 -99.9512 C 64.9414 -101.514 63.3301 -102.246 61.377 -102.246 L 50.8789 -102.246 C 49.2188 -102.246 48.1934 -100.732 49.0234 -98.9258 L 72.168 -50.5859 L 38.8672 -46.9727 L 26.9043 -66.7969 C 25.9766 -68.4082 24.4629 -69.1406 22.5098 -69.1406 L 19.3848 -69.1406 C 17.4316 -69.1406 16.0645 -67.7734 16.0645 -65.918 L 16.0645 -4.63867 C 16.0645 -2.73438 17.4316 -1.41602 19.3848 -1.41602 L 22.5098 -1.41602 C 24.4629 -1.41602 25.9766 -2.09961 26.9043 -3.71094 L 38.8672 -23.5352 L 72.168 -19.9219 L 49.0234 28.418 C 48.1934 30.1758 49.2188 31.6895 50.8789 31.6895 L 61.377 31.6895 C 63.3301 31.6895 64.9414 30.957 66.4062 29.4434 L 110.791 -17.041 C 113.037 -19.3359 114.307 -20.1172 117.92 -20.1172 L 145.41 -20.1172 C 159.229 -20.1172 169.629 -27.5879 169.678 -35.2539 Z"/>
  </g>
  <g id="Heavy-L" transform="matrix(1 0 0 1 2550.63 1556)">
   <path d="M 166.309 -35.2539 C 166.26 -42.8223 156.006 -49.7559 142.725 -49.7559 L 115.771 -49.7559 C 112.207 -49.7559 110.938 -50.4883 108.74 -52.7832 L 65.0879 -98.9258 C 63.6719 -100.439 62.0117 -101.172 60.1562 -101.172 L 50.4395 -101.172 C 48.7793 -101.172 47.8027 -99.6582 48.6328 -97.9492 L 71.2891 -49.9023 L 38.3301 -46.3379 L 26.5625 -66.2598 C 25.6348 -67.8711 24.2188 -68.5547 22.2656 -68.5547 L 19.1895 -68.5547 C 17.3828 -68.5547 16.0645 -67.2852 16.0645 -65.4785 L 16.0645 -5.0293 C 16.0645 -3.22266 17.3828 -1.95312 19.1895 -1.95312 L 22.2656 -1.95312 C 24.2188 -1.95312 25.6348 -2.68555 26.5625 -4.24805 L 38.3301 -24.2188 L 71.2891 -20.6543 L 48.6328 27.3926 C 47.8027 29.1504 48.7793 30.6152 50.4395 30.6152 L 60.1562 30.6152 C 62.0117 30.6152 63.6719 29.8828 65.0879 28.3691 L 108.74 -17.7734 C 110.938 -20.0684 112.207 -20.752 115.771 -20.752 L 142.725 -20.752 C 156.006 -20.752 166.26 -27.7344 166.309 -35.2539 Z"/>
  </g>
  <g id="Bold-L" transform="matrix(1 0 0 1 2256.73 1556)">
   <path d="M 162.549 -35.2539 C 162.549 -42.6758 152.393 -49.0234 139.648 -49.0234 L 113.33 -49.0234 C 109.814 -49.0234 108.545 -49.707 106.396 -52.002 L 63.623 -97.7539 C 62.207 -99.2188 60.5957 -100 58.7402 -100 L 49.9512 -100 C 48.291 -100 47.3145 -98.5352 48.1445 -96.7773 L 70.3125 -49.1211 L 37.7441 -45.5566 L 26.2207 -65.6738 C 25.293 -67.2363 23.9258 -67.9199 21.9727 -67.9199 L 19.043 -67.9199 C 17.2852 -67.9199 16.0645 -66.748 16.0645 -64.9902 L 16.0645 -5.51758 C 16.0645 -3.80859 17.2852 -2.63672 19.043 -2.63672 L 21.9727 -2.63672 C 23.9258 -2.63672 25.293 -3.32031 26.2207 -4.88281 L 37.7441 -24.9512 L 70.3125 -21.3867 L 48.1445 26.2695 C 47.3145 27.9785 48.291 29.4434 49.9512 29.4434 L 58.7402 29.4434 C 60.5957 29.4434 62.207 28.7109 63.623 27.1973 L 106.396 -18.5547 C 108.545 -20.8008 109.814 -21.4844 113.33 -21.4844 L 139.648 -21.4844 C 152.393 -21.4844 162.549 -27.832 162.549 -35.2539 Z"/>
  </g>
  <g id="Semibold-L" transform="matrix(1 0 0 1 1961.94 1556)">
   <path d="M 159.961 -35.2539 C 159.961 -42.5781 149.951 -48.5352 137.549 -48.5352 L 111.67 -48.5352 C 108.203 -48.5352 106.934 -49.1699 104.834 -51.4648 L 62.5977 -96.9727 C 61.2305 -98.4375 59.6191 -99.1699 57.8125 -99.1699 L 49.6094 -99.1699 C 47.9492 -99.1699 47.0215 -97.7051 47.8027 -95.9961 L 69.6289 -48.584 L 37.3535 -45.0684 L 25.9766 -65.2344 C 25.0488 -66.7969 23.7305 -67.4805 21.7773 -67.4805 L 18.8965 -67.4805 C 17.1875 -67.4805 16.0645 -66.3574 16.0645 -64.6484 L 16.0645 -5.85938 C 16.0645 -4.19922 17.1875 -3.07617 18.8965 -3.07617 L 21.7773 -3.07617 C 23.7305 -3.07617 25.0488 -3.75977 25.9766 -5.27344 L 37.3535 -25.4883 L 69.6289 -21.9238 L 47.8027 25.4883 C 47.0215 27.1973 47.9492 28.6621 49.6094 28.6621 L 57.8125 28.6621 C 59.6191 28.6621 61.2305 27.8809 62.5977 26.416 L 104.834 -19.0918 C 106.934 -21.3379 108.203 -22.0215 111.67 -22.0215 L 137.549 -22.0215 C 149.951 -22.0215 159.961 -27.9297 159.961 -35.2539 Z"/>
  </g>
  <g id="Medium-L" transform="matrix(1 0 0 1 1666.7 1556)">
   <path d="M 158.008 -35.2539 C 157.959 -42.5293 148.047 -48.1445 135.986 -48.1445 L 110.4 -48.1445 C 106.982 -48.1445 105.713 -48.7793 103.613 -51.0742 L 61.8164 -96.3379 C 60.498 -97.8027 58.8867 -98.5352 57.0801 -98.5352 L 49.3164 -98.5352 C 47.7051 -98.5352 46.7773 -97.1191 47.5586 -95.4102 L 69.1406 -48.1934 L 37.0605 -44.6777 L 25.7812 -64.9414 C 24.9023 -66.4551 23.6328 -67.1387 21.6309 -67.1387 L 18.7988 -67.1387 C 17.1387 -67.1387 16.0645 -66.0645 16.0645 -64.4043 L 16.0645 -6.15234 C 16.0645 -4.44336 17.1387 -3.41797 18.7988 -3.41797 L 21.6309 -3.41797 C 23.6328 -3.41797 24.9023 -4.10156 25.7812 -5.61523 L 37.0605 -25.8789 L 69.1406 -22.3633 L 47.5586 24.8535 C 46.7773 26.5625 47.7051 28.0273 49.3164 28.0273 L 57.0801 28.0273 C 58.8867 28.0273 60.498 27.2461 61.8164 25.7812 L 103.613 -19.4824 C 105.713 -21.7773 106.982 -22.3633 110.4 -22.3633 L 135.986 -22.3633 C 148.047 -22.3633 157.959 -28.0273 158.008 -35.2539 Z"/>
  </g>
  <g id="Regular-L" transform="matrix(1 0 0 1 1371.89 1556)">
   <path d="M 155.469 -35.2539 C 155.42 -42.4316 145.605 -47.6562 133.887 -47.6562 L 108.789 -47.6562 C 105.371 -47.6562 104.102 -48.2422 102.002 -50.5371 L 60.791 -95.5566 C 59.5215 -96.9727 57.9102 -97.7539 56.1523 -97.7539 L 48.9746 -97.7539 C 47.3633 -97.7539 46.4844 -96.3379 47.2656 -94.6289 L 68.457 -47.6562 L 36.6211 -44.1406 L 25.5371 -64.502 C 24.6582 -66.0156 23.4375 -66.6504 21.4355 -66.6504 L 18.7012 -66.6504 C 17.0898 -66.6504 16.0645 -65.7227 16.0645 -64.0625 L 16.0645 -6.44531 C 16.0645 -4.83398 17.0898 -3.85742 18.7012 -3.85742 L 21.4355 -3.85742 C 23.4375 -3.85742 24.6582 -4.54102 25.5371 -6.00586 L 36.6211 -26.3672 L 68.457 -22.8516 L 47.2656 24.1211 C 46.4844 25.7812 47.3633 27.1973 48.9746 27.1973 L 56.1523 27.1973 C 57.9102 27.1973 59.5215 26.416 60.791 25 L 102.002 -20.0195 C 104.102 -22.3145 105.371 -22.8516 108.789 -22.8516 L 133.887 -22.8516 C 145.605 -22.8516 155.42 -28.125 155.469 -35.2539 Z"/>
  </g>
  <g id="Light-L" transform="matrix(1 0 0 1 1077.33 1556)">
   <path d="M 151.904 -35.2539 C 151.855 -42.1875 142.383 -47.2168 131.055 -47.2168 L 106.348 -47.2168 C 103.076 -47.2168 101.855 -47.8027 99.8535 -50 L 60.1562 -93.3594 C 58.8867 -94.7266 57.3242 -95.5078 55.6641 -95.5078 L 48.7305 -95.5078 C 47.2168 -95.5078 46.3379 -94.1406 47.0703 -92.4805 L 67.5293 -47.2168 L 35.8887 -43.8965 L 25.1465 -63.5254 C 24.3164 -64.9414 23.1934 -65.5273 21.2891 -65.5273 L 18.5547 -65.5273 C 16.9922 -65.5273 16.0645 -64.6484 16.0645 -63.0859 L 16.0645 -7.4707 C 16.0645 -5.85938 16.9922 -4.98047 18.5547 -4.98047 L 21.2891 -4.98047 C 23.1934 -4.98047 24.3164 -5.61523 25.1465 -7.03125 L 35.8887 -26.6113 L 67.5293 -23.291 L 47.0703 21.9727 C 46.3379 23.584 47.2168 24.9512 48.7305 24.9512 L 55.6641 24.9512 C 57.3242 24.9512 58.8867 24.2188 60.1562 22.8027 L 99.8535 -20.5566 C 101.855 -22.7539 103.076 -23.291 106.348 -23.291 L 131.055 -23.291 C 142.383 -23.291 151.855 -28.3691 151.904 -35.2539 Z"/>
  </g>
  <g id="Thin-L" transform="matrix(1 0 0 1 783.449 1556)">
   <path d="M 147.119 -35.2539 C 147.119 -41.8457 138.086 -46.6797 127.344 -46.6797 L 103.125 -46.6797 C 100.049 -46.6797 98.877 -47.168 96.9238 -49.2676 L 59.2773 -90.4785 C 58.0566 -91.7969 56.5918 -92.5293 55.0293 -92.5293 L 48.4375 -92.5293 C 46.9727 -92.5293 46.1426 -91.2109 46.875 -89.6484 L 66.2598 -46.6797 L 34.9121 -43.5547 L 24.6582 -62.1582 C 23.8281 -63.4766 22.9004 -64.0625 21.0938 -64.0625 L 18.3594 -64.0625 C 16.8945 -64.0625 16.0645 -63.2812 16.0645 -61.7676 L 16.0645 -8.78906 C 16.0645 -7.22656 16.8945 -6.49414 18.3594 -6.49414 L 21.0938 -6.49414 C 22.9004 -6.49414 23.8281 -7.08008 24.6582 -8.39844 L 34.9121 -26.9531 L 66.2598 -23.877 L 46.875 19.1406 C 46.1426 20.6543 46.9727 21.9727 48.4375 21.9727 L 55.0293 21.9727 C 56.5918 21.9727 58.0566 21.2402 59.2773 19.9219 L 96.9238 -21.2402 C 98.877 -23.3887 100.049 -23.877 103.125 -23.877 L 127.344 -23.877 C 138.086 -23.877 147.119 -28.6621 147.119 -35.2539 Z"/>
  </g>
  <g id="Ultralight-L" transform="matrix(1 0 0 1 488.202 1556)">
   <path d="M 144.727 -35.2539 C 144.727 -41.6992 135.889 -46.3867 125.391 -46.3867 L 101.514 -46.3867 C 98.4863 -46.3867 97.3633 -46.875 95.459 -48.9258 L 58.7891 -89.0137 C 57.6172 -90.2832 56.2012 -90.9668 54.6875 -90.9668 L 48.2422 -90.9668 C 46.8262 -90.9668 46.0449 -89.6973 46.7285 -88.2324 L 65.625 -46.3867 L 34.4238 -43.4082 L 24.4141 -61.4746 C 23.6328 -62.7441 22.7539 -63.2812 21.0449 -63.2812 L 18.3105 -63.2812 C 16.8457 -63.2812 16.0645 -62.5977 16.0645 -61.084 L 16.0645 -9.47266 C 16.0645 -7.95898 16.8457 -7.22656 18.3105 -7.22656 L 21.0449 -7.22656 C 22.7539 -7.22656 23.6328 -7.8125 24.4141 -9.08203 L 34.4238 -27.1484 L 65.625 -24.1699 L 46.7285 17.6758 C 46.0449 19.1895 46.8262 20.459 48.2422 20.459 L 54.6875 20.459 C 56.2012 20.459 57.6172 19.7266 58.7891 18.457 L 95.459 -21.6309 C 97.3633 -23.6816 98.4863 -24.1699 101.514 -24.1699 L 125.391 -24.1699 C 135.889 -24.1699 144.727 -28.8574 144.727 -35.2539 Z"/>
  </g>
  <g id="Black-M" transform="matrix(1 0 0 1 2862.55 1126)">
   <path d="M 134.082 -35.2539 C 134.082 -41.2598 125.977 -47.6562 114.844 -47.6562 L 93.0176 -47.6562 C 90.1855 -47.6562 89.2578 -48.291 87.5 -50 L 52.9297 -85.6445 C 51.709 -86.8164 50.4883 -87.4023 48.9746 -87.4023 L 39.9414 -87.4023 C 38.623 -87.4023 37.793 -86.1816 38.4766 -84.8145 L 56.5918 -47.8516 L 30.4199 -45.1172 L 21.0938 -59.9121 C 20.3125 -61.1328 19.1406 -61.7188 17.7246 -61.7188 L 15.1367 -61.7188 C 13.5742 -61.7188 12.4512 -60.5957 12.4512 -59.082 L 12.4512 -11.4258 C 12.4512 -9.96094 13.5742 -8.83789 15.1367 -8.83789 L 17.7246 -8.83789 C 19.1406 -8.83789 20.3125 -9.375 21.0938 -10.6445 L 30.4199 -25.3906 L 56.5918 -22.6562 L 38.4766 14.3066 C 37.793 15.6738 38.623 16.8457 39.9414 16.8457 L 48.9746 16.8457 C 50.4883 16.8457 51.709 16.3086 52.9297 15.1367 L 87.5 -20.5078 C 89.2578 -22.2168 90.1855 -22.8516 93.0176 -22.8516 L 114.844 -22.8516 C 125.977 -22.8516 134.082 -29.2969 134.082 -35.2539 Z"/>
  </g>
  <g id="Heavy-M" transform="matrix(1 0 0 1 2568.01 1126)">
   <path d="M 131.348 -35.2539 C 131.348 -41.1621 123.34 -47.0703 112.598 -47.0703 L 91.2598 -47.0703 C 88.4766 -47.0703 87.5488 -47.6562 85.791 -49.4141 L 51.6113 -85.0586 C 50.4883 -86.2305 49.2188 -86.8164 47.7539 -86.8164 L 39.502 -86.8164 C 38.1836 -86.8164 37.4023 -85.6445 38.0859 -84.2773 L 55.8594 -47.2168 L 30.0781 -44.4336 L 20.8496 -59.5703 C 20.1172 -60.791 18.9453 -61.377 17.4805 -61.377 L 14.9902 -61.377 C 13.5254 -61.377 12.4512 -60.3027 12.4512 -58.8379 L 12.4512 -11.6699 C 12.4512 -10.2051 13.5254 -9.17969 14.9902 -9.17969 L 17.4805 -9.17969 C 18.9453 -9.17969 20.1172 -9.7168 20.8496 -10.9375 L 30.0781 -26.0742 L 55.8594 -23.3398 L 38.0859 13.7695 C 37.4023 15.1367 38.1836 16.3086 39.502 16.3086 L 47.7539 16.3086 C 49.2188 16.3086 50.4883 15.7227 51.6113 14.5508 L 85.791 -21.1426 C 87.5488 -22.9004 88.4766 -23.4863 91.2598 -23.4863 L 112.598 -23.4863 C 123.34 -23.4863 131.348 -29.3457 131.348 -35.2539 Z"/>
  </g>
  <g id="Bold-M" transform="matrix(1 0 0 1 2273.74 1126)">
   <path d="M 128.32 -35.2539 C 128.271 -41.1133 120.312 -46.3867 110.107 -46.3867 L 89.3555 -46.3867 C 86.5723 -46.3867 85.5957 -46.9238 83.8867 -48.7305 L 50.1953 -84.4238 C 49.0723 -85.5957 47.8516 -86.1816 46.3867 -86.1816 L 39.0137 -86.1816 C 37.7441 -86.1816 36.9629 -85.0098 37.5977 -83.6426 L 55.0781 -46.4844 L 29.6387 -43.7012 L 20.5566 -59.1797 C 19.8242 -60.4004 18.7012 -60.9863 17.1875 -60.9863 L 14.8438 -60.9863 C 13.4277 -60.9863 12.4512 -60.0098 12.4512 -58.5938 L 12.4512 -11.9141 C 12.4512 -10.498 13.4277 -9.57031 14.8438 -9.57031 L 17.1875 -9.57031 C 18.7012 -9.57031 19.8242 -10.1074 20.5566 -11.3281 L 29.6387 -26.8066 L 55.0781 -24.0234 L 37.5977 13.1348 C 36.9629 14.502 37.7441 15.6738 39.0137 15.6738 L 46.3867 15.6738 C 47.8516 15.6738 49.0723 15.0879 50.1953 13.916 L 83.8867 -21.8262 C 85.5957 -23.584 86.5723 -24.1211 89.3555 -24.1211 L 110.107 -24.1211 C 120.312 -24.1211 128.271 -29.4434 128.32 -35.2539 Z"/>
  </g>
  <g id="Semibold-M" transform="matrix(1 0 0 1 1978.69 1126)">
   <path d="M 126.221 -35.2539 C 126.172 -41.0156 118.262 -45.8984 108.398 -45.8984 L 87.9883 -45.8984 C 85.2539 -45.8984 84.2773 -46.4355 82.5684 -48.2422 L 49.2188 -83.9844 C 48.1445 -85.1562 46.875 -85.7422 45.4102 -85.7422 L 38.6719 -85.7422 C 37.4023 -85.7422 36.6211 -84.5703 37.2559 -83.252 L 54.541 -45.9961 L 29.3457 -43.2129 L 20.3125 -58.9355 C 19.6289 -60.1562 18.5547 -60.6934 16.9922 -60.6934 L 14.7461 -60.6934 C 13.3789 -60.6934 12.4512 -59.8145 12.4512 -58.4473 L 12.4512 -12.0605 C 12.4512 -10.7422 13.3789 -9.81445 14.7461 -9.81445 L 16.9922 -9.81445 C 18.5547 -9.81445 19.6289 -10.3516 20.3125 -11.5723 L 29.3457 -27.3438 L 54.541 -24.5605 L 37.2559 12.6953 C 36.6211 14.0625 37.4023 15.2344 38.6719 15.2344 L 45.4102 15.2344 C 46.875 15.2344 48.1445 14.5996 49.2188 13.4766 L 82.5684 -22.3145 C 84.2773 -24.0723 85.2539 -24.6094 87.9883 -24.6094 L 108.398 -24.6094 C 118.262 -24.6094 126.172 -29.4922 126.221 -35.2539 Z"/>
  </g>
  <g id="Medium-M" transform="matrix(1 0 0 1 1683.27 1126)">
   <path d="M 124.609 -35.2539 C 124.561 -41.0156 116.699 -45.5566 107.08 -45.5566 L 87.0117 -45.5566 C 84.2773 -45.5566 83.252 -46.0449 81.5918 -47.8516 L 48.4863 -83.6426 C 47.4121 -84.8145 46.1426 -85.4004 44.7266 -85.4004 L 38.4277 -85.4004 C 37.1582 -85.4004 36.4258 -84.2285 37.0117 -82.9102 L 54.1504 -45.6055 L 29.1016 -42.8223 L 20.166 -58.7402 C 19.4824 -59.9609 18.457 -60.498 16.8457 -60.498 L 14.6484 -60.498 C 13.3301 -60.498 12.4512 -59.6191 12.4512 -58.3008 L 12.4512 -12.207 C 12.4512 -10.8887 13.3301 -10.0098 14.6484 -10.0098 L 16.8457 -10.0098 C 18.457 -10.0098 19.4824 -10.5469 20.166 -11.7676 L 29.1016 -27.7344 L 54.1504 -24.9023 L 37.0117 12.4023 C 36.4258 13.7207 37.1582 14.8926 38.4277 14.8926 L 44.7266 14.8926 C 46.1426 14.8926 47.4121 14.2578 48.4863 13.1348 L 81.5918 -22.6562 C 83.252 -24.4629 84.2773 -24.9512 87.0117 -24.9512 L 107.08 -24.9512 C 116.699 -24.9512 124.561 -29.541 124.609 -35.2539 Z"/>
  </g>
  <g id="Regular-M" transform="matrix(1 0 0 1 1388.22 1126)">
   <path d="M 122.51 -35.2539 C 122.461 -40.9668 114.697 -45.1172 105.371 -45.1172 L 85.6934 -45.1172 C 82.959 -45.1172 81.9336 -45.5566 80.3223 -47.4121 L 47.5098 -83.2031 C 46.4844 -84.375 45.2148 -84.9609 43.75 -84.9609 L 38.0859 -84.9609 C 36.8164 -84.9609 36.084 -83.8379 36.7188 -82.4707 L 53.6133 -45.1172 L 28.8086 -42.2852 L 19.9707 -58.4961 C 19.3359 -59.7168 18.2617 -60.2539 16.6504 -60.2539 L 14.5508 -60.2539 C 13.2812 -60.2539 12.4512 -59.4238 12.4512 -58.1543 L 12.4512 -12.3535 C 12.4512 -11.084 13.2812 -10.3027 14.5508 -10.3027 L 16.6504 -10.3027 C 18.2617 -10.3027 19.3359 -10.8398 19.9707 -12.0117 L 28.8086 -28.2227 L 53.6133 -25.3906 L 36.7188 11.9629 C 36.084 13.2812 36.8164 14.4531 38.0859 14.4531 L 43.75 14.4531 C 45.2148 14.4531 46.4844 13.8184 47.5098 12.6953 L 80.3223 -23.1445 C 81.9336 -24.9512 82.959 -25.3906 85.6934 -25.3906 L 105.371 -25.3906 C 114.697 -25.3906 122.461 -29.5898 122.51 -35.2539 Z"/>
  </g>
  <g id="Light-M" transform="matrix(1 0 0 1 1093.42 1126)">
   <path d="M 119.287 -35.2539 C 119.287 -40.7227 111.768 -44.7266 102.832 -44.7266 L 83.4961 -44.7266 C 80.9082 -44.7266 79.9316 -45.166 78.3203 -46.9238 L 46.9238 -81.25 C 45.8984 -82.373 44.6777 -82.959 43.3594 -82.959 L 37.8906 -82.959 C 36.6699 -82.959 35.9863 -81.8359 36.5723 -80.5664 L 52.7344 -44.7266 L 28.1738 -42.0898 L 19.6777 -57.6172 C 18.9941 -58.7402 18.0664 -59.2285 16.5527 -59.2285 L 14.4531 -59.2285 C 13.2324 -59.2285 12.4512 -58.4961 12.4512 -57.2754 L 12.4512 -13.2812 C 12.4512 -12.0117 13.2324 -11.2793 14.4531 -11.2793 L 16.5527 -11.2793 C 18.0664 -11.2793 18.9941 -11.8164 19.6777 -12.9395 L 28.1738 -28.4668 L 52.7344 -25.7812 L 36.5723 10.0586 C 35.9863 11.3281 36.6699 12.4023 37.8906 12.4023 L 43.3594 12.4023 C 44.6777 12.4023 45.8984 11.8164 46.9238 10.7422 L 78.3203 -23.584 C 79.9316 -25.3418 80.9082 -25.7812 83.4961 -25.7812 L 102.832 -25.7812 C 111.768 -25.7812 119.287 -29.7852 119.287 -35.2539 Z"/>
  </g>
  <g id="Thin-M" transform="matrix(1 0 0 1 799.269 1126)">
   <path d="M 115.039 -35.2539 C 115.039 -40.4297 107.959 -44.2383 99.5117 -44.2383 L 80.6152 -44.2383 C 78.1738 -44.2383 77.2949 -44.6289 75.7324 -46.2891 L 46.0938 -78.6621 C 45.166 -79.6875 43.9941 -80.2734 42.7734 -80.2734 L 37.5977 -80.2734 C 36.4258 -80.2734 35.791 -79.248 36.377 -78.0273 L 51.6113 -44.2383 L 27.2949 -41.748 L 19.2383 -56.3965 C 18.6035 -57.4219 17.8223 -57.9102 16.4062 -57.9102 L 14.2578 -57.9102 C 13.1348 -57.9102 12.4512 -57.2754 12.4512 -56.0547 L 12.4512 -14.4531 C 12.4512 -13.2324 13.1348 -12.6465 14.2578 -12.6465 L 16.4062 -12.6465 C 17.8223 -12.6465 18.6035 -13.0859 19.2383 -14.1113 L 27.2949 -28.7598 L 51.6113 -26.3184 L 36.377 7.51953 C 35.791 8.74023 36.4258 9.76562 37.5977 9.76562 L 42.7734 9.76562 C 43.9941 9.76562 45.166 9.17969 46.0938 8.1543 L 75.7324 -24.2188 C 77.2949 -25.9277 78.1738 -26.3184 80.6152 -26.3184 L 99.5117 -26.3184 C 107.959 -26.3184 115.039 -30.0781 115.039 -35.2539 Z"/>
  </g>
  <g id="Ultralight-M" transform="matrix(1 0 0 1 503.852 1126)">
   <path d="M 112.891 -35.2539 C 112.891 -40.2832 105.957 -43.9453 97.7539 -43.9453 L 79.1504 -43.9453 C 76.8066 -43.9453 75.9277 -44.3359 74.4141 -45.9473 L 45.7031 -77.3438 C 44.7754 -78.3203 43.6523 -78.9062 42.4805 -78.9062 L 37.4512 -78.9062 C 36.3281 -78.9062 35.6934 -77.9297 36.2793 -76.709 L 51.0742 -43.9453 L 26.8066 -41.6016 L 18.9941 -55.7617 C 18.3594 -56.7871 17.6758 -57.2266 16.3086 -57.2266 L 14.209 -57.2266 C 13.0859 -57.2266 12.4512 -56.6406 12.4512 -55.4688 L 12.4512 -15.0391 C 12.4512 -13.8672 13.0859 -13.3301 14.209 -13.3301 L 16.3086 -13.3301 C 17.6758 -13.3301 18.3594 -13.7695 18.9941 -14.7461 L 26.8066 -28.9062 L 51.0742 -26.5625 L 36.2793 6.20117 C 35.6934 7.37305 36.3281 8.39844 37.4512 8.39844 L 42.4805 8.39844 C 43.6523 8.39844 44.7754 7.8125 45.7031 6.83594 L 74.4141 -24.5605 C 75.9277 -26.1719 76.8066 -26.5625 79.1504 -26.5625 L 97.7539 -26.5625 C 105.957 -26.5625 112.891 -30.2246 112.891 -35.2539 Z"/>
  </g>
  <g id="Black-S" transform="matrix(1 0 0 1 2878.03 696)">
   <path d="M 104.883 -35.2539 C 104.883 -39.9414 98.5352 -44.9219 89.8438 -44.9219 L 72.7539 -44.9219 C 70.5566 -44.9219 69.8242 -45.4102 68.457 -46.7773 L 41.3574 -74.707 C 40.4297 -75.6348 39.4531 -76.0742 38.2812 -76.0742 L 31.25 -76.0742 C 30.2246 -76.0742 29.5898 -75.1465 30.127 -74.0723 L 44.2871 -45.0684 L 23.8281 -42.9199 L 16.5039 -54.541 C 15.918 -55.5176 14.9902 -55.957 13.8672 -55.957 L 11.8652 -55.957 C 10.6445 -55.957 9.76562 -55.0781 9.76562 -53.9062 L 9.76562 -16.6016 C 9.76562 -15.4297 10.6445 -14.5508 11.8652 -14.5508 L 13.8672 -14.5508 C 14.9902 -14.5508 15.918 -14.9902 16.5039 -15.9668 L 23.8281 -27.5879 L 44.2871 -25.4395 L 30.127 3.56445 C 29.5898 4.63867 30.2246 5.56641 31.25 5.56641 L 38.2812 5.56641 C 39.4531 5.56641 40.4297 5.12695 41.3574 4.19922 L 68.457 -23.7305 C 69.8242 -25.0977 70.5566 -25.5859 72.7539 -25.5859 L 89.8438 -25.5859 C 98.5352 -25.5859 104.883 -30.5664 104.883 -35.2539 Z"/>
  </g>
  <g id="Heavy-S" transform="matrix(1 0 0 1 2582.78 696)">
   <path d="M 103.174 -35.2539 C 103.125 -39.8926 96.8262 -44.4824 88.4277 -44.4824 L 71.6797 -44.4824 C 69.4824 -44.4824 68.7012 -44.9707 67.3828 -46.3379 L 40.4297 -74.4629 C 39.5508 -75.3906 38.5742 -75.8789 37.4023 -75.8789 L 30.957 -75.8789 C 29.9316 -75.8789 29.2969 -74.9512 29.834 -73.877 L 43.8477 -44.6289 L 23.584 -42.4316 L 16.3574 -54.3945 C 15.7715 -55.3711 14.8438 -55.8105 13.6719 -55.8105 L 11.7676 -55.8105 C 10.5957 -55.8105 9.76562 -54.9805 9.76562 -53.8574 L 9.76562 -16.6504 C 9.76562 -15.5273 10.5957 -14.6973 11.7676 -14.6973 L 13.6719 -14.6973 C 14.8438 -14.6973 15.7715 -15.1367 16.3574 -16.1133 L 23.584 -28.0762 L 43.8477 -25.8789 L 29.834 3.36914 C 29.2969 4.44336 29.9316 5.37109 30.957 5.37109 L 37.4023 5.37109 C 38.5742 5.37109 39.5508 4.88281 40.4297 3.95508 L 67.3828 -24.1699 C 68.7012 -25.5371 69.4824 -26.0254 71.6797 -26.0254 L 88.4277 -26.0254 C 96.8262 -26.0254 103.125 -30.6152 103.174 -35.2539 Z"/>
  </g>
  <g id="Bold-S" transform="matrix(1 0 0 1 2287.68 696)">
   <path d="M 101.221 -35.2539 C 101.172 -39.8926 94.873 -44.043 86.8164 -44.043 L 70.459 -44.043 C 68.2617 -44.043 67.4805 -44.4824 66.1621 -45.8984 L 39.4531 -74.2188 C 38.5742 -75.1465 37.5488 -75.6348 36.377 -75.6348 L 30.6152 -75.6348 C 29.5898 -75.6348 28.9551 -74.707 29.4922 -73.6328 L 43.3594 -44.0918 L 23.3398 -41.8945 L 16.1621 -54.248 C 15.625 -55.1758 14.6973 -55.6152 13.4766 -55.6152 L 11.6699 -55.6152 C 10.5469 -55.6152 9.76562 -54.8828 9.76562 -53.7598 L 9.76562 -16.748 C 9.76562 -15.625 10.5469 -14.8926 11.6699 -14.8926 L 13.4766 -14.8926 C 14.6973 -14.8926 15.625 -15.332 16.1621 -16.2598 L 23.3398 -28.6133 L 43.3594 -26.416 L 29.4922 3.125 C 28.9551 4.19922 29.5898 5.12695 30.6152 5.12695 L 36.377 5.12695 C 37.5488 5.12695 38.5742 4.63867 39.4531 3.71094 L 66.1621 -24.6094 C 67.4805 -26.0254 68.2617 -26.4648 70.459 -26.4648 L 86.8164 -26.4648 C 94.873 -26.4648 101.172 -30.6152 101.221 -35.2539 Z"/>
  </g>
  <g id="Semibold-S" transform="matrix(1 0 0 1 1992.09 696)">
   <path d="M 99.9023 -35.2539 C 99.8535 -39.8438 93.5547 -43.7012 85.6934 -43.7012 L 69.6289 -43.7012 C 67.4316 -43.7012 66.6504 -44.1406 65.332 -45.5566 L 38.7207 -74.0723 C 37.8906 -75 36.8652 -75.4395 35.6934 -75.4395 L 30.3711 -75.4395 C 29.3457 -75.4395 28.7598 -74.5605 29.248 -73.4863 L 43.0176 -43.75 L 23.1934 -41.5527 L 16.0156 -54.1016 C 15.4785 -55.0781 14.5996 -55.5176 13.3789 -55.5176 L 11.5723 -55.5176 C 10.498 -55.5176 9.76562 -54.7852 9.76562 -53.7109 L 9.76562 -16.7969 C 9.76562 -15.7227 10.498 -14.9902 11.5723 -14.9902 L 13.3789 -14.9902 C 14.5996 -14.9902 15.4785 -15.4297 16.0156 -16.4062 L 23.1934 -28.9551 L 43.0176 -26.7578 L 29.248 2.97852 C 28.7598 4.05273 29.3457 4.93164 30.3711 4.93164 L 35.6934 4.93164 C 36.8652 4.93164 37.8906 4.49219 38.7207 3.56445 L 65.332 -24.9512 C 66.6504 -26.3672 67.4316 -26.8066 69.6289 -26.8066 L 85.6934 -26.8066 C 93.5547 -26.8066 99.8535 -30.6641 99.9023 -35.2539 Z"/>
  </g>
  <g id="Medium-S" transform="matrix(1 0 0 1 1696.24 696)">
   <path d="M 98.877 -35.2539 C 98.8281 -39.8438 92.5781 -43.457 84.8633 -43.457 L 68.9941 -43.457 C 66.7969 -43.457 66.0156 -43.8965 64.6973 -45.3125 L 38.1836 -73.9258 C 37.3535 -74.8535 36.3281 -75.3418 35.2051 -75.3418 L 30.1758 -75.3418 C 29.1504 -75.3418 28.5645 -74.4141 29.0527 -73.3398 L 42.7246 -43.5059 L 23.0469 -41.2598 L 15.918 -54.0039 C 15.3809 -54.9805 14.502 -55.4199 13.2324 -55.4199 L 11.5234 -55.4199 C 10.498 -55.4199 9.76562 -54.7363 9.76562 -53.6621 L 9.76562 -16.8457 C 9.76562 -15.7715 10.498 -15.0879 11.5234 -15.0879 L 13.2324 -15.0879 C 14.502 -15.0879 15.3809 -15.5273 15.918 -16.5039 L 23.0469 -29.248 L 42.7246 -27.002 L 29.0527 2.83203 C 28.5645 3.90625 29.1504 4.83398 30.1758 4.83398 L 35.2051 4.83398 C 36.3281 4.83398 37.3535 4.3457 38.1836 3.41797 L 64.6973 -25.1953 C 66.0156 -26.6113 66.7969 -27.0508 68.9941 -27.0508 L 84.8633 -27.0508 C 92.5781 -27.0508 98.8281 -30.6641 98.877 -35.2539 Z"/>
  </g>
  <g id="Regular-S" transform="matrix(1 0 0 1 1400.63 696)">
   <path d="M 97.5586 -35.2539 C 97.5098 -39.7949 91.2598 -43.1641 83.7891 -43.1641 L 68.1641 -43.1641 C 65.9668 -43.1641 65.1855 -43.5547 63.8672 -44.9707 L 37.5 -73.7793 C 36.6699 -74.707 35.6445 -75.1953 34.5215 -75.1953 L 29.9316 -75.1953 C 28.9062 -75.1953 28.3691 -74.2676 28.8574 -73.1934 L 42.3828 -43.1641 L 22.9004 -40.8691 L 15.8203 -53.9062 C 15.2832 -54.8828 14.4043 -55.3223 13.1348 -55.3223 L 11.4746 -55.3223 C 10.4492 -55.3223 9.76562 -54.6387 9.76562 -53.6133 L 9.76562 -16.8945 C 9.76562 -15.8691 10.4492 -15.1855 11.4746 -15.1855 L 13.1348 -15.1855 C 14.4043 -15.1855 15.2832 -15.625 15.8203 -16.6016 L 22.9004 -29.6387 L 42.3828 -27.3438 L 28.8574 2.68555 C 28.3691 3.75977 28.9062 4.6875 29.9316 4.6875 L 34.5215 4.6875 C 35.6445 4.6875 36.6699 4.19922 37.5 3.27148 L 63.8672 -25.5371 C 65.1855 -26.9531 65.9668 -27.3438 68.1641 -27.3438 L 83.7891 -27.3438 C 91.2598 -27.3438 97.5098 -30.7129 97.5586 -35.2539 Z"/>
  </g>
  <g id="Light-S" transform="matrix(1 0 0 1 1105.62 696)">
   <path d="M 94.7266 -35.2539 C 94.6777 -39.5996 88.6719 -42.8223 81.543 -42.8223 L 66.2598 -42.8223 C 64.1602 -42.8223 63.3789 -43.1641 62.1094 -44.5801 L 36.9629 -72.0215 C 36.1816 -72.9004 35.2051 -73.3887 34.1309 -73.3887 L 29.7363 -73.3887 C 28.7598 -73.3887 28.2227 -72.5098 28.7109 -71.4844 L 41.6504 -42.8223 L 22.3145 -40.6738 L 15.5273 -53.125 C 14.9902 -54.0039 14.2578 -54.3945 13.0371 -54.3945 L 11.377 -54.3945 C 10.4004 -54.3945 9.76562 -53.8086 9.76562 -52.832 L 9.76562 -17.6758 C 9.76562 -16.6992 10.4004 -16.1133 11.377 -16.1133 L 13.0371 -16.1133 C 14.2578 -16.1133 14.9902 -16.5039 15.5273 -17.3828 L 22.3145 -29.834 L 41.6504 -27.6855 L 28.7109 0.976562 C 28.2227 2.00195 28.7598 2.88086 29.7363 2.88086 L 34.1309 2.88086 C 35.2051 2.88086 36.1816 2.39258 36.9629 1.51367 L 62.1094 -25.9277 C 63.3789 -27.3438 64.1602 -27.6855 66.2598 -27.6855 L 81.543 -27.6855 C 88.6719 -27.6855 94.6777 -30.9082 94.7266 -35.2539 Z"/>
  </g>
  <g id="Thin-S" transform="matrix(1 0 0 1 811.159 696)">
   <path d="M 90.9668 -35.2539 C 90.918 -39.3555 85.3027 -42.3828 78.5645 -42.3828 L 63.7207 -42.3828 C 61.7676 -42.3828 61.0352 -42.6758 59.8633 -43.9941 L 36.2793 -69.7754 C 35.5469 -70.5566 34.6191 -71.0449 33.6426 -71.0449 L 29.4922 -71.0449 C 28.6133 -71.0449 28.0762 -70.2148 28.5156 -69.2383 L 40.6738 -42.3828 L 21.5332 -40.4297 L 15.1367 -52.0508 C 14.6484 -52.8809 14.0137 -53.2227 12.8906 -53.2227 L 11.2305 -53.2227 C 10.3027 -53.2227 9.76562 -52.7344 9.76562 -51.8066 L 9.76562 -18.7012 C 9.76562 -17.7734 10.3027 -17.2852 11.2305 -17.2852 L 12.8906 -17.2852 C 14.0137 -17.2852 14.6484 -17.627 15.1367 -18.457 L 21.5332 -30.0781 L 40.6738 -28.125 L 28.5156 -1.26953 C 28.0762 -0.292969 28.6133 0.537109 29.4922 0.537109 L 33.6426 0.537109 C 34.6191 0.537109 35.5469 0.0488281 36.2793 -0.732422 L 59.8633 -26.5137 C 61.0352 -27.832 61.7676 -28.125 63.7207 -28.125 L 78.5645 -28.125 C 85.3027 -28.125 90.918 -31.1523 90.9668 -35.2539 Z"/>
  </g>
  <g id="Ultralight-S" transform="matrix(1 0 0 1 515.595 696)">
   <path d="M 89.0137 -35.2539 C 89.0137 -39.2578 83.5449 -42.1387 77.0508 -42.1387 L 62.4023 -42.1387 C 60.5469 -42.1387 59.8633 -42.4316 58.6914 -43.7012 L 35.9375 -68.6035 C 35.2051 -69.3848 34.2773 -69.8242 33.3496 -69.8242 L 29.3945 -69.8242 C 28.4668 -69.8242 27.9785 -69.043 28.418 -68.0664 L 40.1367 -42.1387 L 21.1426 -40.2832 L 14.9414 -51.5137 C 14.4531 -52.2949 13.916 -52.6367 12.793 -52.6367 L 11.1328 -52.6367 C 10.2539 -52.6367 9.76562 -52.1973 9.76562 -51.2695 L 9.76562 -19.2383 C 9.76562 -18.3105 10.2539 -17.8711 11.1328 -17.8711 L 12.793 -17.8711 C 13.916 -17.8711 14.4531 -18.2129 14.9414 -18.9941 L 21.1426 -30.2246 L 40.1367 -28.3691 L 28.418 -2.44141 C 27.9785 -1.46484 28.4668 -0.683594 29.3945 -0.683594 L 33.3496 -0.683594 C 34.2773 -0.683594 35.2051 -1.12305 35.9375 -1.9043 L 58.6914 -26.8066 C 59.8633 -28.0762 60.5469 -28.3691 62.4023 -28.3691 L 77.0508 -28.3691 C 83.5449 -28.3691 89.0137 -31.25 89.0137 -35.2539 Z"/>
  </g>
 </g>
</svg>
