<?xml version="1.0" encoding="UTF-8"?>
<!--Generator: Apple Native CoreSVG 129-->
<!DOCTYPE svg
PUBLIC "-//W3C//DTD SVG 1.1//EN"
       "http://www.w3.org/Graphics/SVG/1.1/DTD/svg11.dtd">
<svg version="1.1" xmlns="http://www.w3.org/2000/svg" xmlns:xlink="http://www.w3.org/1999/xlink" width="3300" height="2200">
 <!--glyph: "uni1009F5.medium", point size: 100.000000, font version: "Version 16.0d9e1", template writer version: "8"-->
 <g id="Notes">
  <rect height="2200" id="artboard" style="fill:white;opacity:1" width="3300" x="0" y="0"/>
  <line id="" style="fill:none;stroke:black;opacity:1;stroke-width:0.5;" x1="263" x2="3036" y1="292" y2="292"/>
  <text style="stroke:none;fill:black;font-family:-apple-system,&quot;SF Pro Display&quot;,&quot;SF Pro Text&quot;,Helvetica,sans-serif;font-weight:bold;" transform="matrix(1 0 0 1 263 322)">Weight/Scale Variations</text>
  <text style="stroke:none;fill:black;font-family:-apple-system,&quot;SF Pro Display&quot;,&quot;SF Pro Text&quot;,Helvetica,sans-serif;text-anchor:middle;" transform="matrix(1 0 0 1 559.711 322)">Ultralight</text>
  <text style="stroke:none;fill:black;font-family:-apple-system,&quot;SF Pro Display&quot;,&quot;SF Pro Text&quot;,Helvetica,sans-serif;text-anchor:middle;" transform="matrix(1 0 0 1 856.422 322)">Thin</text>
  <text style="stroke:none;fill:black;font-family:-apple-system,&quot;SF Pro Display&quot;,&quot;SF Pro Text&quot;,Helvetica,sans-serif;text-anchor:middle;" transform="matrix(1 0 0 1 1153.13 322)">Light</text>
  <text style="stroke:none;fill:black;font-family:-apple-system,&quot;SF Pro Display&quot;,&quot;SF Pro Text&quot;,Helvetica,sans-serif;text-anchor:middle;" transform="matrix(1 0 0 1 1449.84 322)">Regular</text>
  <text style="stroke:none;fill:black;font-family:-apple-system,&quot;SF Pro Display&quot;,&quot;SF Pro Text&quot;,Helvetica,sans-serif;text-anchor:middle;" transform="matrix(1 0 0 1 1746.56 322)">Medium</text>
  <text style="stroke:none;fill:black;font-family:-apple-system,&quot;SF Pro Display&quot;,&quot;SF Pro Text&quot;,Helvetica,sans-serif;text-anchor:middle;" transform="matrix(1 0 0 1 2043.27 322)">Semibold</text>
  <text style="stroke:none;fill:black;font-family:-apple-system,&quot;SF Pro Display&quot;,&quot;SF Pro Text&quot;,Helvetica,sans-serif;text-anchor:middle;" transform="matrix(1 0 0 1 2339.98 322)">Bold</text>
  <text style="stroke:none;fill:black;font-family:-apple-system,&quot;SF Pro Display&quot;,&quot;SF Pro Text&quot;,Helvetica,sans-serif;text-anchor:middle;" transform="matrix(1 0 0 1 2636.69 322)">Heavy</text>
  <text style="stroke:none;fill:black;font-family:-apple-system,&quot;SF Pro Display&quot;,&quot;SF Pro Text&quot;,Helvetica,sans-serif;text-anchor:middle;" transform="matrix(1 0 0 1 2933.4 322)">Black</text>
  <line id="" style="fill:none;stroke:black;opacity:1;stroke-width:0.5;" x1="263" x2="3036" y1="1903" y2="1903"/>
  <g id="" transform="matrix(1 0 0 1 263 1933)">
   <path d="M 9.24805 0.830078 C 13.5547 0.830078 17.1387 -2.74414 17.1387 -7.05078 C 17.1387 -11.3574 13.5449 -14.9316 9.23828 -14.9316 C 4.94141 -14.9316 1.36719 -11.3574 1.36719 -7.05078 C 1.36719 -2.74414 4.95117 0.830078 9.24805 0.830078 Z M 9.24805 -0.654297 C 5.70312 -0.654297 2.87109 -3.49609 2.87109 -7.05078 C 2.87109 -10.6055 5.69336 -13.4473 9.23828 -13.4473 C 12.793 -13.4473 15.6348 -10.6055 15.6445 -7.05078 C 15.6543 -3.49609 12.8027 -0.654297 9.24805 -0.654297 Z M 9.22852 -3.62305 C 9.69727 -3.62305 9.9707 -3.93555 9.9707 -4.45312 L 9.9707 -6.31836 L 12.002 -6.31836 C 12.5 -6.31836 12.832 -6.57227 12.832 -7.04102 C 12.832 -7.51953 12.5195 -7.7832 12.002 -7.7832 L 9.9707 -7.7832 L 9.9707 -9.81445 C 9.9707 -10.332 9.69727 -10.6543 9.22852 -10.6543 C 8.75977 -10.6543 8.50586 -10.3125 8.50586 -9.81445 L 8.50586 -7.7832 L 6.49414 -7.7832 C 5.97656 -7.7832 5.64453 -7.51953 5.64453 -7.04102 C 5.64453 -6.57227 5.99609 -6.31836 6.49414 -6.31836 L 8.50586 -6.31836 L 8.50586 -4.45312 C 8.50586 -3.95508 8.75977 -3.62305 9.22852 -3.62305 Z"/>
  </g>
  <g id="" transform="matrix(1 0 0 1 281.506 1933)">
   <path d="M 11.709 2.91016 C 17.1582 2.91016 21.6699 -1.61133 21.6699 -7.05078 C 21.6699 -12.5 17.1484 -17.0117 11.6992 -17.0117 C 6.25977 -17.0117 1.74805 -12.5 1.74805 -7.05078 C 1.74805 -1.61133 6.26953 2.91016 11.709 2.91016 Z M 11.709 1.25 C 7.09961 1.25 3.41797 -2.44141 3.41797 -7.05078 C 3.41797 -11.6602 7.08984 -15.3516 11.6992 -15.3516 C 16.3086 -15.3516 20 -11.6602 20.0098 -7.05078 C 20.0195 -2.44141 16.3184 1.25 11.709 1.25 Z M 11.6797 -2.66602 C 12.207 -2.66602 12.5098 -3.01758 12.5098 -3.59375 L 12.5098 -6.23047 L 15.3223 -6.23047 C 15.8691 -6.23047 16.25 -6.51367 16.25 -7.03125 C 16.25 -7.55859 15.8887 -7.86133 15.3223 -7.86133 L 12.5098 -7.86133 L 12.5098 -10.6836 C 12.5098 -11.25 12.207 -11.6113 11.6797 -11.6113 C 11.1621 -11.6113 10.8789 -11.2305 10.8789 -10.6836 L 10.8789 -7.86133 L 8.07617 -7.86133 C 7.50977 -7.86133 7.13867 -7.55859 7.13867 -7.03125 C 7.13867 -6.51367 7.5293 -6.23047 8.07617 -6.23047 L 10.8789 -6.23047 L 10.8789 -3.59375 C 10.8789 -3.03711 11.1621 -2.66602 11.6797 -2.66602 Z"/>
  </g>
  <g id="" transform="matrix(1 0 0 1 304.924 1933)">
   <path d="M 14.9707 5.66406 C 21.9336 5.66406 27.6953 -0.0976562 27.6953 -7.05078 C 27.6953 -14.0137 21.9238 -19.7754 14.9609 -19.7754 C 8.00781 -19.7754 2.25586 -14.0137 2.25586 -7.05078 C 2.25586 -0.0976562 8.01758 5.66406 14.9707 5.66406 Z M 14.9707 3.84766 C 8.93555 3.84766 4.08203 -1.01562 4.08203 -7.05078 C 4.08203 -13.0957 8.92578 -17.9492 14.9609 -17.9492 C 21.0059 -17.9492 25.8594 -13.0957 25.8691 -7.05078 C 25.8789 -1.01562 21.0156 3.84766 14.9707 3.84766 Z M 14.9414 -1.38672 C 15.5176 -1.38672 15.8594 -1.77734 15.8594 -2.38281 L 15.8594 -6.13281 L 19.7754 -6.13281 C 20.3711 -6.13281 20.7812 -6.46484 20.7812 -7.02148 C 20.7812 -7.59766 20.3906 -7.93945 19.7754 -7.93945 L 15.8594 -7.93945 L 15.8594 -11.8652 C 15.8594 -12.4805 15.5176 -12.8711 14.9414 -12.8711 C 14.375 -12.8711 14.0527 -12.4609 14.0527 -11.8652 L 14.0527 -7.93945 L 10.1465 -7.93945 C 9.53125 -7.93945 9.13086 -7.59766 9.13086 -7.02148 C 9.13086 -6.46484 9.55078 -6.13281 10.1465 -6.13281 L 14.0527 -6.13281 L 14.0527 -2.38281 C 14.0527 -1.79688 14.375 -1.38672 14.9414 -1.38672 Z"/>
  </g>
  <text style="stroke:none;fill:black;font-family:-apple-system,&quot;SF Pro Display&quot;,&quot;SF Pro Text&quot;,Helvetica,sans-serif;font-weight:bold;" transform="matrix(1 0 0 1 263 1953)">Design Variations</text>
  <text style="stroke:none;fill:black;font-family:-apple-system,&quot;SF Pro Display&quot;,&quot;SF Pro Text&quot;,Helvetica,sans-serif;" transform="matrix(1 0 0 1 263 1971)">Symbols are supported in up to nine weights and three scales.</text>
  <text style="stroke:none;fill:black;font-family:-apple-system,&quot;SF Pro Display&quot;,&quot;SF Pro Text&quot;,Helvetica,sans-serif;" transform="matrix(1 0 0 1 263 1989)">For optimal layout with text and other symbols, vertically align</text>
  <text style="stroke:none;fill:black;font-family:-apple-system,&quot;SF Pro Display&quot;,&quot;SF Pro Text&quot;,Helvetica,sans-serif;" transform="matrix(1 0 0 1 263 2007)">symbols with the adjacent text.</text>
  <line id="" style="fill:none;stroke:#00AEEF;stroke-width:0.5;opacity:1.0;" x1="776" x2="776" y1="1919" y2="1933"/>
  <g id="" transform="matrix(1 0 0 1 776 1933)">
   <path d="M 3.31055 0.126953 C 3.82812 0.126953 4.08203 -0.0683594 4.26758 -0.605469 L 5.52734 -4.0625 L 11.2891 -4.0625 L 12.5488 -0.605469 C 12.7344 -0.0683594 12.9883 0.126953 13.4961 0.126953 C 14.0137 0.126953 14.3457 -0.185547 14.3457 -0.673828 C 14.3457 -0.839844 14.3164 -0.986328 14.2383 -1.20117 L 9.6582 -13.3887 C 9.43359 -13.9941 9.0332 -14.2871 8.4082 -14.2871 C 7.80273 -14.2871 7.39258 -13.9941 7.17773 -13.3984 L 2.59766 -1.19141 C 2.51953 -0.976562 2.49023 -0.830078 2.49023 -0.664062 C 2.49023 -0.175781 2.80273 0.126953 3.31055 0.126953 Z M 6.00586 -5.53711 L 8.37891 -12.1094 L 8.42773 -12.1094 L 10.8008 -5.53711 Z"/>
  </g>
  <line id="" style="fill:none;stroke:#00AEEF;stroke-width:0.5;opacity:1.0;" x1="792.836" x2="792.836" y1="1919" y2="1933"/>
  <text style="stroke:none;fill:black;font-family:-apple-system,&quot;SF Pro Display&quot;,&quot;SF Pro Text&quot;,Helvetica,sans-serif;font-weight:bold;" transform="matrix(1 0 0 1 776 1953)">Margins</text>
  <text style="stroke:none;fill:black;font-family:-apple-system,&quot;SF Pro Display&quot;,&quot;SF Pro Text&quot;,Helvetica,sans-serif;" transform="matrix(1 0 0 1 776 1971)">Leading and trailing margins on the left and right side of each symbol</text>
  <text style="stroke:none;fill:black;font-family:-apple-system,&quot;SF Pro Display&quot;,&quot;SF Pro Text&quot;,Helvetica,sans-serif;" transform="matrix(1 0 0 1 776 1989)">can be adjusted by modifying the x-location of the margin guidelines.</text>
  <text style="stroke:none;fill:black;font-family:-apple-system,&quot;SF Pro Display&quot;,&quot;SF Pro Text&quot;,Helvetica,sans-serif;" transform="matrix(1 0 0 1 776 2007)">Modifications are automatically applied proportionally to all</text>
  <text style="stroke:none;fill:black;font-family:-apple-system,&quot;SF Pro Display&quot;,&quot;SF Pro Text&quot;,Helvetica,sans-serif;" transform="matrix(1 0 0 1 776 2025)">scales and weights.</text>
  <g id="" transform="matrix(1 0 0 1 1289 1933)">
   <path d="M 2.8418 1.86523 L 4.54102 3.57422 C 5.40039 4.44336 6.38672 4.38477 7.31445 3.35938 L 17.4902 -7.85156 C 17.7539 -7.76367 18.0273 -7.7832 18.3398 -7.8418 L 19.4043 -8.03711 L 20.0684 -7.36328 L 20.0293 -6.80664 C 19.9902 -6.30859 20.1172 -5.92773 20.6055 -5.44922 L 21.3672 -4.70703 C 21.8457 -4.22852 22.4609 -4.19922 22.9297 -4.66797 L 25.8398 -7.58789 C 26.3086 -8.05664 26.2891 -8.65234 25.8105 -9.13086 L 25.0391 -9.89258 C 24.5605 -10.3711 24.1895 -10.5273 23.7109 -10.4883 L 23.1348 -10.4395 L 22.4902 -11.0742 L 22.7344 -12.1973 C 22.8613 -12.7637 22.7051 -13.2031 22.1191 -13.7891 L 19.9219 -15.9766 C 16.582 -19.2969 12.1484 -19.2188 9.25781 -16.3281 C 8.83789 -15.918 8.80859 -15.3418 9.04297 -14.9512 C 9.27734 -14.5898 9.73633 -14.3555 10.3809 -14.5215 C 11.8457 -14.8633 13.3691 -14.9219 14.7949 -13.9844 L 14.209 -12.5293 C 14.0137 -12.0508 13.9844 -11.6504 14.1113 -11.2891 L 3.04688 -0.898438 C 2.06055 0.0195312 1.98242 0.996094 2.8418 1.86523 Z M 10.752 -15.957 C 13.1836 -17.7344 16.4746 -17.4316 18.7012 -15.2051 L 21.1328 -12.793 C 21.3672 -12.5586 21.4062 -12.373 21.3379 -12.0312 L 21.0156 -10.5469 L 22.5195 -9.0625 L 23.5059 -9.12109 C 23.7598 -9.13086 23.8379 -9.11133 24.0332 -8.91602 L 24.6094 -8.33984 L 22.168 -5.89844 L 21.5918 -6.47461 C 21.3965 -6.66992 21.3672 -6.74805 21.377 -7.01172 L 21.4453 -7.98828 L 19.9512 -9.47266 L 18.4277 -9.21875 C 18.1055 -9.15039 17.959 -9.17969 17.7148 -9.41406 L 15.7129 -11.416 C 15.459 -11.6504 15.4297 -11.8164 15.5859 -12.1875 L 16.4648 -14.2773 C 14.9023 -15.7324 12.8711 -16.3574 10.8398 -15.7617 C 10.6836 -15.7227 10.625 -15.8496 10.752 -15.957 Z M 5.27344 2.30469 L 4.10156 1.14258 C 3.63281 0.683594 3.74023 0.341797 4.14062 -0.0195312 L 14.9512 -10.1953 L 16.416 -8.71094 L 6.42578 2.27539 C 6.07422 2.67578 5.74219 2.77344 5.27344 2.30469 Z"/>
  </g>
  <text style="stroke:none;fill:black;font-family:-apple-system,&quot;SF Pro Display&quot;,&quot;SF Pro Text&quot;,Helvetica,sans-serif;font-weight:bold;" transform="matrix(1 0 0 1 1289 1953)">Exporting</text>
  <text style="stroke:none;fill:black;font-family:-apple-system,&quot;SF Pro Display&quot;,&quot;SF Pro Text&quot;,Helvetica,sans-serif;" transform="matrix(1 0 0 1 1289 1971)">Symbols should be outlined when exporting to ensure the</text>
  <text style="stroke:none;fill:black;font-family:-apple-system,&quot;SF Pro Display&quot;,&quot;SF Pro Text&quot;,Helvetica,sans-serif;" transform="matrix(1 0 0 1 1289 1989)">design is preserved when submitting to Xcode.</text>
  <text id="template-version" style="stroke:none;fill:black;font-family:-apple-system,&quot;SF Pro Display&quot;,&quot;SF Pro Text&quot;,Helvetica,sans-serif;text-anchor:end;" transform="matrix(1 0 0 1 3036 1933)">Template v.2.0</text>
  <text style="stroke:none;fill:black;font-family:-apple-system,&quot;SF Pro Display&quot;,&quot;SF Pro Text&quot;,Helvetica,sans-serif;text-anchor:end;" transform="matrix(1 0 0 1 3036 1951)">Requires Xcode 12 or greater</text>
  <text style="stroke:none;fill:black;font-family:-apple-system,&quot;SF Pro Display&quot;,&quot;SF Pro Text&quot;,Helvetica,sans-serif;text-anchor:end;" transform="matrix(1 0 0 1 3036 1969)">Generated from note</text>
  <text style="stroke:none;fill:black;font-family:-apple-system,&quot;SF Pro Display&quot;,&quot;SF Pro Text&quot;,Helvetica,sans-serif;text-anchor:end;" transform="matrix(1 0 0 1 3036 1987)">Typeset at 100 points</text>
  <text style="stroke:none;fill:black;font-family:-apple-system,&quot;SF Pro Display&quot;,&quot;SF Pro Text&quot;,Helvetica,sans-serif;" transform="matrix(1 0 0 1 263 726)">Small</text>
  <text style="stroke:none;fill:black;font-family:-apple-system,&quot;SF Pro Display&quot;,&quot;SF Pro Text&quot;,Helvetica,sans-serif;" transform="matrix(1 0 0 1 263 1156)">Medium</text>
  <text style="stroke:none;fill:black;font-family:-apple-system,&quot;SF Pro Display&quot;,&quot;SF Pro Text&quot;,Helvetica,sans-serif;" transform="matrix(1 0 0 1 263 1586)">Large</text>
 </g>
 <g id="Guides">
  <g id="H-reference" style="fill:#27AAE1;stroke:none;" transform="matrix(1 0 0 1 339 696)">
   <path d="M 0.976562 0 L 3.66211 0 L 12.9883 -24.4629 L 45.7031 -24.4629 L 55.0781 0 L 57.7148 0 L 30.6152 -70.459 L 28.125 -70.459 Z M 29.2969 -67.1387 L 29.3945 -67.1387 L 44.873 -26.709 L 13.8672 -26.709 Z"/>
  </g>
  <line id="Baseline-S" style="fill:none;stroke:#27AAE1;opacity:1;stroke-width:0.5;" x1="263" x2="3036" y1="696" y2="696"/>
  <line id="Capline-S" style="fill:none;stroke:#27AAE1;opacity:1;stroke-width:0.5;" x1="263" x2="3036" y1="625.541" y2="625.541"/>
  <g id="H-reference" style="fill:#27AAE1;stroke:none;" transform="matrix(1 0 0 1 339 1126)">
   <path d="M 0.976562 0 L 3.66211 0 L 12.9883 -24.4629 L 45.7031 -24.4629 L 55.0781 0 L 57.7148 0 L 30.6152 -70.459 L 28.125 -70.459 Z M 29.2969 -67.1387 L 29.3945 -67.1387 L 44.873 -26.709 L 13.8672 -26.709 Z"/>
  </g>
  <line id="Baseline-M" style="fill:none;stroke:#27AAE1;opacity:1;stroke-width:0.5;" x1="263" x2="3036" y1="1126" y2="1126"/>
  <line id="Capline-M" style="fill:none;stroke:#27AAE1;opacity:1;stroke-width:0.5;" x1="263" x2="3036" y1="1055.54" y2="1055.54"/>
  <g id="H-reference" style="fill:#27AAE1;stroke:none;" transform="matrix(1 0 0 1 339 1556)">
   <path d="M 0.976562 0 L 3.66211 0 L 12.9883 -24.4629 L 45.7031 -24.4629 L 55.0781 0 L 57.7148 0 L 30.6152 -70.459 L 28.125 -70.459 Z M 29.2969 -67.1387 L 29.3945 -67.1387 L 44.873 -26.709 L 13.8672 -26.709 Z"/>
  </g>
  <line id="Baseline-L" style="fill:none;stroke:#27AAE1;opacity:1;stroke-width:0.5;" x1="263" x2="3036" y1="1556" y2="1556"/>
  <line id="Capline-L" style="fill:none;stroke:#27AAE1;opacity:1;stroke-width:0.5;" x1="263" x2="3036" y1="1485.54" y2="1485.54"/>
  <line id="left-margin" style="fill:none;stroke:#00AEEF;stroke-width:0.5;opacity:1.0;" x1="1388.74" x2="1388.74" y1="1030.79" y2="1150.12"/>
  <line id="right-margin" style="fill:none;stroke:#00AEEF;stroke-width:0.5;opacity:1.0;" x1="1510.95" x2="1510.95" y1="1030.79" y2="1150.12"/>
 </g>
 <g id="Symbols">
  <g id="Black-L" transform="matrix(1 0 0 1 2849.17 1556)">
   <path d="M 39.9902 26.5137 L 128.467 26.5137 C 143.701 26.5137 152.393 17.8711 152.393 2.68555 L 152.393 -73.0957 C 152.393 -88.2812 143.701 -96.875 128.467 -96.875 L 39.9902 -96.875 C 24.7559 -96.875 16.0645 -88.2812 16.0645 -73.0957 L 16.0645 2.68555 C 16.0645 17.8711 24.7559 26.5137 39.9902 26.5137 Z M 42.334 6.29883 C 38.3301 6.29883 36.3281 4.54102 36.3281 0.195312 L 36.3281 -54.1504 C 36.3281 -58.4473 38.3301 -60.2051 42.334 -60.2051 L 126.074 -60.2051 C 130.078 -60.2051 132.129 -58.4473 132.129 -54.1504 L 132.129 0.195312 C 132.129 4.54102 130.078 6.29883 126.074 6.29883 Z"/>
  </g>
  <g id="Heavy-L" transform="matrix(1 0 0 1 2553.8 1556)">
   <path d="M 38.8184 25.4883 L 126.953 25.4883 C 141.602 25.4883 149.707 17.4316 149.707 2.88086 L 149.707 -73.2422 C 149.707 -87.793 141.602 -95.8496 126.953 -95.8496 L 38.8184 -95.8496 C 24.2188 -95.8496 16.0645 -87.793 16.0645 -73.2422 L 16.0645 2.88086 C 16.0645 17.4316 24.2188 25.4883 38.8184 25.4883 Z M 40.4297 8.00781 C 35.9375 8.00781 33.5938 5.85938 33.5938 1.07422 L 33.5938 -54.248 C 33.5938 -59.0332 35.9375 -61.1816 40.4297 -61.1816 L 125.293 -61.1816 C 129.834 -61.1816 132.227 -59.0332 132.227 -54.248 L 132.227 1.07422 C 132.227 5.85938 129.834 8.00781 125.293 8.00781 Z"/>
  </g>
  <g id="Bold-L" transform="matrix(1 0 0 1 2258.56 1556)">
   <path d="M 37.5 24.3652 L 125.293 24.3652 C 139.258 24.3652 146.777 16.8945 146.777 3.07617 L 146.777 -73.3887 C 146.777 -87.207 139.258 -94.7266 125.293 -94.7266 L 37.5 -94.7266 C 23.6328 -94.7266 16.0645 -87.2559 16.0645 -73.3887 L 16.0645 3.07617 C 16.0645 16.8945 23.6328 24.3652 37.5 24.3652 Z M 38.3789 9.91211 C 33.252 9.91211 30.5176 7.37305 30.5176 2.00195 L 30.5176 -54.2969 C 30.5176 -59.668 33.252 -62.207 38.3789 -62.207 L 124.414 -62.207 C 129.541 -62.207 132.324 -59.668 132.324 -54.2969 L 132.324 2.00195 C 132.324 7.37305 129.541 9.91211 124.414 9.91211 Z"/>
  </g>
  <g id="Semibold-L" transform="matrix(1 0 0 1 1962.87 1556)">
   <path d="M 36.6211 23.584 L 124.17 23.584 C 137.598 23.584 144.727 16.5039 144.727 3.17383 L 144.727 -73.5352 C 144.727 -86.8164 137.598 -93.9453 124.17 -93.9453 L 36.6211 -93.9453 C 23.1934 -93.9453 16.0645 -86.8652 16.0645 -73.5352 L 16.0645 3.17383 C 16.0645 16.5527 23.1934 23.584 36.6211 23.584 Z M 36.9141 11.2793 C 31.3965 11.2793 28.418 8.44727 28.418 2.68555 L 28.418 -54.3457 C 28.418 -60.1562 31.3965 -62.9395 36.9141 -62.9395 L 123.828 -62.9395 C 129.297 -62.9395 132.373 -60.1562 132.373 -54.3457 L 132.373 2.68555 C 132.373 8.44727 129.297 11.2793 123.828 11.2793 Z"/>
  </g>
  <g id="Medium-L" transform="matrix(1 0 0 1 1666.94 1556)">
   <path d="M 35.9375 22.998 L 123.291 22.998 C 136.377 22.998 143.164 16.2109 143.164 3.27148 L 143.164 -73.6328 C 143.164 -86.5234 136.377 -93.3105 123.291 -93.3105 L 35.9375 -93.3105 C 22.9004 -93.3105 16.0645 -86.5723 16.0645 -73.6328 L 16.0645 3.27148 C 16.0645 16.2598 22.9004 22.998 35.9375 22.998 Z M 35.8398 12.2559 C 29.9805 12.2559 26.8066 9.22852 26.8066 3.17383 L 26.8066 -54.3945 C 26.8066 -60.4492 29.9805 -63.5254 35.8398 -63.5254 L 123.34 -63.5254 C 129.15 -63.5254 132.422 -60.4492 132.422 -54.3945 L 132.422 3.17383 C 132.422 9.22852 129.15 12.2559 123.34 12.2559 Z"/>
  </g>
  <g id="Regular-L" transform="matrix(1 0 0 1 1371.23 1556)">
   <path d="M 35.0586 22.2168 L 122.119 22.2168 C 134.766 22.2168 141.162 15.8691 141.162 3.41797 L 141.162 -73.7305 C 141.162 -86.1816 134.766 -92.5293 122.119 -92.5293 L 35.0586 -92.5293 C 22.4609 -92.5293 16.0645 -86.2305 16.0645 -73.7305 L 16.0645 3.41797 C 16.0645 15.918 22.4609 22.2168 35.0586 22.2168 Z M 34.375 13.5742 C 28.125 13.5742 24.707 10.2539 24.707 3.80859 L 24.707 -54.4434 C 24.707 -60.9375 28.125 -64.209 34.375 -64.209 L 122.754 -64.209 C 128.955 -64.209 132.471 -60.9375 132.471 -54.4434 L 132.471 3.80859 C 132.471 10.2539 128.955 13.5742 122.754 13.5742 Z"/>
  </g>
  <g id="Light-L" transform="matrix(1 0 0 1 1074.89 1556)">
   <path d="M 34.0332 21.4355 L 122.461 21.4355 C 134.326 21.4355 140.43 15.2344 140.43 3.56445 L 140.43 -73.8281 C 140.43 -85.5469 134.326 -91.6992 122.461 -91.6992 L 34.0332 -91.6992 C 22.168 -91.6992 16.0645 -85.6445 16.0645 -73.8281 L 16.0645 3.56445 C 16.0645 15.3809 22.168 21.4355 34.0332 21.4355 Z M 33.6914 14.7949 C 26.5137 14.7949 22.7051 11.0352 22.7051 3.75977 L 22.7051 -52.9785 C 22.7051 -60.3027 26.5137 -64.0625 33.6914 -64.0625 L 122.803 -64.0625 C 129.785 -64.0625 133.838 -60.3027 133.838 -52.9785 L 133.838 3.75977 C 133.838 11.0352 129.785 14.7949 122.803 14.7949 Z"/>
  </g>
  <g id="Thin-L" transform="matrix(1 0 0 1 778.639 1556)">
   <path d="M 32.666 20.3613 L 122.9 20.3613 C 133.789 20.3613 139.502 14.4531 139.502 3.75977 L 139.502 -73.9746 C 139.502 -84.7168 133.789 -90.5762 122.9 -90.5762 L 32.666 -90.5762 C 21.7773 -90.5762 16.0645 -84.8633 16.0645 -73.9746 L 16.0645 3.75977 C 16.0645 14.6484 21.7773 20.3613 32.666 20.3613 Z M 32.7148 16.4062 C 24.3652 16.4062 19.9707 12.0605 19.9707 3.66211 L 19.9707 -51.0742 C 19.9707 -59.4727 24.3652 -63.8184 32.7148 -63.8184 L 122.852 -63.8184 C 130.908 -63.8184 135.596 -59.4727 135.596 -51.0742 L 135.596 3.66211 C 135.596 12.0605 130.908 16.4062 122.852 16.4062 Z"/>
  </g>
  <g id="Ultralight-L" transform="matrix(1 0 0 1 482.148 1556)">
   <path d="M 31.9824 19.7754 L 123.145 19.7754 C 133.496 19.7754 139.062 14.0625 139.062 3.85742 L 139.062 -74.0723 C 139.062 -84.2773 133.496 -89.9902 123.145 -89.9902 L 31.9824 -89.9902 C 21.582 -89.9902 16.0645 -84.4727 16.0645 -74.0723 L 16.0645 3.85742 C 16.0645 14.2578 21.582 19.7754 31.9824 19.7754 Z M 32.2266 17.2363 C 23.2422 17.2363 18.6035 12.5977 18.6035 3.61328 L 18.6035 -50.0488 C 18.6035 -59.0332 23.2422 -63.6719 32.2266 -63.6719 L 122.852 -63.6719 C 131.494 -63.6719 136.475 -59.0332 136.475 -50.0488 L 136.475 3.61328 C 136.475 12.5977 131.494 17.2363 122.852 17.2363 Z"/>
  </g>
  <g id="Black-M" transform="matrix(1 0 0 1 2866.53 1126)">
   <path d="M 31.9824 13.5742 L 101.758 13.5742 C 114.014 13.5742 121.289 6.29883 121.289 -5.95703 L 121.289 -64.4043 C 121.289 -76.6602 114.014 -83.9355 101.758 -83.9355 L 31.9824 -83.9355 C 19.7266 -83.9355 12.4512 -76.6602 12.4512 -64.4043 L 12.4512 -5.95703 C 12.4512 6.29883 19.7266 13.5742 31.9824 13.5742 Z M 34.9609 -4.73633 C 32.0801 -4.73633 30.7617 -5.81055 30.7617 -8.93555 L 30.7617 -49.0234 C 30.7617 -52.0996 32.0801 -53.2227 34.9609 -53.2227 L 98.7793 -53.2227 C 101.66 -53.2227 102.979 -52.0996 102.979 -49.0234 L 102.979 -8.93555 C 102.979 -5.81055 101.66 -4.73633 98.7793 -4.73633 Z"/>
  </g>
  <g id="Heavy-M" transform="matrix(1 0 0 1 2571.19 1126)">
   <path d="M 31.0059 12.6465 L 100.049 12.6465 C 111.816 12.6465 118.555 5.9082 118.555 -5.81055 L 118.555 -64.5508 C 118.555 -76.2695 111.816 -83.0566 100.049 -83.0566 L 31.0059 -83.0566 C 19.2383 -83.0566 12.4512 -76.3184 12.4512 -64.5508 L 12.4512 -5.81055 C 12.4512 5.9082 19.2383 12.6465 31.0059 12.6465 Z M 33.1055 -3.17383 C 29.8828 -3.17383 28.2715 -4.54102 28.2715 -8.00781 L 28.2715 -49.4629 C 28.2715 -52.9297 29.8828 -54.2969 33.1055 -54.2969 L 97.9492 -54.2969 C 101.123 -54.2969 102.734 -52.9297 102.734 -49.4629 L 102.734 -8.00781 C 102.734 -4.54102 101.123 -3.17383 97.9492 -3.17383 Z"/>
  </g>
  <g id="Bold-M" transform="matrix(1 0 0 1 2275.99 1126)">
   <path d="M 29.8828 11.6699 L 98.0957 11.6699 C 109.326 11.6699 115.527 5.46875 115.527 -5.66406 L 115.527 -64.6973 C 115.527 -75.8789 109.326 -82.0312 98.0957 -82.0312 L 29.8828 -82.0312 C 18.6523 -82.0312 12.4512 -75.8789 12.4512 -64.6973 L 12.4512 -5.66406 C 12.4512 5.51758 18.6523 11.6699 29.8828 11.6699 Z M 31.0059 -1.41602 C 27.3926 -1.41602 25.5371 -3.125 25.5371 -6.93359 L 25.5371 -50 C 25.5371 -53.8086 27.3926 -55.5176 31.0059 -55.5176 L 96.9727 -55.5176 C 100.537 -55.5176 102.441 -53.8086 102.441 -50 L 102.441 -6.93359 C 102.441 -3.125 100.537 -1.41602 96.9727 -1.41602 Z"/>
  </g>
  <g id="Semibold-M" transform="matrix(1 0 0 1 1980.33 1126)">
   <path d="M 29.1016 10.9863 L 96.7773 10.9863 C 107.666 10.9863 113.428 5.17578 113.428 -5.56641 L 113.428 -64.8438 C 113.428 -75.5859 107.666 -81.3477 96.7773 -81.3477 L 29.1016 -81.3477 C 18.2617 -81.3477 12.4512 -75.5859 12.4512 -64.8438 L 12.4512 -5.56641 C 12.4512 5.22461 18.2617 10.9863 29.1016 10.9863 Z M 29.5898 -0.195312 C 25.6836 -0.195312 23.6328 -2.14844 23.6328 -6.20117 L 23.6328 -50.3418 C 23.6328 -54.4434 25.6836 -56.3477 29.5898 -56.3477 L 96.2891 -56.3477 C 100.146 -56.3477 102.246 -54.4434 102.246 -50.3418 L 102.246 -6.20117 C 102.246 -2.14844 100.146 -0.195312 96.2891 -0.195312 Z"/>
  </g>
  <g id="Medium-M" transform="matrix(1 0 0 1 1684.4 1126)">
   <path d="M 28.5156 10.4492 L 95.752 10.4492 C 106.348 10.4492 111.865 4.98047 111.865 -5.46875 L 111.865 -64.8926 C 111.865 -75.3418 106.348 -80.8105 95.752 -80.8105 L 28.5156 -80.8105 C 17.9688 -80.8105 12.4512 -75.3906 12.4512 -64.8926 L 12.4512 -5.46875 C 12.4512 4.98047 17.9688 10.4492 28.5156 10.4492 Z M 28.4668 0.732422 C 24.4141 0.732422 22.168 -1.36719 22.168 -5.66406 L 22.168 -50.5859 C 22.168 -54.8828 24.4141 -56.9824 28.4668 -56.9824 L 95.8008 -56.9824 C 99.8535 -56.9824 102.1 -54.8828 102.1 -50.5859 L 102.1 -5.66406 C 102.1 -1.36719 99.8535 0.732422 95.8008 0.732422 Z"/>
  </g>
  <g id="Regular-M" transform="matrix(1 0 0 1 1388.74 1126)">
   <path d="M 27.7832 9.76562 L 94.4824 9.76562 C 104.688 9.76562 109.766 4.6875 109.766 -5.37109 L 109.766 -64.9902 C 109.766 -75.0488 104.688 -80.127 94.4824 -80.127 L 27.7832 -80.127 C 17.5781 -80.127 12.4512 -75.0977 12.4512 -64.9902 L 12.4512 -5.37109 C 12.4512 4.73633 17.5781 9.76562 27.7832 9.76562 Z M 27.0508 1.9043 C 22.7051 1.9043 20.3125 -0.390625 20.3125 -4.93164 L 20.3125 -50.9766 C 20.3125 -55.4688 22.7051 -57.8125 27.0508 -57.8125 L 95.1172 -57.8125 C 99.4629 -57.8125 101.904 -55.4688 101.904 -50.9766 L 101.904 -4.93164 C 101.904 -0.390625 99.4629 1.9043 95.1172 1.9043 Z"/>
  </g>
  <g id="Light-M" transform="matrix(1 0 0 1 1092.32 1126)">
   <path d="M 26.8555 9.0332 L 94.7754 9.0332 C 104.297 9.0332 109.18 4.15039 109.18 -5.22461 L 109.18 -65.0879 C 109.18 -74.5117 104.297 -79.3945 94.7754 -79.3945 L 26.8555 -79.3945 C 17.334 -79.3945 12.4512 -74.5605 12.4512 -65.0879 L 12.4512 -5.22461 C 12.4512 4.19922 17.334 9.0332 26.8555 9.0332 Z M 26.416 2.97852 C 21.2891 2.97852 18.5059 0.292969 18.5059 -4.98047 L 18.5059 -49.6582 C 18.5059 -54.9316 21.2891 -57.666 26.416 -57.666 L 95.166 -57.666 C 100.195 -57.666 103.125 -54.9316 103.125 -49.6582 L 103.125 -4.98047 C 103.125 0.292969 100.195 2.97852 95.166 2.97852 Z"/>
  </g>
  <g id="Thin-M" transform="matrix(1 0 0 1 796.046 1126)">
   <path d="M 25.6348 8.05664 L 95.166 8.05664 C 103.809 8.05664 108.301 3.4668 108.301 -5.0293 L 108.301 -65.2344 C 108.301 -73.7305 103.809 -78.3691 95.166 -78.3691 L 25.6348 -78.3691 C 16.9922 -78.3691 12.4512 -73.877 12.4512 -65.2344 L 12.4512 -5.0293 C 12.4512 3.56445 16.9922 8.05664 25.6348 8.05664 Z M 25.5859 4.44336 C 19.3359 4.44336 16.0645 1.2207 16.0645 -5.07812 L 16.0645 -47.9004 C 16.0645 -54.1992 19.3359 -57.4219 25.5859 -57.4219 L 95.2148 -57.4219 C 101.221 -57.4219 104.688 -54.1992 104.688 -47.9004 L 104.688 -5.07812 C 104.688 1.2207 101.221 4.44336 95.2148 4.44336 Z"/>
  </g>
  <g id="Ultralight-M" transform="matrix(1 0 0 1 499.53 1126)">
   <path d="M 25 7.56836 L 95.3613 7.56836 C 103.564 7.56836 107.91 3.125 107.91 -4.98047 L 107.91 -65.2832 C 107.91 -73.3887 103.564 -77.832 95.3613 -77.832 L 25 -77.832 C 16.7969 -77.832 12.4512 -73.4863 12.4512 -65.2832 L 12.4512 -4.98047 C 12.4512 3.22266 16.7969 7.56836 25 7.56836 Z M 25.1465 5.17578 C 18.3594 5.17578 14.8438 1.66016 14.8438 -5.07812 L 14.8438 -47.0215 C 14.8438 -53.8086 18.3594 -57.3242 25.1465 -57.3242 L 95.2148 -57.3242 C 101.758 -57.3242 105.518 -53.8086 105.518 -47.0215 L 105.518 -5.07812 C 105.518 1.66016 101.758 5.17578 95.2148 5.17578 Z"/>
  </g>
  <g id="Black-S" transform="matrix(1 0 0 1 2881.11 696)">
   <path d="M 25 2.92969 L 79.5898 2.92969 C 89.1602 2.92969 94.8242 -2.73438 94.8242 -12.3047 L 94.8242 -58.1055 C 94.8242 -67.6758 89.1602 -73.3398 79.5898 -73.3398 L 25 -73.3398 C 15.4297 -73.3398 9.76562 -67.6758 9.76562 -58.1055 L 9.76562 -12.3047 C 9.76562 -2.73438 15.4297 2.92969 25 2.92969 Z M 27.2461 -11.2305 C 25 -11.2305 23.9258 -12.1094 23.9258 -14.5508 L 23.9258 -46.0938 C 23.9258 -48.5352 25 -49.4141 27.2461 -49.4141 L 77.3438 -49.4141 C 79.5898 -49.4141 80.6641 -48.5352 80.6641 -46.0938 L 80.6641 -14.5508 C 80.6641 -12.1094 79.5898 -11.2305 77.3438 -11.2305 Z"/>
  </g>
  <g id="Heavy-S" transform="matrix(1 0 0 1 2585.39 696)">
   <path d="M 24.3652 2.34375 L 78.2227 2.34375 C 87.5 2.34375 92.8223 -2.97852 92.8223 -12.207 L 92.8223 -58.2031 C 92.8223 -67.4316 87.5 -72.7539 78.2227 -72.7539 L 24.3652 -72.7539 C 15.0879 -72.7539 9.76562 -67.4316 9.76562 -58.2031 L 9.76562 -12.207 C 9.76562 -2.97852 15.0879 2.34375 24.3652 2.34375 Z M 25.8789 -10.1562 C 23.4863 -10.1562 22.2656 -11.2305 22.2656 -13.8184 L 22.2656 -46.582 C 22.2656 -49.2188 23.4863 -50.2441 25.8789 -50.2441 L 76.6602 -50.2441 C 79.1016 -50.2441 80.3223 -49.2188 80.3223 -46.582 L 80.3223 -13.8184 C 80.3223 -11.2305 79.1016 -10.1562 76.6602 -10.1562 Z"/>
  </g>
  <g id="Bold-S" transform="matrix(1 0 0 1 2289.81 696)">
   <path d="M 23.6328 1.66016 L 76.709 1.66016 C 85.6934 1.66016 90.5762 -3.22266 90.5762 -12.1094 L 90.5762 -58.3008 C 90.5762 -67.1875 85.6934 -72.0703 76.709 -72.0703 L 23.6328 -72.0703 C 14.6973 -72.0703 9.76562 -67.1875 9.76562 -58.3008 L 9.76562 -12.1094 C 9.76562 -3.22266 14.6973 1.66016 23.6328 1.66016 Z M 24.3652 -8.93555 C 21.7773 -8.93555 20.3613 -10.2051 20.3613 -13.0371 L 20.3613 -47.1191 C 20.3613 -49.9512 21.7773 -51.2207 24.3652 -51.2207 L 75.9277 -51.2207 C 78.5645 -51.2207 79.9805 -49.9512 79.9805 -47.1191 L 79.9805 -13.0371 C 79.9805 -10.2051 78.5645 -8.93555 75.9277 -8.93555 Z"/>
  </g>
  <g id="Semibold-S" transform="matrix(1 0 0 1 1993.88 696)">
   <path d="M 23.0957 1.17188 L 75.6836 1.17188 C 84.4238 1.17188 89.0137 -3.36914 89.0137 -12.0117 L 89.0137 -58.3984 C 89.0137 -67.041 84.4238 -71.582 75.6836 -71.582 L 23.0957 -71.582 C 14.4043 -71.582 9.76562 -67.041 9.76562 -58.3984 L 9.76562 -12.0117 C 9.76562 -3.36914 14.4043 1.17188 23.0957 1.17188 Z M 23.3398 -8.10547 C 20.6055 -8.10547 19.0918 -9.52148 19.0918 -12.4512 L 19.0918 -47.5098 C 19.0918 -50.4883 20.6055 -51.8555 23.3398 -51.8555 L 75.4395 -51.8555 C 78.2227 -51.8555 79.7363 -50.4883 79.7363 -47.5098 L 79.7363 -12.4512 C 79.7363 -9.52148 78.2227 -8.10547 75.4395 -8.10547 Z"/>
  </g>
  <g id="Medium-S" transform="matrix(1 0 0 1 1697.75 696)">
   <path d="M 22.7051 0.830078 L 74.9023 0.830078 C 83.4473 0.830078 87.8418 -3.51562 87.8418 -11.9629 L 87.8418 -58.4473 C 87.8418 -66.8945 83.4473 -71.2402 74.9023 -71.2402 L 22.7051 -71.2402 C 14.209 -71.2402 9.76562 -66.8945 9.76562 -58.4473 L 9.76562 -11.9629 C 9.76562 -3.51562 14.209 0.830078 22.7051 0.830078 Z M 22.5586 -7.4707 C 19.6777 -7.4707 18.0664 -8.98438 18.0664 -12.0117 L 18.0664 -47.8027 C 18.0664 -50.8789 19.6777 -52.3438 22.5586 -52.3438 L 75.0488 -52.3438 C 77.9297 -52.3438 79.541 -50.8789 79.541 -47.8027 L 79.541 -12.0117 C 79.541 -8.98438 77.9297 -7.4707 75.0488 -7.4707 Z"/>
  </g>
  <g id="Regular-S" transform="matrix(1 0 0 1 1401.8 696)">
   <path d="M 22.2168 0.390625 L 73.877 0.390625 C 82.2266 0.390625 86.3281 -3.71094 86.3281 -11.9141 L 86.3281 -58.4961 C 86.3281 -66.6992 82.2266 -70.8008 73.877 -70.8008 L 22.2168 -70.8008 C 13.916 -70.8008 9.76562 -66.6992 9.76562 -58.4961 L 9.76562 -11.9141 C 9.76562 -3.71094 13.916 0.390625 22.2168 0.390625 Z M 21.5332 -6.68945 C 18.5059 -6.68945 16.7969 -8.30078 16.7969 -11.4746 L 16.7969 -48.1934 C 16.7969 -51.3672 18.5059 -52.9785 21.5332 -52.9785 L 74.5117 -52.9785 C 77.5391 -52.9785 79.2969 -51.3672 79.2969 -48.1934 L 79.2969 -11.4746 C 79.2969 -8.30078 77.5391 -6.68945 74.5117 -6.68945 Z"/>
  </g>
  <g id="Light-S" transform="matrix(1 0 0 1 1105.36 696)">
   <path d="M 21.3867 -0.292969 L 74.1211 -0.292969 C 81.8848 -0.292969 85.791 -4.15039 85.791 -11.7676 L 85.791 -58.5938 C 85.791 -66.2109 81.8848 -70.1172 74.1211 -70.1172 L 21.3867 -70.1172 C 13.6719 -70.1172 9.76562 -66.2598 9.76562 -58.5938 L 9.76562 -11.7676 C 9.76562 -4.15039 13.6719 -0.292969 21.3867 -0.292969 Z M 20.9473 -5.71289 C 17.2363 -5.71289 15.1855 -7.66602 15.1855 -11.5234 L 15.1855 -47.0215 C 15.1855 -50.8789 17.2363 -52.832 20.9473 -52.832 L 74.5605 -52.832 C 78.2227 -52.832 80.3223 -50.8789 80.3223 -47.0215 L 80.3223 -11.5234 C 80.3223 -7.66602 78.2227 -5.71289 74.5605 -5.71289 Z"/>
  </g>
  <g id="Thin-S" transform="matrix(1 0 0 1 809.01 696)">
   <path d="M 20.3125 -1.12305 L 74.4629 -1.12305 C 81.4453 -1.12305 85.0586 -4.78516 85.0586 -11.6211 L 85.0586 -58.6914 C 85.0586 -65.5762 81.4453 -69.2383 74.4629 -69.2383 L 20.3125 -69.2383 C 13.3789 -69.2383 9.76562 -65.625 9.76562 -58.6914 L 9.76562 -11.6211 C 9.76562 -4.6875 13.3789 -1.12305 20.3125 -1.12305 Z M 20.2148 -4.44336 C 15.5273 -4.44336 13.0859 -6.88477 13.0859 -11.5723 L 13.0859 -45.5078 C 13.0859 -50.2441 15.5273 -52.6855 20.2148 -52.6855 L 74.5605 -52.6855 C 79.1016 -52.6855 81.7383 -50.2441 81.7383 -45.5078 L 81.7383 -11.5723 C 81.7383 -6.88477 79.1016 -4.44336 74.5605 -4.44336 Z"/>
  </g>
  <g id="Ultralight-S" transform="matrix(1 0 0 1 512.494 696)">
   <path d="M 19.7754 -1.5625 L 74.6582 -1.5625 C 81.2012 -1.5625 84.668 -5.12695 84.668 -11.5234 L 84.668 -58.7891 C 84.668 -65.2344 81.2012 -68.75 74.6582 -68.75 L 19.7754 -68.75 C 13.2324 -68.75 9.76562 -65.2832 9.76562 -58.7891 L 9.76562 -11.5234 C 9.76562 -5.0293 13.2324 -1.5625 19.7754 -1.5625 Z M 19.8242 -3.75977 C 14.6484 -3.75977 11.9629 -6.44531 11.9629 -11.6211 L 11.9629 -44.7266 C 11.9629 -49.9023 14.6484 -52.5391 19.8242 -52.5391 L 74.6094 -52.5391 C 79.5898 -52.5391 82.4707 -49.9023 82.4707 -44.7266 L 82.4707 -11.6211 C 82.4707 -6.44531 79.5898 -3.75977 74.6094 -3.75977 Z"/>
  </g>
 </g>
</svg>
